<svg width="25" height="26" viewBox="0 0 25 26" fill="none" xmlns="http://www.w3.org/2000/svg">
<path d="M12.8462 0.0875086C12.7477 0.107397 12.7136 0.0636426 12.8007 0.0278437C12.8765 -0.00795533 12.9408 -0.00397766 12.9408 0.035799C12.9408 0.0438815 12.934 0.052621 12.9222 0.0606825C12.9217 0.0627961 12.9191 0.0651203 12.9143 0.0676193C12.912 0.0683088 12.9095 0.0689382 12.9069 0.0695082C12.8905 0.0774537 12.8694 0.0840152 12.8462 0.0875086Z" fill="#290A04"/>
<path d="M13.1188 0.111375C13.0204 0.123308 12.9863 0.0835309 13.0431 0.0278437C13.0545 0.011933 13.1075 0 13.1605 0C13.2817 0 13.2476 0.0954639 13.1188 0.111375Z" fill="#290A04"/>
<path fill-rule="evenodd" clip-rule="evenodd" d="M13.3246 0.0533303C13.3213 0.046467 13.3196 0.0391442 13.3196 0.0318213C13.3196 0.00397766 13.7702 0.00795533 13.8384 0.035799C13.8422 0.0397766 13.8498 0.0795533 13.8573 0.127285C13.8725 0.246615 14.0013 0.274459 14.0013 0.163084C14.0013 0.135549 14.005 0.116588 14.0164 0.103784C14.0067 0.100612 14.0013 0.0977181 14.0013 0.095463C14.0013 0.0838396 14.0468 0.079148 14.1012 0.0799412C14.109 0.0796746 14.1173 0.0795533 14.1262 0.0795533C14.1526 0.0795533 14.1802 0.082538 14.2054 0.0875824C14.2446 0.0930404 14.2755 0.101188 14.2815 0.111374C14.2821 0.112521 14.2823 0.113627 14.2822 0.114688C14.2865 0.117481 14.2901 0.120364 14.2929 0.123308C14.3232 0.155129 14.3573 0.155129 14.4065 0.127285C14.4785 0.0835309 14.7284 0.0914863 14.8344 0.135241C14.8647 0.147174 14.9935 0.167062 15.1185 0.182973C15.5767 0.230705 15.8797 0.270481 16.0274 0.310258C16.1107 0.334124 16.213 0.361967 16.2547 0.369923C16.4857 0.433565 16.872 0.525052 16.9364 0.529029C16.9894 0.533007 17.0121 0.513119 17.0121 0.457431C17.0121 0.389811 17.0348 0.381856 17.1446 0.389811C17.2166 0.397766 17.2923 0.421632 17.3151 0.441521C17.334 0.461409 17.387 0.47732 17.4363 0.47732C17.4855 0.47732 17.5537 0.49323 17.5915 0.513119C17.6256 0.533007 17.7165 0.576761 17.7885 0.608583C17.8391 0.633792 17.9048 0.668863 17.9578 0.697129C17.98 0.709003 18 0.719676 18.0157 0.727912C18.0687 0.759734 18.1786 0.819399 18.2619 0.863153C18.3172 0.892213 18.3943 0.93531 18.4631 0.973798C18.4979 0.993259 18.5306 1.01154 18.5573 1.02624C18.5951 1.0501 18.6463 1.08093 18.6974 1.11176C18.7485 1.14258 18.7997 1.17341 18.8375 1.19728C18.9133 1.24103 19.0723 1.34843 19.1935 1.43594C19.3147 1.51947 19.4283 1.59107 19.4435 1.59107C19.4624 1.59107 19.5344 1.6388 19.6063 1.70244C19.6783 1.7621 19.7919 1.83768 19.8525 1.8695C19.9169 1.90132 20.0722 2.0127 20.2009 2.11612C20.3297 2.22351 20.4547 2.30704 20.4698 2.30704C20.4888 2.30704 20.5304 2.33489 20.5569 2.37069C20.5872 2.40649 20.769 2.56162 20.9659 2.71674C21.3485 3.01507 21.8787 3.55205 21.8787 3.63956C21.8787 3.67138 21.909 3.7032 21.9468 3.71514C22.015 3.739 22.4164 4.16064 22.5225 4.31974C22.5528 4.3635 22.6513 4.49078 22.7384 4.59818C22.9921 4.90844 23.2269 5.22665 23.2496 5.29029C23.261 5.32211 23.3595 5.47327 23.4655 5.62442C23.6624 5.90683 23.742 6.06196 23.9124 6.52337C23.9321 6.57663 23.9518 6.63099 23.9698 6.68051C24.0001 6.76414 24.0255 6.83399 24.0374 6.86147C24.0498 6.89726 24.085 6.98097 24.1202 7.06468C24.128 7.0833 24.1358 7.10192 24.1434 7.12002C24.1851 7.21946 24.2419 7.37061 24.2684 7.45812C24.3403 7.71667 24.3858 7.79622 24.4615 7.79622C24.4994 7.79622 24.5297 7.77633 24.5297 7.75644C24.5297 7.74836 24.5319 7.74119 24.5355 7.73525C24.5369 7.72561 24.5392 7.72281 24.5429 7.72638C24.5498 7.72018 24.5587 7.71667 24.5676 7.71667C24.6024 7.71667 24.6127 7.82455 24.6007 7.91448C24.6013 7.92195 24.6017 7.929 24.6017 7.93544C24.6045 7.98646 24.6009 7.99898 24.586 7.98155C24.5799 7.99931 24.5725 8.01377 24.5638 8.02295C24.5297 8.05875 24.5449 8.09455 24.6206 8.16217C24.631 8.17162 24.6411 8.1825 24.6508 8.19461C24.659 8.18658 24.6734 8.20812 24.6893 8.25234C24.7491 8.3584 24.7869 8.51051 24.7839 8.63883C24.7925 8.68886 24.7904 8.70585 24.779 8.70012C24.7781 8.70653 24.7771 8.71284 24.7759 8.71904C24.7607 8.78268 24.7683 8.83041 24.791 8.83041C24.7919 8.83041 24.7928 8.83045 24.7937 8.83053C24.7941 8.83045 24.7944 8.83041 24.7948 8.83041C24.7958 8.83041 24.7967 8.83067 24.7977 8.83118C24.8434 8.84184 24.8763 8.96441 24.916 9.26796C24.9555 9.56535 24.9747 9.74516 24.9757 9.84379C24.9834 9.91654 24.9825 9.93727 24.9733 9.94277C24.9682 9.94585 24.9605 9.94417 24.9502 9.94416C24.8934 9.94416 24.8971 10.0436 24.9577 10.0953C24.9608 10.098 24.9637 10.1041 24.9664 10.1132C24.9679 10.1175 24.9692 10.1229 24.9705 10.1295C25.023 10.3774 25.0019 11.8322 24.9349 11.9211C24.9341 11.9223 24.9333 11.9236 24.9325 11.925C24.932 11.929 24.9316 11.933 24.9312 11.937C24.927 11.9737 24.9229 12.0097 24.9189 12.0449C24.9192 12.0461 24.9195 12.0472 24.9198 12.0483C24.9274 12.0921 24.916 12.2592 24.8895 12.4183C24.863 12.5774 24.8478 12.7206 24.8554 12.7365C24.8668 12.7524 24.8516 12.8399 24.8289 12.9354C24.8062 13.0308 24.791 13.1541 24.791 13.2138C24.7948 13.2735 24.7683 13.4047 24.7342 13.5121C24.7001 13.6155 24.6661 13.8264 24.6623 13.9815C24.6585 14.1326 24.6244 14.3474 24.5865 14.4588C24.5524 14.5662 24.5183 14.7094 24.5108 14.777C24.507 14.8407 24.4767 14.9839 24.4502 15.0873C24.4047 15.2583 24.4047 15.2941 24.4653 15.4015C24.5524 15.5606 24.5486 15.6362 24.4199 16.03C24.3631 16.2169 24.2911 16.4556 24.2646 16.567C24.1737 16.925 23.795 17.7563 23.6284 17.9512C23.5943 17.991 23.564 18.0506 23.5602 18.0825C23.545 18.1978 23.4352 18.3967 23.3405 18.4922C23.2875 18.5478 23.2421 18.6075 23.2421 18.6314C23.2383 18.6552 23.189 18.7388 23.1284 18.8144C23.0641 18.8899 23.0148 18.9894 23.0148 19.0411C23.0148 19.0928 22.9391 19.2081 22.8293 19.3235C22.8033 19.3521 22.7805 19.3766 22.7601 19.3975C22.7476 19.4133 22.7375 19.4249 22.7308 19.4309C22.7272 19.4341 22.7224 19.437 22.7165 19.4396C22.646 19.503 22.6048 19.5124 22.5414 19.4985C22.4392 19.4786 22.4354 19.4826 22.4619 19.6258C22.4635 19.6341 22.4649 19.6421 22.4661 19.6499C22.4759 19.6599 22.4846 19.6871 22.4846 19.7213C22.4846 19.734 22.4772 19.7544 22.4648 19.7793C22.4544 19.8276 22.4316 19.8783 22.3937 19.948C22.3331 20.0554 22.265 20.127 22.2119 20.1349C22.1551 20.1429 22.0983 20.2105 22.0339 20.3418C21.9771 20.4531 21.7878 20.6878 21.5643 20.9185C21.0417 21.4476 20.9962 21.4953 20.9243 21.6067C20.8902 21.6624 20.7993 21.7379 20.7236 21.7737C20.6516 21.8095 20.5645 21.8851 20.5304 21.9328C20.4849 22.0075 20.4288 22.0485 20.3139 22.0811C20.2814 22.1036 20.2581 22.1158 20.2464 22.1158C20.2413 22.1158 20.245 22.1087 20.2562 22.0958C20.2323 22.1012 20.2064 22.1065 20.1782 22.1118C20.0684 22.1317 20.0419 22.1596 19.9964 22.2948C19.9472 22.4499 19.6745 22.7522 19.5836 22.7522C19.5571 22.7522 19.4965 22.8 19.4473 22.8636C19.2768 23.0704 18.9852 23.2693 18.6898 23.3728C18.652 23.3887 18.6217 23.4245 18.6217 23.4523C18.6217 23.5279 18.2808 23.7825 18.1823 23.7864C18.1369 23.7864 18.0574 23.8222 18.0043 23.866C17.9513 23.9097 17.8983 23.9455 17.8832 23.9455C17.868 23.9455 17.7544 24.0251 17.6294 24.1245C17.5044 24.224 17.3719 24.3035 17.334 24.3035C17.2961 24.3035 17.2393 24.3274 17.209 24.3592C17.1787 24.391 17.0727 24.4547 16.9704 24.5024C16.8682 24.5462 16.6864 24.6376 16.569 24.7013C16.4516 24.7689 16.3304 24.8087 16.2963 24.7968C16.266 24.7848 16.1941 24.8127 16.1372 24.8564C16.0161 24.9559 15.9782 24.9598 15.8873 24.8723C15.8229 24.8127 15.8191 24.8127 15.8191 24.8763C15.8191 24.8856 15.8171 24.8954 15.8135 24.9051C15.8176 24.9083 15.8129 24.9199 15.8002 24.94C15.7888 24.9598 15.7547 24.9797 15.732 24.9797C15.7313 24.9797 15.7305 24.9797 15.7298 24.9797C15.6903 25.0002 15.6355 25.035 15.5957 25.0672C15.5464 25.107 15.4745 25.1388 15.4366 25.1388C15.395 25.1388 15.3647 25.1547 15.3647 25.1786C15.3647 25.1985 15.3457 25.2184 15.3268 25.2184C15.2889 25.2184 14.9973 25.3457 14.8647 25.4213C14.8269 25.4411 14.7436 25.4571 14.6754 25.4571C14.6072 25.4571 14.4936 25.4928 14.4216 25.5406C14.3345 25.5963 14.2133 25.6281 14.0467 25.636C14.0117 25.6369 13.9788 25.6391 13.9483 25.6423C13.9366 25.6443 13.9274 25.6454 13.921 25.6456C13.8304 25.6578 13.7644 25.6808 13.7324 25.7116C13.6907 25.7474 13.6377 25.7753 13.6112 25.7753C13.5809 25.7753 13.5468 25.7872 13.5316 25.8031C13.5165 25.823 13.4218 25.8349 13.3271 25.8389C13.2287 25.8429 13.0469 25.8628 12.9219 25.8866C12.7969 25.9105 12.5167 25.9344 12.297 25.9383C12.0774 25.9423 11.8804 25.9622 11.8539 25.9821C11.8274 26.006 11.7857 26.006 11.7441 25.9821C11.7062 25.9582 11.6229 25.9582 11.532 25.9821C11.4335 26.002 11.3616 26.002 11.3313 25.9741C11.3086 25.9543 11.2214 25.9383 11.1381 25.9383C10.8314 25.9463 10.18 25.9105 10.1535 25.8827C10.1444 25.8732 10.1221 25.8651 10.0942 25.8602C10.0793 25.8586 10.0649 25.8569 10.051 25.8553C10.0448 25.855 10.0385 25.8548 10.0323 25.8548C9.987 25.8548 9.90307 25.8403 9.82764 25.8187C9.79154 25.8108 9.77179 25.8045 9.76712 25.8002C9.66892 25.7714 9.61957 25.7735 9.57022 25.8031C9.49448 25.8548 9.07031 25.7355 8.96048 25.6321C8.91504 25.5883 8.85823 25.5764 8.78249 25.5963C8.71432 25.6082 8.65751 25.6042 8.64236 25.5804C8.631 25.5565 8.57798 25.5366 8.52874 25.5366C8.47951 25.5366 8.42649 25.5167 8.41513 25.4968C8.40376 25.473 8.34696 25.4571 8.29015 25.4571C8.23334 25.4571 8.13866 25.4252 8.07428 25.3855C8.01368 25.3457 7.88492 25.29 7.79024 25.2582C7.62214 25.2038 7.51475 25.1466 7.36679 25.0296C7.29988 24.9944 7.26003 24.9681 7.26003 24.9559C7.26003 24.9511 7.26059 24.9473 7.26299 24.9451C7.21083 24.906 7.14578 24.8702 7.09033 24.8497C7.08438 24.8502 7.07099 24.8459 7.05087 24.8374C7.04175 24.8351 7.03315 24.8335 7.02522 24.8326C6.96084 24.8246 6.86237 24.7888 6.80935 24.753C6.75254 24.7172 6.60105 24.6257 6.4685 24.5541C6.33595 24.4825 6.19961 24.399 6.16552 24.3672C6.13144 24.3354 6.04054 24.2836 5.9648 24.2518C5.88906 24.216 5.80195 24.1524 5.77544 24.1086C5.74893 24.0609 5.70727 24.0251 5.68076 24.0251C5.65804 24.0251 5.58987 23.9734 5.52927 23.9058C5.47246 23.8381 5.40051 23.7864 5.37778 23.7864C5.35127 23.7864 5.29068 23.7188 5.23766 23.6393C5.18085 23.5398 5.07859 23.4523 4.9574 23.3887C4.83242 23.325 4.74911 23.2494 4.71881 23.1818C4.71232 23.1637 4.70461 23.1468 4.69636 23.132C4.67711 23.1125 4.65741 23.092 4.63721 23.0705C4.63663 23.0705 4.63605 23.0705 4.63549 23.0705C4.58247 23.0705 4.23405 22.7005 4.23026 22.6409C4.23026 22.617 4.21511 22.5931 4.19239 22.5931C4.17345 22.5931 4.15451 22.5693 4.15451 22.5374C4.15451 22.5096 4.07498 22.4062 3.9803 22.3107C3.62809 21.9647 3.54856 21.8692 3.54856 21.8056C3.54856 21.7698 3.46903 21.6862 3.37435 21.6226C3.25694 21.547 3.1812 21.4555 3.14333 21.364C3.01456 21.022 2.98427 20.9742 2.82142 20.8867C2.76461 20.8549 2.69265 20.7674 2.66235 20.6878C2.63205 20.6083 2.56389 20.5168 2.51086 20.4889C2.45784 20.4571 2.4124 20.4134 2.4124 20.3895C2.40861 20.3656 2.35938 20.2821 2.29878 20.2065C2.2344 20.131 2.18516 20.0554 2.18516 20.0355C2.18516 20.0196 2.15487 19.9679 2.11699 19.9281C2.01474 19.8127 1.88219 19.5343 1.88219 19.4388C1.88219 19.3314 1.79887 19.0928 1.761 19.0928C1.74585 19.0928 1.67768 18.9735 1.60951 18.8223C1.54134 18.6751 1.45423 18.52 1.42015 18.4802C1.38228 18.4365 1.35198 18.3768 1.35198 18.349C1.35198 18.3211 1.33683 18.2973 1.31789 18.2973C1.30274 18.2973 1.26487 18.1859 1.23836 18.0467C1.20806 17.9114 1.15504 17.7444 1.11717 17.6807C1.0793 17.6131 1.01492 17.4858 0.977043 17.3983C0.935384 17.3068 0.88615 17.2193 0.863427 17.2074C0.840704 17.1915 0.821768 17.1278 0.821768 17.0602C0.821768 16.9488 0.776321 16.8335 0.681641 16.7062C0.658918 16.6744 0.632407 16.555 0.621046 16.4476C0.598322 16.1533 0.518791 15.7834 0.461983 15.6919C0.420323 15.6203 0.374877 15.3379 0.348366 14.9958C0.344579 14.9401 0.314281 14.8287 0.280197 14.7452C0.230963 14.6298 0.227176 14.5702 0.257473 14.5105C0.283984 14.4548 0.283984 14.419 0.253686 14.3793C0.230963 14.3474 0.219601 14.2878 0.23475 14.244C0.246112 14.2003 0.23475 14.0491 0.204452 13.9139C0.174155 13.7746 0.147644 13.6195 0.151431 13.5638C0.151431 13.5081 0.128708 13.365 0.102198 13.2456C0.0756871 13.1263 0.0491767 12.8996 0.0416022 12.7484C0.0340278 12.5933 0.018879 12.4222 0.00373013 12.3626C-0.0076315 12.2989 0.00751734 12.1836 0.0416022 12.0841C0.0946232 11.933 0.117346 11.7421 0.151431 11.217C0.162793 11.0659 0.204452 10.9465 0.272622 10.871C0.299133 10.8471 0.32943 10.7118 0.340792 10.5687C0.355941 10.3857 0.3976 10.2544 0.480919 10.1072C0.552876 9.972 0.594535 9.8487 0.594535 9.74528C0.594535 9.66175 0.613471 9.57821 0.632407 9.56628C0.65513 9.55435 0.670279 9.51059 0.670279 9.46684C0.670279 9.42706 0.693003 9.38729 0.7233 9.37535C0.787683 9.34751 0.897512 9.12476 0.897512 9.01736C0.897512 8.93383 1.15883 8.35309 1.1967 8.35309C1.20288 8.35309 1.21029 8.34657 1.21846 8.33486C1.22914 8.3136 1.23908 8.29442 1.2481 8.27773C1.27942 8.20422 1.31294 8.08842 1.32925 7.98317C1.35198 7.85589 1.54891 7.4621 1.62087 7.39845C1.63223 7.38652 1.66632 7.30697 1.69283 7.21946C1.72312 7.13195 1.79129 6.99273 1.85189 6.91318C1.9087 6.83363 1.95793 6.7501 1.95793 6.73021C1.95793 6.71032 1.9958 6.66259 2.03746 6.61883C2.08291 6.57906 2.15487 6.48757 2.20031 6.41995C2.24197 6.35233 2.3518 6.19322 2.44269 6.06992C2.53359 5.94661 2.62448 5.79148 2.6472 5.72386C2.66993 5.65624 2.7381 5.57668 2.80627 5.54089C2.84639 5.51925 2.88279 5.495 2.91617 5.4672C2.92305 5.46094 2.92978 5.45509 2.93626 5.44972C3.00989 5.38273 3.0685 5.29619 3.1206 5.17892C3.15469 5.10334 3.22286 4.99595 3.27209 4.93628C3.52205 4.64989 3.72656 4.45498 3.77579 4.45498C3.79563 4.45498 3.84308 4.42258 3.89686 4.37564C3.89682 4.37571 3.8969 4.37557 3.89686 4.37564C3.91148 4.35107 3.95258 4.31142 4.01283 4.26171C4.16894 4.10141 4.37397 3.94817 4.55217 3.85833C4.61655 3.82651 4.69987 3.7748 4.74153 3.739C4.87408 3.62365 5.33234 3.34124 5.38157 3.34124C5.40808 3.34124 5.50276 3.30544 5.59365 3.25771C5.66975 3.21934 5.75319 3.19383 5.81447 3.19148C5.83852 3.1856 5.84971 3.187 5.85478 3.19403C5.95325 3.21789 6.3208 3.0628 6.37003 2.98325C6.38139 2.95938 6.43442 2.94347 6.48744 2.94347C6.52567 2.94347 6.55079 2.95613 6.56366 2.97416C6.58632 2.97277 6.59022 2.9818 6.57368 3.00106C6.57738 3.03996 6.54184 3.08577 6.47229 3.09462C6.37761 3.11053 6.36246 3.19009 6.44578 3.26168C6.47607 3.28953 6.50258 3.33328 6.50258 3.36113C6.50258 3.44863 6.61999 3.46455 6.74497 3.39692C6.99871 3.25771 7.19564 3.25771 7.42666 3.38499C7.4759 3.41284 7.50998 3.41284 7.53649 3.38499C7.55922 3.36113 7.65768 3.34124 7.75615 3.34124C7.86977 3.34124 7.94172 3.32135 7.95309 3.28953C7.97202 3.23384 8.18789 3.2418 8.26364 3.30146C8.28636 3.31737 8.43406 3.33328 8.6007 3.33328C8.88095 3.33726 8.90746 3.34124 9.01729 3.45659C9.08546 3.52421 9.17257 3.5799 9.21423 3.5799C9.25589 3.5799 9.30512 3.59581 9.32784 3.6157C9.34678 3.63558 9.40359 3.65945 9.45661 3.66741C9.52478 3.67536 9.58916 3.74696 9.69142 3.918C9.76716 4.04926 9.82397 4.18052 9.81261 4.20837C9.80503 4.23621 9.83912 4.30383 9.89214 4.35156C9.97546 4.4351 9.98682 4.47487 9.97924 4.66978C9.97546 4.79706 9.98682 4.90844 10.0095 4.92435C10.0285 4.94026 10.0663 4.99992 10.0929 5.06357C10.1307 5.15903 10.1269 5.19085 10.0512 5.31018C9.99439 5.40167 9.92622 5.45735 9.83533 5.47724C9.72929 5.50509 9.70278 5.53293 9.70278 5.60851C9.70278 5.67613 9.72929 5.71193 9.79746 5.72784C9.84436 5.74015 9.86948 5.75704 9.88271 5.79455C9.88458 5.79728 9.88646 5.80023 9.88835 5.80341C9.89776 5.81893 9.89906 5.84397 9.89496 5.86982C9.89536 5.87652 9.89568 5.88354 9.89593 5.89092C9.89668 5.90525 9.89744 5.92022 9.8982 5.93519C9.90123 5.995 9.90426 6.0548 9.90729 6.07389C9.90729 6.10174 9.96031 6.1256 10.0209 6.1256C10.1143 6.1256 10.2076 6.18461 10.2352 6.24627C10.2538 6.24969 10.2559 6.2594 10.2427 6.27171C10.244 6.28156 10.2434 6.29127 10.2406 6.30062C10.233 6.32449 10.1838 6.34437 10.1345 6.34437C10.0777 6.34437 10.0285 6.37619 10.0058 6.43586C9.98682 6.48359 9.94895 6.51541 9.92244 6.50746C9.89971 6.49553 9.85805 6.51541 9.83533 6.54724C9.80882 6.57906 9.77095 6.60292 9.74823 6.60292C9.70656 6.60292 9.54371 6.74612 9.06274 7.2115C8.87717 7.3905 8.71053 7.54563 8.69159 7.55358C8.54389 7.60927 7.40015 8.87019 7.2676 9.12078C7.21837 9.21227 7.13884 9.3316 7.09339 9.38729C7.04794 9.44297 6.96084 9.56628 6.90403 9.66572C6.84343 9.76517 6.72982 9.9362 6.65029 10.0476C6.63261 10.0712 6.61578 10.0947 6.60024 10.1172C6.56857 10.1696 6.53744 10.2218 6.50694 10.2737C6.50409 10.281 6.50258 10.2866 6.50258 10.2902C6.50258 10.3079 6.47577 10.3505 6.44064 10.3877C6.39343 10.4698 6.34803 10.5507 6.30479 10.6299C6.2756 10.7126 6.21169 10.8571 6.15795 10.9624C6.09735 11.0738 6.04812 11.1892 6.04812 11.225C6.04812 11.2568 6.01403 11.3165 5.97616 11.3523C5.88527 11.4398 5.85876 11.6426 5.83604 12.4103C5.82846 12.7484 5.80574 13.0825 5.7868 13.1502C5.76787 13.2218 5.76787 13.3013 5.7868 13.3371C5.80574 13.3729 5.83604 13.6036 5.85497 13.8502C5.8777 14.1764 5.90799 14.3514 5.96859 14.4787C6.01025 14.5742 6.04812 14.6776 6.04812 14.7094C6.04812 14.7412 6.0822 14.8088 6.12386 14.8645C6.21476 14.9839 6.21854 15.0356 6.14659 15.0356C6.06327 15.0356 6.03297 15.1111 6.07463 15.2066C6.0789 15.2164 6.08322 15.2266 6.08758 15.2372C6.09637 15.2527 6.10425 15.2733 6.11005 15.2938C6.14219 15.3778 6.17351 15.4719 6.19353 15.5432C6.23513 15.6231 6.24764 15.6827 6.2229 15.6671C6.25819 15.7703 6.38955 15.9902 6.42684 15.9902C6.44199 15.9902 6.53667 16.1215 6.63135 16.2766C6.72603 16.4357 6.83586 16.6067 6.87752 16.6545C6.92297 16.7022 6.95705 16.7579 6.95705 16.7738C6.95705 16.7897 7.02901 16.8892 7.1199 16.9926C7.20701 17.092 7.35849 17.2909 7.45317 17.4301C7.69556 17.7762 8.2447 18.3808 8.51359 18.5956C8.63857 18.695 8.74461 18.7746 8.75597 18.7746C8.76355 18.7746 8.86202 18.8303 8.97185 18.8979C9.08168 18.9695 9.26346 19.057 9.37708 19.0968C9.49069 19.1405 9.61567 19.2002 9.64976 19.236C9.6952 19.2797 9.75201 19.2917 9.81261 19.2758C9.86563 19.2638 9.91865 19.2678 9.93001 19.2917C9.94137 19.3116 10.0361 19.3314 10.1421 19.3314C10.2936 19.3314 10.3277 19.3434 10.3277 19.3991C10.3277 19.4388 10.3466 19.4985 10.3655 19.5303C10.3996 19.582 10.4148 19.5781 10.4716 19.4985C10.5322 19.415 10.5587 19.411 10.8692 19.4229C11.051 19.4349 11.2139 19.4508 11.2252 19.4667C11.2631 19.5065 11.5699 19.4945 11.5964 19.4508C11.6077 19.4309 11.6494 19.411 11.6835 19.411C11.7176 19.411 11.816 19.3792 11.8994 19.3354C12.0774 19.2479 12.3538 19.1445 12.6151 19.0689C12.7212 19.0371 12.8197 18.9973 12.8424 18.9735C12.8613 18.9536 12.9068 18.9337 12.9408 18.9337C12.9749 18.9337 13.081 18.882 13.1794 18.8144C13.3877 18.6791 13.3953 18.6751 13.3953 18.7507C13.3953 18.7526 13.3951 18.7545 13.3948 18.7565C13.3951 18.7598 13.3953 18.7632 13.3953 18.7666C13.3953 18.7706 13.3917 18.7758 13.3848 18.7823C13.3671 18.8139 13.3284 18.8531 13.2817 18.882C13.2173 18.9178 13.1681 18.9814 13.1681 19.0212C13.1681 19.0452 13.1626 19.0634 13.1542 19.0752C13.1528 19.0854 13.1455 19.0928 13.134 19.0928C13.1214 19.0928 13.11 19.0867 13.1023 19.0779C13.0955 19.0704 13.0893 19.0595 13.0848 19.0451C13.0658 18.9894 12.8575 19.0649 12.7477 19.1604C12.7098 19.1922 12.5962 19.24 12.4902 19.2718C12.3841 19.2996 12.2364 19.3633 12.1607 19.407C12.0887 19.4548 11.9978 19.4906 11.96 19.4906C11.9259 19.4906 11.8766 19.5104 11.8539 19.5343C11.8312 19.5582 11.7592 19.59 11.6911 19.6059C11.5585 19.6338 11.5282 19.7014 11.638 19.7252C11.6759 19.7332 11.7554 19.773 11.8123 19.8127C11.9145 19.8923 12.1645 19.9162 12.2023 19.8525C12.2137 19.8287 12.3311 19.8167 12.4599 19.8207C12.6379 19.8247 12.7439 19.8048 12.8689 19.7411C13.0545 19.6497 13.3612 19.5303 13.5089 19.4985C13.5619 19.4906 13.6491 19.4468 13.7059 19.407C13.7589 19.3633 13.8346 19.3314 13.8763 19.3314C13.9142 19.3314 14.0051 19.2797 14.077 19.2201C14.149 19.1604 14.3005 19.0689 14.4103 19.0212C14.5239 18.9735 14.6792 18.878 14.7625 18.8104C14.842 18.7428 14.9102 18.703 14.9102 18.7189C14.9102 18.7246 14.916 18.7247 14.9263 18.7199C14.9442 18.7076 14.9621 18.6952 14.9801 18.6827C14.9913 18.6736 15.0034 18.6631 15.0162 18.6513C15.073 18.5956 15.1601 18.528 15.217 18.5001C15.27 18.4723 15.3647 18.4007 15.4328 18.3331C15.4972 18.2694 15.5654 18.2177 15.5805 18.2177C15.5957 18.2177 15.7396 18.0904 15.8949 17.9393C16.0501 17.7881 16.1903 17.6608 16.2054 17.6608C16.2547 17.6608 16.4251 17.4898 16.4251 17.446C16.4251 17.4222 16.516 17.2989 16.6258 17.1756C16.9061 16.8494 17.0803 16.6227 17.1409 16.4954C17.1712 16.4357 17.2204 16.388 17.2469 16.388C17.2734 16.388 17.3113 16.3562 17.3226 16.3164C17.3378 16.2806 17.3719 16.2249 17.3984 16.197C17.4249 16.1692 17.4476 16.1095 17.4476 16.0658C17.4476 16.026 17.5234 15.9067 17.618 15.7993C17.7127 15.6959 17.7885 15.5726 17.7885 15.5248C17.7885 15.4771 17.8074 15.4254 17.8263 15.4134C17.8491 15.4015 17.8642 15.3339 17.8642 15.2663C17.8642 15.1947 17.8983 15.0674 17.9362 14.9799C17.9684 14.902 18.0061 14.804 18.0237 14.7373C18.0258 14.7263 18.0288 14.7132 18.0324 14.6984C18.0917 14.426 18.1071 14.3705 18.1672 14.2798C18.2089 14.2162 18.224 14.1525 18.2051 14.1008C18.1861 14.0491 18.2051 13.9656 18.2467 13.8741C18.2884 13.7906 18.3187 13.6991 18.3187 13.6673C18.3187 13.6354 18.3376 13.6036 18.3603 13.5957C18.3869 13.5877 18.402 13.4962 18.3982 13.365C18.3982 13.2496 18.4096 13.1342 18.4285 13.1104C18.4474 13.0865 18.4702 12.9871 18.4853 12.8876C18.5383 12.4382 18.5573 12.3467 18.6065 12.287C18.6078 12.2854 18.6091 12.2837 18.6103 12.2819C18.6138 12.2723 18.6179 12.2648 18.6223 12.2599C18.66 12.1758 18.6892 11.9602 18.7126 11.575C18.7163 11.5193 18.7315 11.4557 18.7466 11.4278C18.7921 11.3523 18.7807 10.2107 18.7315 10.0118C18.7088 9.90836 18.6974 9.75721 18.705 9.6697C18.7126 9.57424 18.7012 9.50264 18.6747 9.49071C18.652 9.48275 18.5951 9.37138 18.5497 9.24011C18.5244 9.17471 18.4941 9.09249 18.465 9.01345C18.4374 8.93866 18.4109 8.86671 18.3906 8.8145C18.3528 8.70711 18.3187 8.55993 18.3187 8.48834C18.3187 8.39685 18.2997 8.35309 18.2619 8.35309C18.2316 8.35309 18.1937 8.30536 18.1823 8.24172C18.1672 8.18205 18.1066 8.07068 18.046 7.9951C17.9892 7.91953 17.94 7.82804 17.94 7.79622C17.94 7.76042 17.8907 7.68087 17.8263 7.61723C17.7355 7.52574 17.7127 7.47005 17.7127 7.33083C17.7127 7.16775 17.7052 7.15979 17.6218 7.18366C17.5499 7.19957 17.4969 7.16377 17.3189 6.95296C17.2015 6.81374 17.1068 6.68248 17.1068 6.65463C17.1068 6.63077 17.0689 6.59497 17.0235 6.57906C16.8833 6.5353 16.8038 6.43984 16.8038 6.31255C16.8038 6.20913 16.7924 6.1972 16.7091 6.22107C16.6447 6.23698 16.5917 6.22504 16.5463 6.17731C16.5046 6.13754 16.3607 6.01821 16.2206 5.91479C16.0842 5.80739 15.9706 5.70397 15.9706 5.67613C15.9706 5.5926 15.8002 5.25052 15.7585 5.25052C15.7358 5.25052 15.6866 5.28631 15.6487 5.33007C15.6257 5.35696 15.6022 5.37693 15.5795 5.39019C15.573 5.40228 15.5643 5.40962 15.554 5.40962C15.5504 5.40962 15.5468 5.40834 15.5434 5.40596C15.4853 5.42232 15.4404 5.38901 15.4404 5.31018C15.4404 5.19881 15.3381 5.13119 15.2889 5.21074C15.2881 5.21208 15.2872 5.21337 15.2863 5.2146C15.294 5.23597 15.2873 5.25051 15.2624 5.25051C15.2503 5.25051 15.2294 5.2376 15.2065 5.2187C15.1934 5.2118 15.1781 5.20255 15.1601 5.19085C15.1071 5.15107 15.0617 5.09936 15.0617 5.07152C15.0617 5.02379 14.7095 4.7732 14.6413 4.7732C14.6224 4.7732 14.6072 4.82491 14.6072 4.89253C14.6072 4.902 14.6069 4.91129 14.6062 4.92026C14.6109 4.9533 14.6096 4.96681 14.5999 4.96441C14.5933 4.99288 14.5826 5.01186 14.5693 5.01186C14.5504 5.01186 14.5315 4.99595 14.5315 4.98004C14.5315 4.96412 14.4747 4.9323 14.4103 4.91242C14.3568 4.89498 14.3258 4.88133 14.3093 4.86042C14.2842 4.84561 14.2664 4.82131 14.2664 4.80502C14.2664 4.78579 14.2784 4.77811 14.2945 4.77912C14.2951 4.77229 14.2958 4.76503 14.2967 4.75729C14.3042 4.69364 14.2853 4.62602 14.2588 4.61011C14.2323 4.5942 14.2247 4.56636 14.2399 4.55045C14.2664 4.5226 14.5466 4.59818 14.6262 4.65387C14.6489 4.66978 14.7284 4.69364 14.8042 4.70558C14.8799 4.71751 15.0011 4.75331 15.0693 4.78911C15.1374 4.82093 15.2662 4.86866 15.3571 4.88855C15.448 4.90844 15.5502 4.95219 15.5881 4.98799C15.626 5.02379 15.6714 5.05163 15.6904 5.05163C15.7093 5.05561 15.7926 5.08743 15.8759 5.13119C15.9593 5.17494 16.0615 5.20676 16.107 5.21074C16.1486 5.21074 16.2244 5.25449 16.2736 5.31018C16.3228 5.36587 16.3948 5.40962 16.4327 5.40962C16.4705 5.40962 16.5008 5.43747 16.5008 5.46929C16.5008 5.50111 16.5235 5.52895 16.5501 5.52895C16.5804 5.52895 16.5993 5.49315 16.5955 5.45338C16.5879 5.35394 16.3986 5.09141 16.3342 5.09141C16.3077 5.09141 16.2206 5.03572 16.141 4.97208C16.0615 4.90446 15.982 4.85275 15.9593 4.85275C15.9062 4.85275 15.8229 4.72546 15.8191 4.64989C15.8191 4.57829 15.7434 4.53454 15.6298 4.53454C15.5881 4.53454 15.5427 4.50272 15.5199 4.46692C15.4858 4.3993 15.1639 4.29588 14.9405 4.28394C14.8875 4.27997 14.8269 4.26406 14.8117 4.24417C14.7966 4.22826 14.7398 4.21632 14.6867 4.21632C14.5656 4.21235 14.4557 4.12882 14.4557 4.04131C14.4557 3.97369 14.3573 3.95778 14.2702 4.01346C14.2361 4.03733 14.1641 4.00949 14.0467 3.92595C13.9369 3.8464 13.8687 3.81856 13.8573 3.85038C13.8498 3.87424 13.7854 3.90607 13.7096 3.92198C13.6074 3.94186 13.5657 3.93391 13.5392 3.8822C13.5203 3.8464 13.4635 3.81856 13.4142 3.81856C13.365 3.81856 13.3196 3.79867 13.312 3.77083C13.3006 3.73503 13.259 3.74298 13.1605 3.79071C13.0763 3.83197 13.0356 3.85285 12.9958 3.85096C12.9551 3.84901 12.9153 3.82316 12.831 3.77083C12.7591 3.72309 12.6379 3.67934 12.5697 3.67536C12.4977 3.67536 12.4296 3.64752 12.4106 3.61967C12.3955 3.59183 12.3576 3.5799 12.3311 3.58785C12.3008 3.59979 12.2326 3.5799 12.1758 3.54808C12.0849 3.49239 12.066 3.49239 11.9789 3.55205C11.8463 3.64752 11.7517 3.63558 11.6949 3.52421C11.6153 3.37306 11.4714 3.36908 11.3502 3.5083L11.2442 3.62763L11.1571 3.50432C11.1116 3.4367 11.0397 3.38101 11.0056 3.38101C10.9677 3.38101 10.892 3.36113 10.8352 3.33328C10.7518 3.29351 10.7291 3.29351 10.6875 3.35317C10.6609 3.38897 10.5966 3.42079 10.5435 3.42079C10.4905 3.42079 10.4413 3.44466 10.4299 3.46852C10.4186 3.50432 10.3921 3.49239 10.3466 3.42875C10.2974 3.36113 10.2481 3.34124 10.1004 3.34124C9.99061 3.34124 9.91107 3.36113 9.89971 3.38897C9.88456 3.42477 9.86942 3.42477 9.84669 3.4009C9.80882 3.35317 9.53235 3.33328 9.53235 3.38101C9.53235 3.42079 9.17636 3.42079 9.11197 3.37704C9.01729 3.31737 9.13091 3.26168 9.35814 3.25373C9.47554 3.24975 9.58159 3.23384 9.59295 3.21395C9.61946 3.16622 9.83533 3.17418 9.83533 3.22191C9.83533 3.2418 9.85427 3.26168 9.8732 3.26168C9.89593 3.26168 9.91107 3.23384 9.91107 3.19804C9.91107 3.15429 9.93001 3.14235 9.97167 3.15827C10.055 3.19009 10.2178 3.07871 10.1913 3.00711C10.18 2.97529 10.1875 2.93949 10.2103 2.92358C10.2784 2.87983 10.2557 2.84403 10.0966 2.73265C9.9641 2.64117 9.90729 2.62526 9.67248 2.63321C9.52099 2.63719 9.38087 2.65708 9.35435 2.67697C9.29755 2.72072 9.22938 2.68095 9.22938 2.60139C9.22938 2.56957 9.20287 2.5457 9.17257 2.5457C9.13848 2.5457 9.16878 2.49002 9.25967 2.39058C9.37708 2.26329 9.43389 2.23147 9.58916 2.21556C9.73207 2.19888 9.84169 2.1836 9.92723 2.16796C9.91761 2.15914 9.93168 2.15192 9.9641 2.15192C9.97914 2.15048 9.99172 2.15112 10.0009 2.15308C10.0774 2.1359 10.1295 2.11767 10.1686 2.09623C10.233 2.06441 10.2746 2.06441 10.3277 2.09623C10.3996 2.14794 10.4413 2.12805 10.4413 2.04054C10.4413 2.0127 10.411 1.98883 10.3769 1.98883C10.339 1.98883 10.2784 1.96099 10.2406 1.93314C10.1951 1.89337 10.0626 1.88541 9.75959 1.89337C9.37329 1.90132 9.33921 1.89735 9.30133 1.82575C9.26725 1.75415 9.2521 1.75017 9.19908 1.7979C9.16121 1.82973 9.06274 1.85359 8.96427 1.84961C8.86202 1.84166 8.73325 1.8695 8.64615 1.91326C8.56283 1.95701 8.43406 1.98883 8.36211 1.98883C8.28636 1.98883 8.18411 2.02463 8.13109 2.06441C8.06291 2.12407 8.02126 2.13203 7.96824 2.10021C7.919 2.07236 7.86219 2.07634 7.78645 2.11214C7.72585 2.13601 7.66526 2.14794 7.6539 2.13601C7.61602 2.09623 7.90385 1.82973 7.98717 1.82973C8.02883 1.82973 8.09321 1.7979 8.1273 1.75813C8.25228 1.61095 8.67266 1.4956 8.97185 1.52742C9.21423 1.55129 9.24831 1.54333 9.33542 1.424C9.38087 1.36434 9.36572 1.34843 9.21423 1.27683C9.0741 1.21319 9.01729 1.20523 8.90746 1.23705C8.80521 1.26887 8.75597 1.2649 8.71432 1.2291C8.66887 1.18932 8.64236 1.19728 8.57419 1.26887C8.4833 1.35638 8.39619 1.38025 8.39619 1.31661C8.39619 1.29672 8.4227 1.27285 8.453 1.25694C8.4833 1.24501 8.52874 1.1933 8.54768 1.14557C8.5704 1.09386 8.60449 1.02226 8.631 0.986461C8.66887 0.930773 8.66508 0.906907 8.61206 0.843265C8.57798 0.803488 8.54768 0.759734 8.54768 0.747801C8.54768 0.68018 9.65354 0.517096 10.2898 0.489253C10.6117 0.47732 10.8957 0.453454 10.9147 0.437543C10.9374 0.421632 11.0737 0.413677 11.2177 0.417655C11.479 0.42561 11.7214 0.346057 11.7857 0.23866C11.8047 0.206839 11.8426 0.214794 11.9069 0.258548C11.9751 0.30628 12.013 0.314235 12.0508 0.278436C12.0887 0.246615 12.1039 0.246615 12.119 0.286392C12.1342 0.326168 12.1493 0.326168 12.1796 0.278436C12.244 0.182973 12.2288 0.159107 12.0887 0.159107C12.0168 0.159107 11.9562 0.139218 11.9562 0.11933C11.9562 0.113788 11.9592 0.108675 11.9648 0.104041L11.9372 0.103418L11.9693 0.100723C11.99 0.0872622 12.0327 0.0784034 12.0811 0.0755756C12.1275 0.0755756 12.2189 0.073517 12.3088 0.0708807C12.356 0.0663454 12.4002 0.0622907 12.4378 0.058845C12.4957 0.0535414 12.5378 0.0496806 12.5508 0.047731C12.5735 0.0437533 12.6076 0.0556863 12.6189 0.0795523C12.6219 0.0842356 12.6198 0.0884592 12.6127 0.0921935C12.6225 0.104752 12.6268 0.122526 12.6303 0.147174C12.6454 0.246615 12.7742 0.270481 12.903 0.198883C12.9522 0.17104 12.9825 0.17104 12.9977 0.198883C13.009 0.218772 13.0961 0.23866 13.1908 0.23866C13.3158 0.23866 13.365 0.218772 13.3839 0.17104C13.3991 0.135241 13.3877 0.0954639 13.365 0.0875086C13.3484 0.082512 13.3347 0.071239 13.3268 0.0576317C13.3251 0.0569226 13.3239 0.0562723 13.3234 0.0556863C13.3226 0.0548982 13.323 0.0541107 13.3246 0.0533303ZM12.4485 0.23866C12.4902 0.23866 12.5243 0.218772 12.5243 0.198883C12.5243 0.175017 12.4902 0.159107 12.4485 0.159107C12.4068 0.159107 12.3728 0.175017 12.3728 0.198883C12.3728 0.218772 12.4068 0.23866 12.4485 0.23866ZM17.4363 0.660292C17.4476 0.648359 17.4438 0.624493 17.4287 0.600627C17.3984 0.548918 17.2961 0.540962 17.2961 0.592672C17.2961 0.632449 17.4098 0.688136 17.4363 0.660292ZM16.8379 5.64195C16.8479 5.64626 16.8574 5.64585 16.8644 5.64033C16.8758 5.62442 16.8606 5.58464 16.8265 5.54884C16.7923 5.51074 16.7719 5.50305 16.769 5.51858C16.7747 5.53124 16.7789 5.54284 16.7811 5.55282C16.7928 5.5928 16.8158 5.62802 16.8379 5.64195ZM4.64685 10.4414C4.66957 10.4294 4.68472 10.4095 4.68472 10.3976C4.68472 10.3897 4.66957 10.3817 4.64685 10.3817C4.62792 10.3817 4.60898 10.4016 4.60898 10.4255C4.60898 10.4453 4.62792 10.4533 4.64685 10.4414Z" fill="#290A04"/>
<path d="M11.6835 0.17104C11.6229 0.190928 11.5017 0.159107 11.5017 0.123308C11.5017 0.107397 11.5547 0.0914863 11.6153 0.0914863C11.7289 0.0914863 11.7706 0.139218 11.6835 0.17104Z" fill="#290A04"/>
<path d="M11.8232 0.15248C11.8126 0.144989 11.8047 0.13216 11.8047 0.11933C11.8047 0.0954639 11.8236 0.0795533 11.8426 0.0795533C11.8477 0.0795533 11.8524 0.0803568 11.8566 0.0818736C11.8598 0.0803562 11.8627 0.0795523 11.8653 0.0795523C11.8729 0.0795523 11.8804 0.095463 11.8804 0.11933C11.8804 0.139218 11.8653 0.159107 11.8426 0.159107C11.842 0.159107 11.8414 0.159088 11.8408 0.159051C11.8401 0.159087 11.8395 0.159106 11.8388 0.159106C11.832 0.159106 11.8268 0.156601 11.8232 0.15248Z" fill="#290A04"/>
<path d="M8.20304 1.43196C8.18411 1.43196 8.16896 1.41207 8.16896 1.39218C8.16896 1.36832 8.19547 1.35241 8.22955 1.35241C8.25985 1.35241 8.275 1.36832 8.26364 1.39218C8.25228 1.41207 8.22577 1.43196 8.20304 1.43196Z" fill="#290A04"/>
<path d="M19.9472 1.75017C19.9282 1.75017 19.9093 1.73028 19.9093 1.7104C19.9093 1.68653 19.9282 1.67062 19.9472 1.67062C19.9699 1.67062 19.9851 1.68653 19.9851 1.7104C19.9851 1.73028 19.9699 1.75017 19.9472 1.75017Z" fill="#290A04"/>
<path d="M7.54407 2.22749C7.51377 2.22749 7.48726 2.2076 7.48726 2.18772C7.48726 2.16385 7.51377 2.14794 7.54407 2.14794C7.57437 2.14794 7.60088 2.16385 7.60088 2.18772C7.60088 2.2076 7.57437 2.22749 7.54407 2.22749Z" fill="#290A04"/>
<path d="M7.37364 2.30704C7.35471 2.30704 7.33577 2.28716 7.33577 2.26727C7.33577 2.2434 7.35471 2.22749 7.37364 2.22749C7.39637 2.22749 7.41152 2.2434 7.41152 2.26727C7.41152 2.28716 7.39637 2.30704 7.37364 2.30704Z" fill="#290A04"/>
<path d="M20.8599 2.3866C20.8372 2.3866 20.8182 2.36671 20.8182 2.34682C20.8182 2.32296 20.8258 2.30704 20.8334 2.30704C20.8448 2.30704 20.8637 2.32296 20.8751 2.34682C20.8864 2.36671 20.8788 2.3866 20.8599 2.3866Z" fill="#290A04"/>
<path d="M21.4431 2.94347C21.4128 2.94347 21.3863 2.92358 21.3863 2.90369C21.3863 2.87983 21.4128 2.86392 21.4431 2.86392C21.4734 2.86392 21.4999 2.87983 21.4999 2.90369C21.4999 2.92358 21.4734 2.94347 21.4431 2.94347Z" fill="#290A04"/>
<path d="M9.83533 3.02302C9.79367 3.02302 9.75959 3.00314 9.75959 2.98325C9.75959 2.95938 9.79367 2.94347 9.83533 2.94347C9.87699 2.94347 9.91107 2.95938 9.91107 2.98325C9.91107 3.00314 9.87699 3.02302 9.83533 3.02302Z" fill="#290A04"/>
<path d="M21.6136 3.14235C21.5946 3.14235 21.5605 3.10656 21.5378 3.0628C21.4924 2.97529 21.4999 2.97131 21.5908 3.00711C21.6552 3.03496 21.6742 3.14235 21.6136 3.14235Z" fill="#290A04"/>
<path d="M22.3748 3.89811C22.3331 3.89811 22.1059 3.65547 22.1059 3.61172C22.1059 3.55603 22.1438 3.57592 22.2763 3.71912C22.4127 3.85833 22.4354 3.89811 22.3748 3.89811Z" fill="#290A04"/>
<path d="M9.89593 4.05722C9.86184 4.05722 9.83533 4.03733 9.83533 4.01744C9.83533 3.99357 9.85048 3.97766 9.86942 3.97766C9.89214 3.97766 9.91865 3.99357 9.93001 4.01744C9.94137 4.03733 9.92622 4.05722 9.89593 4.05722Z" fill="#290A04"/>
<path d="M10.2141 4.05722C10.1535 4.05722 10.1004 4.03733 10.1004 4.01744C10.1004 3.99357 10.1535 3.97766 10.2141 3.97766C10.2784 3.97766 10.3277 3.99357 10.3277 4.01744C10.3277 4.03733 10.2784 4.05722 10.2141 4.05722Z" fill="#290A04"/>
<path d="M10.6117 4.05722C10.5814 4.05722 10.5549 4.03733 10.5549 4.01744C10.5549 3.99357 10.5814 3.97766 10.6117 3.97766C10.642 3.97766 10.6685 3.99357 10.6685 4.01744C10.6685 4.03733 10.642 4.05722 10.6117 4.05722Z" fill="#290A04"/>
<path d="M11.2404 4.16859C11.3048 4.21235 11.3313 4.20837 11.4146 4.13677C11.4676 4.09302 11.5244 4.05722 11.5434 4.05722C11.5812 4.05722 11.6267 4.28394 11.5964 4.33565C11.5661 4.38736 11.4373 4.38736 11.407 4.33565C11.3957 4.31179 11.3426 4.29588 11.2972 4.29588C11.2025 4.29588 11.0927 4.19246 11.1381 4.1487C11.1533 4.13279 11.1987 4.14075 11.2404 4.16859Z" fill="#290A04"/>
<path d="M12.0471 4.41521C11.9448 4.41521 11.8426 4.33565 11.8653 4.27599C11.8956 4.20041 11.9827 4.20041 12.0546 4.27201C12.105 4.32494 12.1183 4.37396 12.0957 4.39859C12.0971 4.40967 12.0896 4.41521 12.0736 4.41521C12.0702 4.41521 12.0669 4.41477 12.0638 4.41395C12.0587 4.41478 12.0531 4.41521 12.0471 4.41521Z" fill="#290A04"/>
<path d="M12.5659 4.33565C12.4977 4.33565 12.4106 4.28792 12.4106 4.25212C12.4106 4.19246 12.5508 4.21235 12.5773 4.27599C12.5886 4.30781 12.5811 4.33565 12.5659 4.33565Z" fill="#290A04"/>
<path d="M22.674 4.29588C22.655 4.29588 22.6361 4.27599 22.6361 4.2561C22.6361 4.23223 22.655 4.21632 22.674 4.21632C22.6967 4.21632 22.7118 4.23223 22.7118 4.2561C22.7118 4.27599 22.6967 4.29588 22.674 4.29588Z" fill="#290A04"/>
<path d="M13.7362 4.41521C13.7172 4.41521 13.6983 4.38736 13.6983 4.35554C13.6983 4.32372 13.7172 4.29588 13.7362 4.29588C13.7589 4.29588 13.774 4.32372 13.774 4.35554C13.774 4.38736 13.7589 4.41521 13.7362 4.41521Z" fill="#290A04"/>
<path d="M13.0507 4.55045C12.9219 4.48283 12.9219 4.47885 12.9977 4.40327C13.0856 4.31095 13.2268 4.3868 13.2293 4.48399C13.2352 4.5018 13.2341 4.5191 13.2249 4.53454C13.2167 4.54881 13.2091 4.55745 13.2008 4.56009C13.1674 4.60215 13.1404 4.60149 13.0507 4.55045Z" fill="#290A04"/>
<path d="M22.8633 4.51465C22.8217 4.47487 22.7876 4.42714 22.7876 4.40725C22.7876 4.35554 22.833 4.37145 22.8861 4.44305C22.9618 4.55045 22.9467 4.5942 22.8633 4.51465Z" fill="#290A04"/>
<path d="M23.1436 4.7732C23.1171 4.7732 23.0148 4.6658 23.0148 4.63796C23.0148 4.62205 23.0489 4.63398 23.0906 4.66182C23.1625 4.70955 23.1928 4.7732 23.1436 4.7732Z" fill="#290A04"/>
<path d="M11.3313 4.78115C11.2783 4.7732 11.2366 4.74933 11.2366 4.72944C11.2366 4.7231 11.2408 4.71716 11.2483 4.71201C11.2364 4.69778 11.2529 4.69364 11.3048 4.69364C11.3089 4.69364 11.313 4.69377 11.317 4.69403C11.3217 4.69378 11.3264 4.69364 11.3313 4.69364C11.3843 4.69364 11.426 4.71751 11.426 4.74933C11.426 4.78513 11.3957 4.79706 11.3313 4.78115Z" fill="#290A04"/>
<path d="M23.2421 4.96879C23.2421 4.96856 23.2421 4.96833 23.2421 4.9681C23.2421 4.94288 23.2481 4.93188 23.2586 4.93448C23.2803 4.92556 23.3173 4.94949 23.333 4.99595C23.3511 5.04681 23.3574 5.07509 23.3502 5.08199C23.3536 5.09335 23.348 5.09159 23.3325 5.07864C23.324 5.07352 23.3128 5.06448 23.2989 5.05163C23.2915 5.04484 23.2843 5.03758 23.2777 5.03019C23.2575 5.00762 23.2425 4.98387 23.2421 4.96879Z" fill="#290A04"/>
<path d="M12.7142 5.04584C12.7138 5.04263 12.7136 5.03925 12.7136 5.03572C12.7136 4.99992 12.7401 4.97208 12.7742 4.97208C12.8133 4.97208 12.8244 5.00427 12.812 5.03493C12.8124 5.03988 12.8112 5.04549 12.8083 5.05163C12.7969 5.07152 12.7704 5.09141 12.7477 5.09141C12.7288 5.09141 12.7136 5.07152 12.7136 5.05163C12.7136 5.04964 12.7138 5.04771 12.7142 5.04584Z" fill="#290A04"/>
<path d="M13.2187 5.06804C13.2184 5.07438 13.2206 5.08232 13.2249 5.09141C13.2256 5.09273 13.2265 5.09404 13.2274 5.09535C13.2363 5.12369 13.2438 5.14858 13.2438 5.15505C13.2438 5.16301 13.2628 5.17096 13.2817 5.17096C13.3044 5.17096 13.3196 5.13516 13.3196 5.09141C13.3196 5.04368 13.2931 5.01186 13.259 5.01186C13.2198 5.01186 13.2074 5.02948 13.2187 5.06804Z" fill="#290A04"/>
<path d="M13.7059 5.45735C13.6453 5.521 13.4711 5.31416 13.4976 5.20676C13.5241 5.1113 13.6074 5.10732 13.6377 5.19881C13.6491 5.23858 13.6793 5.30223 13.7059 5.33803C13.7437 5.39371 13.7437 5.41758 13.7059 5.45735Z" fill="#290A04"/>
<path d="M23.5223 5.40962C23.4807 5.40962 23.3973 5.27438 23.3935 5.21472C23.3935 5.20386 23.3947 5.19594 23.3973 5.19102C23.3973 5.17798 23.4041 5.17783 23.4152 5.18704C23.4272 5.19207 23.4447 5.2065 23.4693 5.23063C23.5412 5.29825 23.5715 5.40962 23.5223 5.40962Z" fill="#290A04"/>
<path d="M13.9445 5.56873C13.9142 5.56873 13.8876 5.54884 13.8876 5.52895C13.8876 5.50509 13.9142 5.48918 13.9445 5.48918C13.9748 5.48918 14.0013 5.50509 14.0013 5.52895C14.0013 5.54884 13.9748 5.56873 13.9445 5.56873Z" fill="#290A04"/>
<path d="M14.2664 5.64828C14.1755 5.64828 14.1528 5.63237 14.1528 5.56077C14.1528 5.55829 14.1528 5.55589 14.1528 5.55357C14.1528 5.55331 14.1528 5.55307 14.1528 5.55282C14.1528 5.55257 14.1528 5.55233 14.1528 5.55211C14.1538 5.49253 14.1656 5.48679 14.1982 5.521C14.2247 5.54884 14.2739 5.56873 14.3118 5.56873C14.3497 5.56873 14.38 5.58464 14.38 5.60851C14.38 5.61454 14.3754 5.62058 14.3673 5.62606C14.3696 5.62869 14.3701 5.63083 14.3686 5.63237C14.3657 5.63547 14.3584 5.63635 14.3482 5.63552C14.3278 5.64316 14.299 5.64828 14.2664 5.64828Z" fill="#290A04"/>
<path d="M23.6208 5.66817C23.5791 5.62839 23.545 5.57271 23.545 5.54089C23.545 5.45338 23.6056 5.48122 23.6511 5.58862C23.7155 5.73181 23.7079 5.7517 23.6208 5.66817Z" fill="#290A04"/>
<path d="M14.7208 5.84717C14.6678 5.84717 14.5315 5.7159 14.5315 5.66817C14.5315 5.66015 14.5332 5.65473 14.5383 5.6527C14.5594 5.63696 14.6285 5.66084 14.7284 5.71988C14.7966 5.75966 14.9329 5.81932 15.0352 5.84717C15.1412 5.88297 15.2207 5.93467 15.2359 5.97843C15.2473 6.01821 15.2927 6.08185 15.3306 6.12162C15.3978 6.18681 15.4386 6.31318 15.4311 6.3868C15.4478 6.42579 15.4444 6.44597 15.4153 6.43142C15.4083 6.43935 15.3991 6.44382 15.3874 6.44382C15.3571 6.44382 15.3192 6.42393 15.3079 6.40404C15.2965 6.38017 15.3041 6.36426 15.323 6.36426C15.3461 6.36426 15.3594 6.35949 15.364 6.35151C15.3614 6.34013 15.3504 6.32191 15.334 6.30148C15.3108 6.28307 15.2758 6.26303 15.2321 6.24493C15.1601 6.21709 15.0314 6.11367 14.9405 6.01821C14.8534 5.92274 14.7549 5.84717 14.7208 5.84717Z" fill="#290A04"/>
<path d="M15.7012 6.3627C15.6557 6.36538 15.5919 6.3151 15.5919 6.26482C15.5919 6.2637 15.5919 6.26258 15.5919 6.26147C15.5919 6.26125 15.5919 6.26104 15.5919 6.26084C15.5919 6.25835 15.5921 6.25617 15.5924 6.25431C15.5953 6.22711 15.6092 6.20516 15.626 6.20516C15.6714 6.20516 15.7585 6.32051 15.732 6.34835C15.7251 6.3564 15.7159 6.36081 15.7056 6.36226C15.7061 6.36454 15.7046 6.36468 15.7012 6.3627Z" fill="#290A04"/>
<path d="M16.2319 6.92114C16.1941 6.92114 15.9706 6.58701 15.9706 6.52735C15.9706 6.45177 16.0312 6.47961 16.0842 6.58303C16.1107 6.63872 16.1562 6.68248 16.1789 6.68248C16.2509 6.68248 16.3152 6.78589 16.2887 6.85749C16.2774 6.89329 16.2509 6.92114 16.2319 6.92114Z" fill="#290A04"/>
<path d="M24.2646 7.08024C24.2457 7.08024 24.2267 7.04444 24.2267 6.99671C24.2267 6.95296 24.2457 6.92909 24.2646 6.94102C24.2873 6.95296 24.3025 6.99273 24.3025 7.02455C24.3025 7.05638 24.2873 7.08024 24.2646 7.08024Z" fill="#290A04"/>
<path d="M24.3782 7.39845C24.329 7.37061 24.3025 7.31492 24.3025 7.23935C24.3025 7.12044 24.3142 7.09508 24.3542 7.16712C24.357 7.16606 24.36 7.16746 24.3631 7.17173C24.3689 7.17787 24.3728 7.19034 24.3736 7.2048C24.3797 7.21742 24.3863 7.23159 24.3934 7.2473C24.4502 7.36377 24.4645 7.41735 24.4349 7.41963C24.4317 7.42345 24.4256 7.42331 24.4161 7.41834C24.4135 7.41697 24.411 7.4154 24.4086 7.41364C24.3999 7.41009 24.3897 7.40501 24.3782 7.39845Z" fill="#290A04"/>
<path d="M24.4918 7.63711C24.4729 7.63711 24.454 7.61723 24.454 7.59734C24.454 7.57347 24.4729 7.55756 24.4918 7.55756C24.5146 7.55756 24.5297 7.57347 24.5297 7.59734C24.5297 7.61723 24.5146 7.63711 24.4918 7.63711Z" fill="#290A04"/>
<path d="M17.1132 8.67884C17.0493 8.60446 16.9553 8.42202 16.9553 8.35309C16.9553 8.34866 16.9555 8.34431 16.9559 8.34007C16.9555 8.33752 16.9553 8.33522 16.9553 8.33321C16.9553 8.32713 16.9565 8.32337 16.9587 8.32167C16.9649 8.29343 16.979 8.27354 16.9932 8.27354C17.0159 8.27354 17.031 8.32127 17.031 8.38492C17.031 8.44856 17.0613 8.5122 17.1068 8.54402C17.1787 8.59175 17.2128 8.71108 17.156 8.71108C17.1522 8.71108 17.1477 8.70942 17.1427 8.70632C17.139 8.71736 17.1298 8.70971 17.1132 8.67884Z" fill="#290A04"/>
<path d="M17.8112 10.8869C17.7809 10.9187 17.7127 10.855 17.7127 10.7954C17.7127 10.7636 17.7279 10.7397 17.7468 10.7397C17.7847 10.7397 17.8377 10.859 17.8112 10.8869Z" fill="#290A04"/>
<path d="M17.5651 13.164C17.5648 13.1473 17.5683 13.1278 17.5764 13.1064C17.5991 13.0428 17.7127 13.0229 17.7127 13.0786C17.7127 13.0984 17.69 13.1422 17.6635 13.186C17.622 13.2404 17.5788 13.2297 17.5678 13.1856C17.564 13.1815 17.5628 13.1741 17.5651 13.164Z" fill="#290A04"/>
<path d="M17.0689 15.5129C17.05 15.5129 17.031 15.485 17.031 15.4532C17.031 15.4214 17.05 15.3936 17.0689 15.3936C17.0916 15.3936 17.1068 15.4214 17.1068 15.4532C17.1068 15.485 17.0916 15.5129 17.0689 15.5129Z" fill="#290A04"/>
<path d="M14.4557 18.0904C14.5277 18.0546 14.664 17.9432 14.7587 17.8478C14.8534 17.7483 14.9632 17.6688 15.0049 17.6648C15.0175 17.6648 15.0277 17.6649 15.0356 17.6656C15.0385 17.6648 15.0409 17.6645 15.0427 17.6648C15.0465 17.6648 15.0486 17.666 15.0492 17.6683C15.0637 17.6746 15.0446 17.6922 14.9859 17.7404C14.7625 17.9273 14.611 18.0825 14.6072 18.1342C14.6072 18.162 14.5845 18.1779 14.558 18.166C14.5315 18.1541 14.4671 18.1819 14.4141 18.2217C14.3648 18.2615 14.2929 18.2973 14.2588 18.2973C14.2518 18.2973 14.2451 18.2978 14.2388 18.2988C14.2231 18.3088 14.2075 18.3188 14.192 18.3285C14.1911 18.3312 14.1906 18.3341 14.1906 18.337C14.1906 18.3569 14.1679 18.3768 14.1452 18.3768C14.1187 18.3768 14.0543 18.4126 14.0013 18.4564C13.9482 18.5001 13.8801 18.5359 13.8422 18.5359C13.8081 18.5359 13.7362 18.5876 13.6869 18.6552C13.596 18.7666 13.4711 18.8183 13.4711 18.7428C13.4711 18.703 13.6491 18.5359 13.6907 18.5359C13.7059 18.5359 13.7589 18.5001 13.8119 18.4564C13.8649 18.4126 13.9369 18.3768 13.9748 18.3768C14.0088 18.3768 14.0391 18.3569 14.0391 18.337C14.0391 18.3132 14.0694 18.2973 14.1073 18.2973C14.1452 18.2973 14.2096 18.2654 14.2512 18.2257C14.2891 18.1859 14.3838 18.1262 14.4557 18.0904Z" fill="#290A04"/>
<path d="M13.9634 18.8541C13.9445 18.8541 13.9255 18.8342 13.9255 18.8144C13.9255 18.7905 13.9445 18.7746 13.9634 18.7746C13.9861 18.7746 14.0013 18.7905 14.0013 18.8144C14.0013 18.8342 13.9861 18.8541 13.9634 18.8541Z" fill="#290A04"/>
<path d="M12.5053 19.5701C12.475 19.5701 12.4485 19.5502 12.4485 19.5303C12.4485 19.5065 12.475 19.4906 12.5053 19.4906C12.5356 19.4906 12.5621 19.5065 12.5621 19.5303C12.5621 19.5502 12.5356 19.5701 12.5053 19.5701Z" fill="#290A04"/>
</svg>
