<svg xmlns="http://www.w3.org/2000/svg">
  <defs>
    <!-- play-large -->
    <symbol id="geist-play-large" viewBox="0 0 16 16" stroke-linejoin="round">
      <path fill-rule="evenodd" clip-rule="evenodd" d="M14.5528 7.77638C14.737 7.86851 14.737 8.13147 14.5528 8.2236L1.3618 14.8191C1.19558 14.9022 1 14.7813 1 14.5955L1 1.4045C1 1.21865 1.19558 1.09778 1.3618 1.18089L14.5528 7.77638Z" fill="currentColor"></path>
    </symbol>

    <!-- play -->
    <symbol id="geist-play" viewBox="0 0 16 16" stroke-linejoin="round">
      <path fill-rule="evenodd" clip-rule="evenodd" d="M14.5528 7.77638C14.737 7.86851 14.737 8.13147 14.5528 8.2236L1.3618 14.8191C1.19558 14.9022 1 14.7813 1 14.5955L1 1.4045C1 1.21865 1.19558 1.09778 1.3618 1.18089L14.5528 7.77638Z" fill="currentColor"></path>
    </symbol>

    <!-- pause -->
    <symbol id="geist-pause" viewBox="0 0 16 16" stroke-linejoin="round">
      <path fill-rule="evenodd" clip-rule="evenodd" d="M5.5 2.5V1.75H4V2.5V13.5V14.25H5.5V13.5V2.5ZM12 2.5V1.75H10.5V2.5V13.5V14.25H12V13.5V2.5Z" fill="currentColor"></path>
    </symbol>

    <!-- volume -->
    <symbol id="geist-volume" viewBox="0 0 16 16" stroke-linejoin="round">
      <path fill-rule="evenodd" clip-rule="evenodd" d="M3.74421 10.6976L3 10.5H1.5V5.5H3L3.74421 5.30236L8.5 2.58477V13.4152L3.74421 10.6976ZM3 4L8.5 0.857143L10 0V1.72763V14.2724V16L8.5 15.1429L3 12H1C0.447715 12 0 11.5523 0 11V5C0 4.44772 0.447715 4 1 4H3ZM14.2585 2.96051L14.6728 3.58567C15.5116 4.85121 16 6.3697 16 8C16 9.6303 15.5116 11.1488 14.6728 12.4143L14.2585 13.0395L13.0082 12.2108L13.4225 11.5857C14.1034 10.5582 14.5 9.32657 14.5 8C14.5 6.67343 14.1034 5.44176 13.4225 4.41433L13.0082 3.78916L14.2585 2.96051ZM12.059 4.98506L12.4125 5.64655C12.7876 6.34871 13 7.15067 13 8C13 8.84933 12.7876 9.65129 12.4125 10.3534L12.059 11.0149L10.736 10.3081L11.0895 9.64655C11.3513 9.15657 11.5 8.59676 11.5 8C11.5 7.40324 11.3513 6.84344 11.0895 6.35345L10.736 5.69195L12.059 4.98506Z" fill="currentColor"></path>
    </symbol>

    <!-- muted -->
    <symbol id="geist-muted" viewBox="0 0 16 16" stroke-linejoin="round">
      <path fill-rule="evenodd" clip-rule="evenodd" d="M6 10.5L6.67082 10.6584L12.5 13.5729V2.42705L6.67082 5.34164L6 5.5H3.5V10.5H6ZM12.5 0.75L6 4H3C2.44772 4 2 4.44772 2 5V11C2 11.5523 2.44772 12 3 12H6L12.5 15.25L14 16V14.3229V1.67705V0L12.5 0.75Z" fill="currentColor"></path>
    </symbol>

    <!-- settings -->
    <symbol id="geist-settings" viewBox="0 0 16 16" stroke-linejoin="round">
      <path fill-rule="evenodd" clip-rule="evenodd" d="M9.49999 0H6.49999L6.22628 1.45975C6.1916 1.64472 6.05544 1.79299 5.87755 1.85441C5.6298 1.93996 5.38883 2.04007 5.15568 2.15371C4.98644 2.2362 4.78522 2.22767 4.62984 2.12136L3.40379 1.28249L1.28247 3.40381L2.12135 4.62986C2.22766 4.78524 2.23619 4.98646 2.1537 5.15569C2.04005 5.38885 1.93995 5.62981 1.8544 5.87756C1.79297 6.05545 1.6447 6.19162 1.45973 6.2263L0 6.5V9.5L1.45973 9.7737C1.6447 9.80838 1.79297 9.94455 1.8544 10.1224C1.93995 10.3702 2.04006 10.6112 2.1537 10.8443C2.23619 11.0136 2.22767 11.2148 2.12136 11.3702L1.28249 12.5962L3.40381 14.7175L4.62985 13.8786C4.78523 13.7723 4.98645 13.7638 5.15569 13.8463C5.38884 13.9599 5.6298 14.06 5.87755 14.1456C6.05544 14.207 6.1916 14.3553 6.22628 14.5403L6.49999 16H9.49999L9.77369 14.5403C9.80837 14.3553 9.94454 14.207 10.1224 14.1456C10.3702 14.06 10.6111 13.9599 10.8443 13.8463C11.0135 13.7638 11.2147 13.7723 11.3701 13.8786L12.5962 14.7175L14.7175 12.5962L13.8786 11.3701C13.7723 11.2148 13.7638 11.0135 13.8463 10.8443C13.9599 10.6112 14.06 10.3702 14.1456 10.1224C14.207 9.94455 14.3553 9.80839 14.5402 9.7737L16 9.5V6.5L14.5402 6.2263C14.3553 6.19161 14.207 6.05545 14.1456 5.87756C14.06 5.62981 13.9599 5.38885 13.8463 5.1557C13.7638 4.98647 13.7723 4.78525 13.8786 4.62987L14.7175 3.40381L12.5962 1.28249L11.3701 2.12137C11.2148 2.22768 11.0135 2.2362 10.8443 2.15371C10.6111 2.04007 10.3702 1.93996 10.1224 1.85441C9.94454 1.79299 9.80837 1.64472 9.77369 1.45974L9.49999 0ZM8 11C9.65685 11 11 9.65685 11 8C11 6.34315 9.65685 5 8 5C6.34315 5 5 6.34315 5 8C5 9.65685 6.34315 11 8 11Z" fill="currentColor"></path>
    </symbol>

    <!-- pip -->
    <symbol id="geist-pip" viewBox="0 0 16 16" stroke-linejoin="round">
      <path fill-rule="evenodd" clip-rule="evenodd" d="M6.75 13.5H1.5V2.5H14.5V6.75V7.5H16V6.75V2C16 1.44772 15.5523 1 15 1H1C0.447714 1 0 1.44772 0 2V14C0 14.5523 0.447716 15 1 15H6.75H7.5V13.5H6.75ZM10.5 10.5H14.5V13.5H10.5V10.5ZM9 9H10.5H14.5H16V10.5V13.5V15H14.5H10.5H9V13.5V10.5V9Z" fill="currentColor"></path>
    </symbol>

    <!-- airplay -->
    <symbol id="geist-airplay" viewBox="0 0 16 16" stroke-linejoin="round">
      <path fill-rule="evenodd" clip-rule="evenodd" d="M3.5 11.5H1.5V3.5H14.5V11.5H12.5H11.75V13H12.5H15C15.5523 13 16 12.5523 16 12V3C16 2.44772 15.5523 2 15 2H1C0.447714 2 0 2.44772 0 3V12C0 12.5523 0.447715 13 1 13H3.5H4.25V11.5H3.5ZM8.20801 10.312C8.10906 10.1636 7.89094 10.1636 7.79199 10.312L4.25912 15.6113C4.14836 15.7775 4.26746 16 4.46713 16H11.5329C11.7325 16 11.8516 15.7775 11.7409 15.6113L8.20801 10.312Z" fill="currentColor"></path>
    </symbol>

    <!-- enter-fullscreen -->
    <symbol id="geist-enter-fullscreen" viewBox="0 0 16 16" stroke-linejoin="round">
      <path fill-rule="evenodd" clip-rule="evenodd" d="M1 5.25V6H2.5V5.25V2.5H5.25H6V1H5.25H2C1.44772 1 1 1.44772 1 2V5.25ZM5.25 14.9994H6V13.4994H5.25H2.5V10.7494V9.99939H1V10.7494V13.9994C1 14.5517 1.44772 14.9994 2 14.9994H5.25ZM15 10V10.75V14C15 14.5523 14.5523 15 14 15H10.75H10V13.5H10.75H13.5V10.75V10H15ZM10.75 1H10V2.5H10.75H13.5V5.25V6H15V5.25V2C15 1.44772 14.5523 1 14 1H10.75Z" fill="currentColor"></path>
    </symbol>

    <!-- exit-fullscreen -->
    <symbol id="geist-exit-fullscreen" viewBox="0 0 16 16" stroke-linejoin="round">
      <path fill-rule="evenodd" clip-rule="evenodd" d="M6 1V1.75V5C6 5.55229 5.55228 6 5 6H1.75H1V4.5H1.75H4.5V1.75V1H6ZM14.25 6H15V4.5H14.25H11.5V1.75V1H10V1.75V5C10 5.55228 10.4477 6 11 6H14.25ZM10 14.25V15H11.5V14.25V11.5H14.29H15.04V10H14.29H11C10.4477 10 10 10.4477 10 11V14.25ZM1.75 10H1V11.5H1.75H4.5V14.25V15H6V14.25V11C6 10.4477 5.55229 10 5 10H1.75Z" fill="currentColor"></path>
    </symbol>
  </defs>
</svg>