<svg width="100" height="100" viewBox="0 0 100 100" fill="none" xmlns="http://www.w3.org/2000/svg">
<rect width="100" height="100" rx="50" fill="#222222"/>
<path d="M50.8152 20.7535C50.5833 20.7985 50.503 20.6994 50.7082 20.6184C50.8866 20.5373 51.0382 20.5463 51.0382 20.6364C51.0382 20.6508 51.0282 20.6661 51.0105 20.6809C51.0006 20.6891 50.9929 20.6985 50.9818 20.7051V20.7051C50.979 20.7068 50.9742 20.7089 50.971 20.7098C50.97 20.71 50.9691 20.7103 50.968 20.7105C50.9615 20.7121 50.9552 20.7142 50.949 20.7169C50.912 20.733 50.8658 20.7462 50.8152 20.7535Z" fill="white"/>
<path d="M51.4575 20.8076C51.4094 20.8132 51.3678 20.8137 51.3333 20.81C51.1421 20.7892 51.3633 20.5553 51.5556 20.5553V20.5553C51.8411 20.5553 51.7608 20.7715 51.4575 20.8076Z" fill="white"/>
<path fill-rule="evenodd" clip-rule="evenodd" d="M51.9392 20.6814C51.9364 20.6785 51.9407 20.6731 51.9391 20.6693C51.9334 20.6558 51.9303 20.6416 51.9303 20.6274C51.9303 20.5779 52.5842 20.5728 52.9432 20.6034C53.0828 20.6152 53.1743 20.7054 53.1971 20.8436V20.8436C53.2328 21.1139 53.5361 21.1769 53.5361 20.9247C53.5361 20.8838 53.5399 20.8512 53.5501 20.8255C53.5572 20.8075 53.5361 20.7908 53.5361 20.7715V20.7715C53.5361 20.7452 53.6434 20.7346 53.7716 20.7364C53.7899 20.7358 53.8095 20.7355 53.8305 20.7355C53.8927 20.7355 53.9576 20.7422 54.0169 20.7537C54.1092 20.766 54.182 20.7845 54.1963 20.8076V20.8076C54.1984 20.8118 54.2004 20.8166 54.2043 20.8193C54.2116 20.8243 54.2179 20.8294 54.223 20.8346C54.2944 20.9067 54.3747 20.9067 54.4907 20.8436C54.6601 20.7445 55.2489 20.7625 55.4987 20.8616C55.5701 20.8886 55.8734 20.9337 56.1678 20.9697C57.2472 21.0778 57.9609 21.1679 58.3088 21.258C58.5051 21.3121 58.746 21.3751 58.8441 21.3932C59.3883 21.5373 60.2982 21.7445 60.4499 21.7535C60.5748 21.7625 60.6283 21.7175 60.6283 21.5914C60.6283 21.4382 60.6818 21.4202 60.9405 21.4382C61.11 21.4562 61.2884 21.5103 61.342 21.5553C61.3866 21.6004 61.5115 21.6364 61.6274 21.6364C61.7434 21.6364 61.904 21.6724 61.9932 21.7175C62.0735 21.7625 62.2876 21.8616 62.4571 21.9337C62.5765 21.9908 62.7312 22.0702 62.8559 22.1343C62.9083 22.1612 62.9554 22.1853 62.9924 22.204C63.1172 22.2761 63.376 22.4112 63.5722 22.5103C63.7026 22.5761 63.8841 22.6737 64.0462 22.7609C64.1281 22.805 64.2051 22.8464 64.2681 22.8797C64.3573 22.9337 64.4777 23.0036 64.5981 23.0734C64.7186 23.1432 64.839 23.213 64.9282 23.2671C65.1066 23.3662 65.4813 23.6094 65.7668 23.8076C66.0523 23.9968 66.3199 24.159 66.3556 24.159C66.4002 24.159 66.5697 24.2671 66.7392 24.4113C66.9087 24.5464 67.1763 24.7176 67.319 24.7896C67.4707 24.8617 67.8364 25.114 68.1398 25.3482C68.4431 25.5915 68.7375 25.7807 68.7731 25.7807C68.8178 25.7807 68.9159 25.8437 68.9783 25.9248C69.0497 26.0059 69.4779 26.3572 69.9418 26.7086C70.8428 27.3843 72.0918 28.6005 72.0918 28.7988C72.0918 28.8708 72.1631 28.9429 72.2523 28.9699C72.4129 29.024 73.3585 29.979 73.6083 30.3393C73.6797 30.4384 73.9116 30.7267 74.1168 30.97C74.7145 31.6727 75.2676 32.3934 75.3212 32.5376C75.3479 32.6097 75.5799 32.952 75.8297 33.2944C76.2935 33.934 76.4809 34.2854 76.8823 35.3304C76.9288 35.4511 76.9752 35.5742 77.0176 35.6864C77.089 35.8758 77.1487 36.034 77.1767 36.0962C77.2059 36.1773 77.2888 36.3669 77.3718 36.5565C77.3902 36.5987 77.4087 36.6409 77.4265 36.6818C77.5246 36.9071 77.6585 37.2494 77.7209 37.4476C77.8904 38.0332 77.9975 38.2134 78.1759 38.2134C78.2651 38.2134 78.3364 38.1684 78.3364 38.1233C78.3364 38.1075 78.3402 38.0933 78.3467 38.081C78.3488 38.0772 78.3511 38.0688 78.3522 38.0645V38.0645C78.3562 38.0489 78.3765 38.0467 78.3913 38.0404C78.4022 38.0357 78.4139 38.0332 78.4257 38.0332C78.5014 38.0332 78.5279 38.2417 78.5093 38.434C78.5062 38.4655 78.5059 38.4971 78.5059 38.5287V38.5287C78.507 38.5471 78.5077 38.5633 78.508 38.5773C78.5088 38.6259 78.451 38.6924 78.4167 38.7269V38.7269C78.3364 38.808 78.3721 38.8891 78.5506 39.0423V39.0423C78.5924 39.0788 78.662 39.1323 78.6857 39.1825C78.6928 39.1976 78.7002 39.2149 78.7077 39.2343C78.7108 39.2424 78.7145 39.2502 78.7188 39.2577C78.8542 39.4943 78.9401 39.8272 78.9355 40.1111C78.9354 40.1183 78.9359 40.1255 78.9372 40.1326C78.9454 40.181 78.9487 40.2146 78.9473 40.2356C78.9459 40.2572 78.9205 40.2824 78.9163 40.3035V40.3035C78.8806 40.4477 78.8985 40.5558 78.952 40.5558C78.9532 40.5558 78.9545 40.5558 78.9557 40.5559C78.9574 40.556 78.9592 40.5558 78.9609 40.5558V40.5558V40.5558C78.9657 40.5558 78.9702 40.558 78.9747 40.5595C79.0787 40.5938 79.1548 40.8741 79.2464 41.5468C79.3395 42.2204 79.3846 42.6277 79.387 42.8511C79.4051 43.0158 79.403 43.0628 79.3813 43.0753C79.3693 43.0822 79.3511 43.0784 79.327 43.0784L79.3267 43.0784C79.1929 43.0784 79.2018 43.3036 79.3445 43.4207C79.3518 43.4269 79.3587 43.4406 79.3652 43.4612C79.3685 43.4709 79.3717 43.4833 79.3748 43.4981C79.4984 44.0597 79.4488 47.3546 79.291 47.556V47.556C79.287 47.5617 79.2848 47.5684 79.284 47.5754C79.2834 47.5809 79.2827 47.5865 79.2821 47.592C79.2726 47.6725 79.2633 47.7513 79.2541 47.8284C79.2535 47.8337 79.2538 47.8391 79.2553 47.8443V47.8443C79.2732 47.9434 79.2464 48.3218 79.1839 48.6821C79.168 48.7741 79.1538 48.8638 79.1418 48.9469C79.0981 49.2491 79.1146 49.5569 79.0412 49.8533V49.8533C78.9877 50.0696 78.952 50.3488 78.952 50.484C78.9609 50.6191 78.8985 50.9164 78.8182 51.1597C78.7379 51.3939 78.6576 51.8714 78.6487 52.2228C78.6398 52.5651 78.5595 53.0516 78.4703 53.3039C78.39 53.5471 78.3097 53.8715 78.2918 54.0246C78.2829 54.1688 78.2116 54.4931 78.1491 54.7273C78.0421 55.1147 78.0421 55.1958 78.1848 55.4391C78.39 55.7994 78.3811 55.9706 78.0777 56.8625C77.9439 57.286 77.7744 57.8265 77.712 58.0788C77.4979 58.8896 76.6058 60.7725 76.2133 61.214C76.133 61.3041 76.0616 61.4392 76.0527 61.5113C76.017 61.7726 75.7583 62.223 75.5353 62.4392V62.4392C75.3499 62.6265 75.2584 62.882 75.098 63.091C75.078 63.1171 75.0572 63.1432 75.0357 63.169C74.884 63.3402 74.7681 63.5654 74.7681 63.6825C74.7681 63.7996 74.5896 64.0609 74.3309 64.3222C74.2699 64.3869 74.2162 64.4424 74.168 64.4897C74.1386 64.5255 74.1147 64.552 74.099 64.5654V64.5654C74.0793 64.5824 74.0554 64.594 74.0352 64.6105C73.8871 64.7313 73.7929 64.748 73.6529 64.7186C73.4121 64.6735 73.4031 64.6825 73.4656 65.0069V65.0069C73.4726 65.0422 73.4904 65.0755 73.5021 65.1095C73.5123 65.1392 73.5191 65.1786 73.5191 65.2231V65.2231C73.5191 65.3164 73.4646 65.4018 73.4296 65.4883C73.4003 65.5608 73.3592 65.6408 73.305 65.7366C73.1623 65.9799 73.0017 66.142 72.8768 66.1601C72.743 66.1781 72.6092 66.3312 72.4575 66.6285C72.3237 66.8808 71.8777 67.4123 71.3513 67.9349C70.1202 69.1331 70.0132 69.2412 69.8437 69.4935C69.7634 69.6196 69.5493 69.7908 69.3709 69.8719C69.2014 69.953 68.9962 70.1241 68.9159 70.2322C68.834 70.3614 68.7375 70.4461 68.5758 70.5119C68.466 70.5566 68.3654 70.6467 68.2468 70.6467V70.6467V70.6467C68.2286 70.6467 68.2307 70.6098 68.2129 70.6134C68.173 70.6215 68.1309 70.6296 68.0862 70.6377C67.8275 70.6827 67.7651 70.7458 67.658 71.0521C67.5421 71.4034 66.8997 72.0881 66.6856 72.0881C66.6232 72.0881 66.4805 72.1963 66.3645 72.3404C65.963 72.8089 65.2761 73.2593 64.5803 73.4936C64.4911 73.5296 64.4197 73.6107 64.4197 73.6738C64.4197 73.8449 63.6168 74.4215 63.3849 74.4305C63.2778 74.4305 63.0905 74.5116 62.9656 74.6107C62.8407 74.7098 62.7158 74.7909 62.6801 74.7909C62.6444 74.7909 62.3768 74.9711 62.0824 75.1963C61.788 75.4216 61.4758 75.6017 61.3866 75.6017C61.2974 75.6017 61.1635 75.6558 61.0922 75.7279C61.0208 75.7999 60.771 75.9441 60.5302 76.0522C60.2893 76.1513 59.8611 76.3585 59.5845 76.5027C59.308 76.6558 59.0225 76.7459 58.9422 76.7189C58.8709 76.6919 58.7014 76.7549 58.5675 76.854C58.2821 77.0793 58.1929 77.0883 57.9788 76.8901C57.8271 76.7549 57.8182 76.7549 57.8182 76.8991V76.8991C57.8182 76.9386 57.806 76.991 57.7854 77.0247C57.7818 77.0305 57.7779 77.0367 57.7736 77.0432C57.7468 77.0883 57.6665 77.1333 57.613 77.1333V77.1333C57.6096 77.1333 57.6062 77.134 57.6031 77.1356C57.5105 77.1823 57.3842 77.2598 57.2918 77.3315C57.1759 77.4216 57.0064 77.4937 56.9172 77.4937C56.819 77.4937 56.7477 77.5297 56.7477 77.5838C56.7477 77.6288 56.7031 77.6739 56.6585 77.6739C56.5692 77.6739 55.8823 77.9622 55.5701 78.1333C55.4809 78.1784 55.2846 78.2144 55.124 78.2144C54.9635 78.2144 54.6958 78.2955 54.5263 78.4036C54.3212 78.5297 54.0357 78.6018 53.6432 78.6198C53.5606 78.6219 53.4831 78.6267 53.4113 78.634C53.3837 78.6386 53.362 78.6411 53.3471 78.6414C53.1337 78.6691 52.9782 78.7211 52.9027 78.791C52.8046 78.8721 52.6797 78.9352 52.6172 78.9352C52.5459 78.9352 52.4656 78.9622 52.4299 78.9982C52.3942 79.0433 52.1712 79.0703 51.9482 79.0793C51.7162 79.0883 51.288 79.1334 50.9936 79.1874C50.6992 79.2415 50.0391 79.2955 49.5217 79.3045C49.0042 79.3136 48.5404 79.3586 48.4779 79.4036C48.4155 79.4577 48.3173 79.4577 48.2192 79.4036C48.13 79.3496 47.9337 79.3496 47.7196 79.4036C47.4877 79.4487 47.3182 79.4487 47.2468 79.3856C47.1933 79.3406 46.9881 79.3045 46.7918 79.3045C46.0692 79.3226 44.5348 79.2415 44.4724 79.1784C44.4512 79.157 44.3984 79.1387 44.3329 79.1275C44.2978 79.1238 44.2639 79.1202 44.2311 79.1164C44.2165 79.1157 44.2017 79.1153 44.1869 79.1153C44.0803 79.1153 43.8826 79.0825 43.7049 79.0337V79.0337C43.6088 79.0132 43.5137 78.9744 43.417 78.9572C43.2765 78.9321 43.1875 78.9469 43.0985 78.9982C42.9201 79.1153 41.921 78.8451 41.6623 78.6108C41.5552 78.5117 41.4214 78.4847 41.243 78.5297C41.0824 78.5568 40.9486 78.5478 40.9129 78.4937C40.8861 78.4397 40.7613 78.3946 40.6453 78.3946C40.5293 78.3946 40.4044 78.3496 40.3776 78.3045C40.3509 78.2505 40.2171 78.2144 40.0833 78.2144C39.9494 78.2144 39.7264 78.1423 39.5748 78.0523C39.432 77.9622 39.1287 77.836 38.9057 77.764C38.6098 77.672 38.3937 77.5764 38.158 77.4234C37.9871 77.3124 37.6567 77.283 37.6567 77.0793V77.0793V77.0793C37.6567 77.0659 37.6534 77.0475 37.6425 77.0399C37.543 76.9707 37.4265 76.9073 37.319 76.8627C37.2785 76.846 37.2341 76.8375 37.1931 76.8222C37.1916 76.8217 37.19 76.8211 37.1885 76.8205C37.1722 76.8143 37.1556 76.8086 37.1384 76.8053C37.1263 76.803 37.1147 76.8012 37.1036 76.8C36.952 76.782 36.72 76.7009 36.5952 76.6198C36.4613 76.5387 36.1045 76.3315 35.7923 76.1693C35.48 76.0072 35.1589 75.818 35.0786 75.7459C34.9983 75.6738 34.7842 75.5567 34.6058 75.4846C34.4274 75.4035 34.2222 75.2594 34.1597 75.1603C34.0973 75.0522 33.9991 74.9711 33.9367 74.9711C33.8832 74.9711 33.7226 74.854 33.5799 74.7008C33.446 74.5477 33.2765 74.4305 33.223 74.4305C33.1606 74.4305 33.0178 74.2774 32.8929 74.0972C32.7591 73.872 32.5183 73.6738 32.2328 73.5296C31.9384 73.3855 31.7421 73.2143 31.6708 73.0611C31.6623 73.0384 31.653 73.0166 31.6431 72.996C31.6276 72.9637 31.6048 72.9356 31.5794 72.9104C31.5472 72.8787 31.5146 72.8459 31.4814 72.812C31.4796 72.8101 31.4771 72.8089 31.4745 72.8089V72.8089C31.3496 72.8089 30.5289 71.971 30.52 71.8359C30.52 71.7818 30.4843 71.7278 30.4308 71.7278C30.3861 71.7278 30.3415 71.6737 30.3415 71.6016C30.3415 71.5386 30.1542 71.3043 29.9312 71.0881C29.1015 70.3043 28.9142 70.0881 28.9142 69.9439C28.9142 69.8629 28.7268 69.6737 28.5038 69.5295C28.2273 69.3583 28.0488 69.1511 27.9596 68.9439C27.6563 68.1691 27.585 68.061 27.2014 67.8628C27.0675 67.7907 26.898 67.5925 26.8267 67.4123C26.7553 67.2322 26.5947 67.025 26.4698 66.9619V66.9619C26.2788 66.8516 26.2011 66.6301 26.0712 66.4518C26.0401 66.4091 26.006 66.3651 25.9703 66.3222C25.8186 66.1511 25.7026 65.9799 25.7026 65.9348C25.7026 65.8988 25.6313 65.7817 25.542 65.6916C25.3012 65.4303 24.9889 64.7997 24.9889 64.5834C24.9889 64.3402 24.7927 63.7996 24.7035 63.7996C24.6678 63.7996 24.5072 63.5294 24.3466 63.187C24.1861 62.8537 23.9809 62.5023 23.9006 62.4122C23.8114 62.3131 23.74 62.178 23.74 62.1149C23.74 62.0519 23.7043 61.9978 23.6597 61.9978C23.624 61.9978 23.5348 61.7455 23.4724 61.4302C23.401 61.1239 23.2761 60.7455 23.1869 60.6014C23.0977 60.4482 22.946 60.1599 22.8568 59.9617C22.7587 59.7545 22.6427 59.5563 22.5892 59.5293C22.5357 59.4932 22.4911 59.3491 22.4911 59.1959C22.4911 58.9437 22.384 58.6824 22.161 58.3941C22.1075 58.322 22.045 58.0517 22.0183 57.8085C21.9647 57.1418 21.7774 56.304 21.6436 56.0967C21.5454 55.9346 21.4384 55.2949 21.3759 54.5201C21.367 54.394 21.2957 54.1417 21.2154 53.9525C21.0994 53.6913 21.0905 53.5561 21.1618 53.421C21.2243 53.2949 21.2243 53.2138 21.1529 53.1237C21.0994 53.0516 21.0726 52.9165 21.1083 52.8174C21.1351 52.7183 21.1083 52.3759 21.037 52.0696C20.9656 51.7543 20.9031 51.4029 20.9121 51.2768C20.9121 51.1507 20.8585 50.8263 20.7961 50.5561C20.7336 50.2858 20.6712 49.7723 20.6533 49.4299C20.6355 49.0785 20.5998 48.6911 20.5641 48.556C20.5374 48.4119 20.5731 48.1506 20.6533 47.9254C20.7782 47.583 20.8318 47.1506 20.9121 45.9614C20.9388 45.619 21.037 45.3487 21.1975 45.1775C21.26 45.1235 21.3313 44.8172 21.3581 44.4928C21.3938 44.0784 21.4919 43.7811 21.6882 43.4478C21.8577 43.1415 21.9558 42.8622 21.9558 42.6279C21.9558 42.4387 22.0004 42.2495 22.045 42.2225C22.0985 42.1955 22.1342 42.0964 22.1342 41.9973C22.1342 41.9072 22.1878 41.8171 22.2591 41.7901C22.4108 41.727 22.6695 41.2225 22.6695 40.9792C22.6695 40.79 23.285 39.4747 23.3742 39.4747V39.4747C23.4194 39.4747 23.4359 39.4132 23.4572 39.3735C23.4706 39.3486 23.4833 39.3254 23.4953 39.304C23.5691 39.1375 23.6481 38.8752 23.6865 38.6368C23.74 38.3485 24.2039 37.4566 24.3734 37.3125C24.4002 37.2855 24.4805 37.1053 24.5429 36.9071C24.6143 36.7089 24.7748 36.3935 24.9176 36.2134C25.0514 36.0332 25.1674 35.844 25.1674 35.7989C25.1674 35.7539 25.2566 35.6458 25.3547 35.5467C25.4618 35.4566 25.6313 35.2494 25.7383 35.0962C25.8364 34.9431 26.0951 34.5827 26.3093 34.3034C26.5234 34.0241 26.7375 33.6727 26.791 33.5196C26.8445 33.3664 27.0051 33.1862 27.1657 33.1052C27.2602 33.0562 27.3459 33.0012 27.4246 32.9383C27.4408 32.9241 27.4566 32.9108 27.4719 32.8987C27.6453 32.7469 27.7834 32.5509 27.9061 32.2853C27.9864 32.1142 28.147 31.8709 28.2629 31.7358C28.8517 31.0871 29.3335 30.6456 29.4494 30.6456C29.4961 30.6456 29.6077 30.5724 29.7342 30.4663C29.7345 30.466 29.7347 30.4658 29.7349 30.4655V30.4655C29.7693 30.4098 29.8659 30.3205 30.0078 30.2079C30.3755 29.8448 30.8585 29.4977 31.2782 29.2943C31.4299 29.2222 31.6262 29.1051 31.7243 29.024C32.0365 28.7627 33.116 28.1231 33.2319 28.1231C33.2944 28.1231 33.5174 28.042 33.7315 27.9339C33.9026 27.8509 34.0895 27.7945 34.2317 27.7849C34.245 27.784 34.2582 27.7822 34.2712 27.7797C34.3142 27.7716 34.3358 27.7756 34.3463 27.7893C34.3465 27.7895 34.3468 27.7897 34.3471 27.7897V27.7897C34.579 27.8438 35.4443 27.4924 35.5603 27.3122C35.5871 27.2582 35.712 27.2221 35.8369 27.2221C35.8947 27.2221 35.9398 27.234 35.9727 27.2532C36.0043 27.2717 36.0583 27.2718 36.0637 27.3079V27.3079C36.0682 27.3379 36.0437 27.3704 36.0361 27.3998C36.0169 27.4745 35.9363 27.5479 35.8012 27.5645C35.5782 27.6005 35.5425 27.7807 35.7387 27.9429C35.8101 28.0059 35.8726 28.105 35.8726 28.1681C35.8726 28.3663 36.1491 28.4023 36.4435 28.2492C37.0412 27.9339 37.5051 27.9339 38.0493 28.2222C38.1652 28.2852 38.2455 28.2852 38.308 28.2222C38.3615 28.1681 38.5935 28.1231 38.8254 28.1231C39.093 28.1231 39.2625 28.078 39.2893 28.0059C39.3339 27.8798 39.8424 27.8978 40.0208 28.033C40.0743 28.069 40.4223 28.105 40.8148 28.105C41.4749 28.114 41.5374 28.1231 41.7961 28.3843C41.9567 28.5375 42.1618 28.6636 42.26 28.6636C42.3581 28.6636 42.4741 28.6996 42.5276 28.7447C42.5722 28.7897 42.706 28.8438 42.8309 28.8618C42.9915 28.8798 43.1432 29.042 43.384 29.4294C43.5624 29.7267 43.6963 30.024 43.6695 30.0871C43.6517 30.1501 43.7319 30.3033 43.8568 30.4114C44.0531 30.6006 44.0799 30.6907 44.062 31.1321C44.0531 31.4204 44.0799 31.6727 44.1334 31.7087C44.178 31.7448 44.2672 31.8799 44.3296 32.0241C44.4189 32.2403 44.4099 32.3124 44.2315 32.5826C44.0977 32.7898 43.9371 32.916 43.723 32.961C43.4732 33.0241 43.4108 33.0871 43.4108 33.2583C43.4108 33.4115 43.4732 33.4926 43.6338 33.5286C43.7342 33.5539 43.7922 33.5878 43.8253 33.6575C43.8322 33.6719 43.8395 33.6862 43.8479 33.6998V33.6998C43.864 33.7252 43.87 33.762 43.8684 33.8026C43.8672 33.8344 43.8646 33.8662 43.8658 33.898V33.898C43.8675 33.9304 43.8693 33.9643 43.8711 33.9982V33.9982C43.8821 34.2062 43.9519 34.4295 44.1601 34.4295V34.4295C44.3601 34.4295 44.5601 34.5401 44.6436 34.6651C44.6587 34.6877 44.6937 34.6978 44.7017 34.7237V34.7237C44.71 34.7503 44.6866 34.7773 44.6824 34.8048C44.6814 34.8119 44.6797 34.819 44.6776 34.8259C44.6597 34.88 44.5438 34.925 44.4278 34.925C44.294 34.925 44.178 34.9971 44.1245 35.1322C44.12 35.1431 44.1151 35.1535 44.1098 35.1635C44.0358 35.3042 43.8178 35.2569 43.723 35.3845V35.3845C43.6606 35.4566 43.5714 35.5106 43.5178 35.5106C43.4197 35.5106 43.0361 35.835 41.9031 36.889C41.466 37.2945 41.0735 37.6458 41.0289 37.6638C40.681 37.79 37.9868 40.6459 37.6746 41.2135C37.5586 41.4207 37.3713 41.691 37.2642 41.8171C37.1572 41.9432 36.952 42.2225 36.8182 42.4477C36.6754 42.673 36.4078 43.0604 36.2205 43.3126C36.1788 43.3662 36.1392 43.4193 36.1026 43.4703C36.035 43.5778 35.9685 43.6849 35.9032 43.7915C35.8896 43.8136 35.8726 43.8362 35.8726 43.8622V43.8622V43.8622C35.8726 44.0404 35.6801 44.1601 35.59 44.3138C35.5718 44.3448 35.5538 44.3758 35.5358 44.4066C35.4491 44.5559 35.3777 44.7134 35.3082 44.8715C35.2348 45.0383 35.1428 45.2301 35.0607 45.3848C34.918 45.637 34.802 45.8983 34.802 45.9794C34.802 46.0514 34.7217 46.1866 34.6325 46.2677C34.4184 46.4659 34.356 46.9253 34.3025 48.6641C34.2846 49.4299 34.2311 50.1867 34.1865 50.3398C34.1419 50.502 34.1419 50.6822 34.1865 50.7633C34.2311 50.8444 34.3025 51.3669 34.3471 51.9255C34.4006 52.6642 34.472 53.0606 34.6147 53.3489C34.7128 53.5651 34.802 53.7994 34.802 53.8715C34.802 53.9435 34.8823 54.0967 34.9805 54.2228C35.1946 54.4931 35.2035 54.6102 35.034 54.6102C34.8377 54.6102 34.7663 54.7814 34.8645 54.9976C34.8745 55.0198 34.8847 55.043 34.895 55.0669C34.9157 55.1021 34.9342 55.1486 34.9479 55.1951C35.0218 55.3808 35.0939 55.5885 35.1412 55.7485C35.1434 55.7561 35.1513 55.7725 35.155 55.7796V55.7796C35.2044 55.8739 35.2993 56.2342 35.3516 56.327C35.475 56.5461 35.6349 56.7724 35.6941 56.7724C35.7298 56.7724 35.9528 57.0697 36.1759 57.4211C36.3989 57.7815 36.6576 58.1689 36.7557 58.277C36.8628 58.3851 36.9431 58.5112 36.9431 58.5473C36.9431 58.5833 37.1126 58.8085 37.3267 59.0428C37.5319 59.268 37.8887 59.7185 38.1117 60.0338C38.6827 60.8176 39.9762 62.187 40.6096 62.6735C40.904 62.8987 41.1538 63.0789 41.1805 63.0789C41.1984 63.0789 41.4303 63.205 41.689 63.3582C41.9477 63.5204 42.376 63.7186 42.6436 63.8087C42.9112 63.9078 43.2056 64.0429 43.2859 64.124C43.3929 64.2231 43.5268 64.2501 43.6695 64.2141C43.7944 64.187 43.9193 64.196 43.946 64.2501C43.9728 64.2952 44.1958 64.3402 44.4456 64.3402C44.8025 64.3402 44.8827 64.3672 44.8827 64.4934C44.8827 64.5834 44.9274 64.7186 44.972 64.7907C45.0522 64.9078 45.0879 64.8988 45.2217 64.7186C45.3645 64.5294 45.4269 64.5204 46.1584 64.5474V64.5474C46.7216 64.583 47.313 64.8665 47.8298 64.6399C47.8502 64.631 47.8646 64.6211 47.8713 64.6105C47.898 64.5654 47.9962 64.5204 48.0765 64.5204C48.1568 64.5204 48.3887 64.4483 48.585 64.3492C49.0042 64.151 49.6555 63.9168 50.271 63.7456C50.5208 63.6735 50.7528 63.5834 50.8063 63.5294C50.8509 63.4843 50.9579 63.4393 51.0382 63.4393C51.1185 63.4393 51.3683 63.3222 51.6003 63.169C52.0909 62.8627 52.1087 62.8537 52.1087 63.0248V63.0248C52.1087 63.0336 52.1082 63.0424 52.1085 63.0512C52.1087 63.0544 52.1087 63.0576 52.1087 63.0609V63.0609C52.1087 63.0902 52.077 63.1097 52.0594 63.1331C52.0116 63.1967 51.9329 63.2676 51.8411 63.3222C51.6895 63.4032 51.5735 63.5474 51.5735 63.6375C51.5735 63.6596 51.5713 63.6795 51.5675 63.6972C51.5579 63.7411 51.5381 63.7996 51.4932 63.7996V63.7996C51.4636 63.7996 51.4367 63.7859 51.4186 63.7659C51.4025 63.7489 51.388 63.7242 51.3772 63.6915C51.3326 63.5654 50.842 63.7366 50.5833 63.9528C50.494 64.0249 50.2264 64.133 49.9766 64.2051C49.7268 64.2681 49.3789 64.4123 49.2005 64.5114C49.031 64.6195 48.8169 64.7006 48.7277 64.7006C48.6474 64.7006 48.5314 64.7456 48.4779 64.7997C48.4244 64.8537 48.2549 64.9258 48.0943 64.9618C47.7821 65.0249 47.7107 65.1781 47.9694 65.2321C48.0586 65.2501 48.246 65.3402 48.3798 65.4303C48.6206 65.6105 49.2094 65.6646 49.2986 65.5204C49.3254 65.4664 49.6019 65.4393 49.9053 65.4483C50.3246 65.4573 50.5743 65.4123 50.8687 65.2681C51.3059 65.0609 52.0285 64.7907 52.3764 64.7186C52.5013 64.7006 52.7065 64.6015 52.8403 64.5114C52.9652 64.4123 53.1436 64.3402 53.2417 64.3402C53.3309 64.3402 53.545 64.2231 53.7145 64.0879C53.884 63.9528 54.2409 63.7456 54.4996 63.6375C54.7672 63.5294 55.133 63.3131 55.3292 63.16C55.5166 63.0068 55.6771 62.9167 55.6771 62.9528V62.9528C55.6771 62.983 55.7278 62.9466 55.7529 62.93C55.7825 62.9104 55.8122 62.8907 55.8418 62.8709C55.8681 62.8502 55.8967 62.8263 55.9269 62.7996C56.0607 62.6735 56.2659 62.5203 56.3997 62.4573C56.5246 62.3942 56.7477 62.232 56.9082 62.0789C57.0599 61.9347 57.2205 61.8176 57.2562 61.8176C57.2918 61.8176 57.6308 61.5293 57.9966 61.187C58.3624 60.8446 58.6924 60.5563 58.7281 60.5563C58.8441 60.5563 59.2455 60.1689 59.2455 60.0698C59.2455 60.0158 59.4596 59.7365 59.7183 59.4572C60.3785 58.7184 60.7889 58.2049 60.9316 57.9166C61.003 57.7815 61.1189 57.6734 61.1814 57.6734C61.2438 57.6734 61.333 57.6013 61.3598 57.5112C61.3955 57.4301 61.4758 57.304 61.5382 57.2409C61.6007 57.1779 61.6542 57.0427 61.6542 56.9436C61.6542 56.8535 61.8326 56.5832 62.0556 56.34C62.2787 56.1058 62.4571 55.8265 62.4571 55.7184C62.4571 55.6102 62.5017 55.4931 62.5463 55.4661C62.5998 55.4391 62.6355 55.2859 62.6355 55.1328C62.6355 54.9706 62.7158 54.6823 62.805 54.4841C62.8809 54.3077 62.9698 54.0857 63.0111 53.9346C63.0162 53.9097 63.0231 53.8801 63.0316 53.8466C63.1714 53.2297 63.2077 53.1039 63.3492 52.8985C63.4473 52.7543 63.483 52.6102 63.4384 52.493C63.3938 52.3759 63.4384 52.1867 63.5365 51.9795C63.6347 51.7903 63.706 51.5831 63.706 51.511C63.706 51.439 63.7506 51.3669 63.8042 51.3489C63.8666 51.3309 63.9023 51.1236 63.8934 50.8263C63.8934 50.5651 63.9201 50.3038 63.9647 50.2497C64.0093 50.1957 64.0629 49.9705 64.0986 49.7452C64.2234 48.7272 64.2681 48.52 64.384 48.3848V48.3848C64.3903 48.3774 64.3946 48.3685 64.3986 48.3596C64.4002 48.3559 64.4019 48.3524 64.4037 48.3491C64.4133 48.3308 64.4259 48.3142 64.4335 48.295C64.5164 48.0869 64.5814 47.6041 64.6338 46.7722C64.6427 46.6461 64.6784 46.5019 64.7141 46.4388C64.8212 46.2677 64.7944 43.682 64.6784 43.2315C64.6249 42.9973 64.5981 42.655 64.616 42.4568C64.6338 42.2405 64.6071 42.0784 64.5446 42.0513C64.4911 42.0333 64.3573 41.7811 64.2502 41.4838C64.1906 41.3356 64.1192 41.1494 64.0506 40.9704C63.9857 40.801 63.9232 40.638 63.8755 40.5198C63.7863 40.2765 63.706 39.9432 63.706 39.781C63.706 39.5738 63.6614 39.4747 63.5722 39.4747C63.5008 39.4747 63.4116 39.3666 63.3849 39.2224C63.3492 39.0873 63.2065 38.835 63.0637 38.6639C62.9299 38.4927 62.8139 38.2855 62.8139 38.2134C62.8139 38.1323 62.698 37.9521 62.5463 37.808C62.3322 37.6008 62.2787 37.4746 62.2787 37.1593C62.2787 36.7899 62.2608 36.7719 62.0646 36.826C61.8951 36.862 61.7702 36.7809 61.3509 36.3034C61.0743 35.9881 60.8513 35.6908 60.8513 35.6278C60.8513 35.5737 60.7621 35.4926 60.6551 35.4566C60.325 35.3575 60.1376 35.1413 60.1376 34.853C60.1376 34.6187 60.1109 34.5917 59.9146 34.6457C59.763 34.6818 59.6381 34.6548 59.531 34.5466C59.4329 34.4566 59.0939 34.1863 58.7638 33.952C58.4426 33.7088 58.175 33.4745 58.175 33.4115C58.175 33.2223 57.7736 32.4475 57.6754 32.4475C57.6219 32.4475 57.5059 32.5286 57.4167 32.6277C57.3843 32.6642 57.3514 32.695 57.3187 32.7204C57.2783 32.7517 57.2449 32.8079 57.1937 32.8079V32.8079V32.8079C57.1767 32.8079 57.1593 32.8025 57.1426 32.8053C57.0186 32.8264 56.9261 32.7496 56.9261 32.5826C56.9261 32.3304 56.6852 32.1772 56.5692 32.3574V32.3574C56.5656 32.3629 56.5647 32.3699 56.5665 32.3763C56.5788 32.4191 56.5613 32.4475 56.5068 32.4475C56.4997 32.4475 56.4912 32.4457 56.4818 32.4422C56.4028 32.4137 56.3371 32.3568 56.2659 32.3124V32.3124C56.141 32.2223 56.034 32.1051 56.034 32.0421C56.034 31.934 55.2043 31.3664 55.0438 31.3664C54.9991 31.3664 54.9635 31.4835 54.9635 31.6367C54.9635 31.6541 54.9629 31.6713 54.9619 31.6881C54.9615 31.6956 54.9631 31.7132 54.9641 31.7207V31.7207C54.971 31.7768 54.944 31.8511 54.9049 31.8918C54.8955 31.9016 54.8853 31.9069 54.8743 31.9069C54.8296 31.9069 54.785 31.8709 54.785 31.8349C54.785 31.7988 54.6512 31.7268 54.4996 31.6817C54.4633 31.6703 54.4313 31.6597 54.4034 31.6491C54.3 31.6101 54.1606 31.5489 54.1606 31.4385V31.4385C54.1606 31.4165 54.1678 31.4012 54.1798 31.3917C54.2014 31.3746 54.2287 31.3578 54.2319 31.3303V31.3303C54.2498 31.1862 54.2052 31.033 54.1427 30.997C54.0803 30.961 54.0624 30.8979 54.0981 30.8619C54.1606 30.7988 54.8207 30.97 55.0081 31.0961C55.0616 31.1321 55.2489 31.1862 55.4274 31.2132C55.6058 31.2403 55.8912 31.3213 56.0518 31.4024C56.2124 31.4745 56.5157 31.5826 56.7298 31.6277C56.9439 31.6727 57.1848 31.7718 57.274 31.8529V31.8529C57.4139 31.98 57.6075 32.0212 57.7807 32.0968C57.8351 32.1206 57.8936 32.1477 57.952 32.1772C58.1483 32.2763 58.3891 32.3484 58.4962 32.3574C58.5943 32.3574 58.7727 32.4565 58.8887 32.5826C59.0047 32.7088 59.1742 32.8079 59.2634 32.8079C59.3526 32.8079 59.424 32.8709 59.424 32.943C59.424 33.0151 59.4775 33.0781 59.5399 33.0781C59.6113 33.0781 59.6559 32.9971 59.647 32.907C59.6291 32.6817 59.1831 32.0871 59.0314 32.0871C58.969 32.0871 58.7638 31.961 58.5765 31.8168C58.3891 31.6637 58.2018 31.5466 58.1483 31.5466C58.0234 31.5466 57.8271 31.2583 57.8182 31.0871C57.8182 30.9249 57.6398 30.8258 57.3721 30.8258C57.274 30.8258 57.1669 30.7538 57.1134 30.6727C57.0331 30.5195 56.2748 30.2853 55.7485 30.2582C55.6236 30.2492 55.4809 30.2132 55.4452 30.1682C55.4095 30.1321 55.2757 30.1051 55.1508 30.1051C54.8653 30.0961 54.6066 29.9069 54.6066 29.7087C54.6066 29.5555 54.3747 29.5195 54.1695 29.6456C54.0892 29.6997 53.9197 29.6366 53.6432 29.4474C53.3845 29.2672 53.2239 29.2042 53.1971 29.2762C53.1793 29.3303 53.0276 29.4024 52.8492 29.4384C52.6083 29.4835 52.5102 29.4654 52.4477 29.3483C52.4031 29.2672 52.2693 29.2042 52.1534 29.2042C52.0374 29.2042 51.9303 29.1591 51.9125 29.0961C51.8857 29.015 51.7876 29.033 51.5556 29.1411C51.3574 29.2345 51.2614 29.2818 51.1677 29.2775C51.0717 29.2731 50.9782 29.2146 50.7795 29.0961C50.61 28.9879 50.3246 28.8888 50.164 28.8798C49.9945 28.8798 49.8339 28.8168 49.7893 28.7537C49.7536 28.6906 49.6644 28.6636 49.6019 28.6816C49.5306 28.7087 49.37 28.6636 49.2362 28.5915C49.0221 28.4654 48.9775 28.4654 48.7723 28.6005C48.4601 28.8168 48.237 28.7897 48.1032 28.5375C47.9159 28.1951 47.5769 28.1861 47.2914 28.5014L47.2768 28.5172C47.1549 28.6492 46.9428 28.6373 46.8364 28.4924V28.4924C46.7294 28.3393 46.5599 28.2132 46.4796 28.2132C46.3904 28.2132 46.212 28.1681 46.0782 28.105C45.8819 28.0149 45.8284 28.0149 45.7302 28.1501C45.6678 28.2312 45.5161 28.3032 45.3912 28.3032C45.2663 28.3032 45.1504 28.3573 45.1236 28.4114C45.0968 28.4924 45.0344 28.4654 44.9274 28.3213C44.8114 28.1681 44.6954 28.1231 44.3475 28.1231C44.0888 28.1231 43.9014 28.1681 43.8747 28.2312C43.839 28.3123 43.8033 28.3123 43.7498 28.2582C43.6606 28.1501 43.0093 28.105 43.0093 28.2132C43.0093 28.3032 42.1708 28.3032 42.0191 28.2041C41.7961 28.069 42.0637 27.9429 42.599 27.9249C42.8755 27.9158 43.1253 27.8798 43.1521 27.8348C43.2145 27.7267 43.723 27.7447 43.723 27.8528C43.723 27.8978 43.7676 27.9429 43.8122 27.9429C43.8658 27.9429 43.9014 27.8798 43.9014 27.7987C43.9014 27.6996 43.946 27.6726 44.0442 27.7086C44.2404 27.7807 44.624 27.5284 44.5616 27.3663C44.5348 27.2942 44.5527 27.2131 44.6062 27.1771C44.7668 27.078 44.7132 26.9969 44.3386 26.7446C44.0263 26.5374 43.8925 26.5014 43.3394 26.5194C42.9826 26.5284 42.6525 26.5735 42.5901 26.6185C42.4562 26.7176 42.2957 26.6275 42.2957 26.4473C42.2957 26.3753 42.2332 26.3212 42.1618 26.3212C42.0816 26.3212 42.1529 26.1951 42.367 25.9698C42.6436 25.6816 42.7774 25.6095 43.1432 25.5734C43.4192 25.5425 43.6424 25.5136 43.825 25.4847C43.8712 25.4774 43.9795 25.4293 44.0263 25.4293V25.4293V25.4293C44.0835 25.424 44.1422 25.4261 44.198 25.4124C44.333 25.3791 44.4312 25.3437 44.5081 25.3032C44.6597 25.2311 44.7579 25.2311 44.8827 25.3032C45.0522 25.4203 45.1504 25.3752 45.1504 25.177C45.1504 25.114 45.079 25.0599 44.9987 25.0599C44.9095 25.0599 44.7668 24.9969 44.6776 24.9338C44.5705 24.8437 44.2583 24.8257 43.5446 24.8437C42.6347 24.8617 42.5544 24.8527 42.4652 24.6905C42.3849 24.5284 42.3492 24.5194 42.2243 24.6275C42.1351 24.6995 41.9031 24.7536 41.6712 24.7446C41.4303 24.7266 41.127 24.7896 40.9218 24.8887C40.7256 24.9878 40.4223 25.0599 40.2528 25.0599C40.0743 25.0599 39.8335 25.141 39.7086 25.2311C39.548 25.3662 39.4499 25.3842 39.325 25.3122C39.209 25.2491 39.0752 25.2581 38.8968 25.3392C38.754 25.3933 38.6113 25.4203 38.5845 25.3933C38.4953 25.3032 39.1733 24.6995 39.3696 24.6995C39.4677 24.6995 39.6194 24.6275 39.6997 24.5374C39.994 24.204 40.9843 23.9428 41.689 24.0148C42.26 24.0689 42.3403 24.0509 42.5454 23.7806C42.6525 23.6455 42.6168 23.6094 42.26 23.4473C41.9299 23.3031 41.7961 23.2851 41.5374 23.3572C41.2965 23.4292 41.1805 23.4202 41.0824 23.3392C40.9754 23.2491 40.9129 23.2671 40.7523 23.4292C40.5382 23.6274 40.333 23.6815 40.333 23.5374C40.333 23.4923 40.3955 23.4383 40.4669 23.4022C40.5382 23.3752 40.6453 23.2581 40.6899 23.15C40.7434 23.0328 40.8237 22.8707 40.8861 22.7896C40.9754 22.6635 40.9664 22.6094 40.8415 22.4653C40.7613 22.3752 40.6899 22.2761 40.6899 22.249C40.6899 22.0959 43.2948 21.7265 44.7935 21.6634C45.5518 21.6364 46.2209 21.5824 46.2655 21.5463C46.319 21.5103 46.6402 21.4923 46.9792 21.5013C47.5947 21.5193 48.1657 21.3391 48.3173 21.0959C48.3619 21.0238 48.4511 21.0418 48.6028 21.1409C48.7634 21.249 48.8526 21.267 48.9418 21.1859C49.031 21.1139 49.0667 21.1139 49.1024 21.204C49.1381 21.2941 49.1737 21.2941 49.2451 21.1859C49.3968 20.9697 49.3611 20.9157 49.031 20.9157C48.8615 20.9157 48.7188 20.8706 48.7188 20.8256V20.8256C48.7188 20.8115 48.7116 20.7903 48.6975 20.79L48.6742 20.7895V20.7895C48.7238 20.7855 48.7718 20.7684 48.8197 20.755C48.8717 20.7404 48.9396 20.7306 49.0132 20.7265C49.1223 20.7265 49.3376 20.7218 49.5494 20.7158C49.6606 20.7056 49.7648 20.6964 49.8533 20.6886C49.9896 20.6766 50.0888 20.6678 50.1194 20.6634C50.1729 20.6544 50.2532 20.6814 50.2799 20.7355V20.7355C50.2906 20.7515 50.2767 20.7785 50.2843 20.7962C50.2948 20.8208 50.3011 20.8512 50.3067 20.8886C50.3424 21.1139 50.6457 21.1679 50.949 21.0058C51.065 20.9427 51.1364 20.9427 51.172 21.0058C51.1988 21.0508 51.404 21.0959 51.627 21.0959C51.9214 21.0959 52.0374 21.0508 52.082 20.9427C52.1177 20.8616 52.0909 20.7715 52.0374 20.7535C52.0015 20.7432 51.9716 20.721 51.9526 20.6937C51.9491 20.6887 51.9435 20.6857 51.9392 20.6814V20.6814V20.6814ZM49.8785 21.0959C49.9766 21.0959 50.0569 21.0508 50.0569 21.0058C50.0569 20.9517 49.9766 20.9157 49.8785 20.9157C49.7804 20.9157 49.7001 20.9517 49.7001 21.0058C49.7001 21.0508 49.7804 21.0959 49.8785 21.0959ZM61.6274 22.0508C61.6542 22.0238 61.6453 21.9697 61.6096 21.9157C61.5382 21.7986 61.2974 21.7806 61.2974 21.8977C61.2974 21.9878 61.565 22.1139 61.6274 22.0508ZM60.1995 33.3209C60.2112 33.3305 60.2268 33.3388 60.2419 33.3403V33.3403C60.2701 33.3432 60.2916 33.3176 60.2886 33.2894C60.284 33.2452 60.2492 33.1818 60.1912 33.1232C60.165 33.0952 60.1423 33.0745 60.1234 33.0605C60.0802 33.0285 60.0721 33.0798 60.0841 33.1322V33.1322C60.1084 33.212 60.1535 33.2835 60.1995 33.3209ZM31.5013 44.2046C31.5548 44.1775 31.5905 44.1325 31.5905 44.1054C31.5905 44.0874 31.5548 44.0694 31.5013 44.0694C31.4567 44.0694 31.4121 44.1145 31.4121 44.1685C31.4121 44.2136 31.4567 44.2316 31.5013 44.2046Z" fill="white"/>
<path d="M48.0765 20.9427C47.9337 20.9877 47.6483 20.9157 47.6483 20.8346C47.6483 20.7985 47.7731 20.7625 47.9159 20.7625C48.1835 20.7625 48.2816 20.8706 48.0765 20.9427Z" fill="white"/>
<path d="M48.4422 20.9157C48.4151 20.9157 48.3921 20.8944 48.3771 20.8719C48.3677 20.8579 48.3619 20.8417 48.3619 20.8256C48.3619 20.7715 48.4065 20.7355 48.4511 20.7355C48.4554 20.7355 48.4596 20.7357 48.4637 20.7362C48.4772 20.7377 48.4911 20.7355 48.5047 20.7355V20.7355C48.5225 20.7355 48.5404 20.7715 48.5404 20.8256C48.5404 20.8706 48.5047 20.9157 48.4511 20.9157C48.4498 20.9157 48.4484 20.9156 48.4471 20.9155C48.4454 20.9156 48.4438 20.9157 48.4422 20.9157V20.9157Z" fill="white"/>
<path d="M39.8781 23.7986C39.8335 23.7986 39.7978 23.7536 39.7978 23.7085C39.7978 23.6545 39.8602 23.6184 39.9405 23.6184C40.0119 23.6184 40.0476 23.6545 40.0208 23.7085C39.994 23.7536 39.9316 23.7986 39.8781 23.7986Z" fill="white"/>
<path d="M67.5421 24.5194C67.4974 24.5194 67.4528 24.4743 67.4528 24.4293C67.4528 24.3752 67.4974 24.3392 67.5421 24.3392C67.5956 24.3392 67.6313 24.3752 67.6313 24.4293C67.6313 24.4743 67.5956 24.5194 67.5421 24.5194Z" fill="white"/>
<path d="M38.3258 25.6005C38.2545 25.6005 38.192 25.5554 38.192 25.5104C38.192 25.4563 38.2545 25.4203 38.3258 25.4203C38.3972 25.4203 38.4596 25.4563 38.4596 25.5104C38.4596 25.5554 38.3972 25.6005 38.3258 25.6005Z" fill="white"/>
<path d="M37.9244 25.7807C37.8798 25.7807 37.8352 25.7356 37.8352 25.6906C37.8352 25.6365 37.8798 25.6005 37.9244 25.6005C37.9779 25.6005 38.0136 25.6365 38.0136 25.6906C38.0136 25.7356 37.9779 25.7807 37.9244 25.7807Z" fill="white"/>
<path d="M69.692 25.9608C69.6385 25.9608 69.5939 25.9158 69.5939 25.8707C69.5939 25.8167 69.6117 25.7807 69.6296 25.7807C69.6563 25.7807 69.7009 25.8167 69.7277 25.8707C69.7545 25.9158 69.7366 25.9608 69.692 25.9608Z" fill="white"/>
<path d="M71.0658 27.2221C70.9945 27.2221 70.932 27.1771 70.932 27.132C70.932 27.078 70.9945 27.0419 71.0658 27.0419C71.1372 27.0419 71.1997 27.078 71.1997 27.132C71.1997 27.1771 71.1372 27.2221 71.0658 27.2221Z" fill="white"/>
<path d="M43.723 27.4023C43.6249 27.4023 43.5446 27.3573 43.5446 27.3122C43.5446 27.2582 43.6249 27.2221 43.723 27.2221C43.8212 27.2221 43.9014 27.2582 43.9014 27.3122C43.9014 27.3573 43.8212 27.4023 43.723 27.4023Z" fill="white"/>
<path d="M71.4673 27.6726C71.4227 27.6726 71.3424 27.5915 71.2889 27.4924C71.1818 27.2942 71.1997 27.2852 71.4138 27.3663C71.5654 27.4293 71.61 27.6726 71.4673 27.6726Z" fill="white"/>
<path d="M73.2604 29.3844C73.1623 29.3844 72.627 28.8348 72.627 28.7357C72.627 28.6096 72.7162 28.6546 73.0285 28.9789C73.3496 29.2943 73.4031 29.3844 73.2604 29.3844Z" fill="white"/>
<path d="M43.8658 29.7447C43.7855 29.7447 43.723 29.6997 43.723 29.6546C43.723 29.6006 43.7587 29.5645 43.8033 29.5645C43.8568 29.5645 43.9193 29.6006 43.946 29.6546C43.9728 29.6997 43.9371 29.7447 43.8658 29.7447Z" fill="white"/>
<path d="M44.6151 29.7447C44.4724 29.7447 44.3475 29.6997 44.3475 29.6546C44.3475 29.6006 44.4724 29.5645 44.6151 29.5645C44.7668 29.5645 44.8827 29.6006 44.8827 29.6546C44.8827 29.6997 44.7668 29.7447 44.6151 29.7447Z" fill="white"/>
<path d="M45.5518 29.7447C45.4805 29.7447 45.418 29.6997 45.418 29.6546C45.418 29.6006 45.4805 29.5645 45.5518 29.5645C45.6232 29.5645 45.6856 29.6006 45.6856 29.6546C45.6856 29.6997 45.6232 29.7447 45.5518 29.7447Z" fill="white"/>
<path d="M47.0327 29.997C47.1844 30.0961 47.2468 30.0871 47.4431 29.9249C47.568 29.8258 47.7018 29.7447 47.7464 29.7447C47.8356 29.7447 47.9426 30.2582 47.8713 30.3754C47.7999 30.4925 47.4966 30.4925 47.4252 30.3754C47.3985 30.3213 47.2736 30.2853 47.1665 30.2853C46.9435 30.2853 46.6848 30.051 46.7918 29.9519C46.8275 29.9159 46.9346 29.9339 47.0327 29.997Z" fill="white"/>
<path d="M48.9329 30.5556C48.692 30.5556 48.4511 30.3754 48.5047 30.2402C48.576 30.0691 48.7812 30.0691 48.9507 30.2312C49.0316 30.3129 49.0719 30.3905 49.0725 30.4493C49.0729 30.4967 49.0427 30.5555 48.9953 30.5555V30.5555V30.5555C48.98 30.5555 48.9645 30.5542 48.9491 30.5551C48.9439 30.5554 48.9385 30.5556 48.9329 30.5556Z" fill="white"/>
<path d="M50.1551 30.3754C49.9945 30.3754 49.7893 30.2673 49.7893 30.1862C49.7893 30.051 50.1194 30.0961 50.1818 30.2402C50.2086 30.3123 50.1907 30.3754 50.1551 30.3754Z" fill="white"/>
<path d="M73.9652 30.2853C73.9206 30.2853 73.876 30.2402 73.876 30.1952C73.876 30.1411 73.9206 30.1051 73.9652 30.1051C74.0187 30.1051 74.0544 30.1411 74.0544 30.1952C74.0544 30.2402 74.0187 30.2853 73.9652 30.2853Z" fill="white"/>
<path d="M52.9116 30.5556C52.867 30.5556 52.8224 30.4925 52.8224 30.4204C52.8224 30.3483 52.867 30.2853 52.9116 30.2853C52.9652 30.2853 53.0008 30.3483 53.0008 30.4204C53.0008 30.4925 52.9652 30.5556 52.9116 30.5556Z" fill="white"/>
<path d="M51.2969 30.8619C50.9936 30.7087 50.9936 30.6997 51.172 30.5285C51.3415 30.3574 51.5951 30.4414 51.6848 30.5981C51.724 30.6666 51.7488 30.7587 51.7073 30.8258V30.8258V30.8258C51.6798 30.8722 51.6368 30.9129 51.5892 30.9382C51.5286 30.9704 51.4531 30.9473 51.2969 30.8619Z" fill="white"/>
<path d="M74.4112 30.7808C74.3131 30.6907 74.2328 30.5826 74.2328 30.5375C74.2328 30.4204 74.3398 30.4565 74.4647 30.6186C74.6432 30.8619 74.6075 30.961 74.4112 30.7808Z" fill="white"/>
<path d="M75.0714 31.3664C75.0089 31.3664 74.7681 31.1231 74.7681 31.0601C74.7681 31.024 74.8483 31.0511 74.9465 31.1141C75.116 31.2222 75.1873 31.3664 75.0714 31.3664Z" fill="white"/>
<path d="M47.2468 31.3844C47.1219 31.3664 47.0238 31.3123 47.0238 31.2673V31.2673C47.0238 31.2407 47.04 31.2001 47.0658 31.1938C47.0881 31.1883 47.1271 31.1862 47.1844 31.1862C47.1941 31.1862 47.2038 31.1865 47.2132 31.1871C47.2241 31.1865 47.2354 31.1862 47.2468 31.1862C47.3717 31.1862 47.4698 31.2403 47.4698 31.3123C47.4698 31.3934 47.3985 31.4204 47.2468 31.3844Z" fill="white"/>
<path d="M75.3033 31.8094L75.3033 31.8078V31.8078C75.3033 31.7439 75.3823 31.7159 75.4341 31.7534C75.4673 31.7775 75.4988 31.8177 75.5174 31.8709C75.5393 31.9298 75.5539 31.9754 75.5607 32.0079C75.5681 32.0438 75.5563 32.0887 75.5271 32.0666V32.0666C75.5234 32.0638 75.5142 32.0571 75.5103 32.0545C75.4911 32.0425 75.4668 32.0233 75.4371 31.997C75.4197 31.9817 75.4029 31.9652 75.3873 31.9485C75.3398 31.8973 75.3044 31.8436 75.3033 31.8094Z" fill="white"/>
<path d="M50.503 31.997C50.503 31.9883 50.5036 31.9795 50.5032 31.9707C50.503 31.9676 50.503 31.9643 50.503 31.961C50.503 31.8799 50.5654 31.8168 50.6457 31.8168C50.7209 31.8168 50.7523 31.8656 50.7451 31.9214C50.7418 31.947 50.7375 31.9739 50.726 31.997V31.997C50.6992 32.0421 50.6368 32.0871 50.5833 32.0871C50.5387 32.0871 50.503 32.0421 50.503 31.997V31.997Z" fill="white"/>
<path d="M51.6833 31.9797C51.6831 32.0164 51.691 32.0542 51.7073 32.0871V32.0871V32.0871C51.7109 32.0932 51.7143 32.0995 51.7165 32.1062C51.736 32.1661 51.7519 32.2174 51.7519 32.2313C51.7519 32.2493 51.7965 32.2673 51.8411 32.2673C51.8946 32.2673 51.9303 32.1862 51.9303 32.0871C51.9303 31.979 51.8679 31.9069 51.7876 31.9069C51.7172 31.9069 51.6836 31.9301 51.6833 31.9797Z" fill="white"/>
<path d="M52.8403 32.916C52.6975 33.0601 52.2872 32.5916 52.3496 32.3484C52.4121 32.1322 52.6083 32.1232 52.6797 32.3304C52.7065 32.4205 52.7778 32.5646 52.8403 32.6457C52.9295 32.7718 52.9295 32.8259 52.8403 32.916Z" fill="white"/>
<path d="M75.9635 32.8079C75.8653 32.8079 75.6691 32.5015 75.6602 32.3664C75.6602 32.3421 75.6628 32.3242 75.6689 32.3131C75.669 32.3129 75.6691 32.3126 75.6691 32.3124V32.3124V32.3124C75.6691 32.2705 75.7314 32.3116 75.7644 32.3374C75.7853 32.3538 75.8099 32.3754 75.8386 32.4024C76.0081 32.5556 76.0794 32.8079 75.9635 32.8079Z" fill="white"/>
<path d="M53.4023 33.1682C53.3309 33.1682 53.2685 33.1232 53.2685 33.0781C53.2685 33.0241 53.3309 32.988 53.4023 32.988C53.4737 32.988 53.5361 33.0241 53.5361 33.0781C53.5361 33.1232 53.4737 33.1682 53.4023 33.1682Z" fill="white"/>
<path d="M54.1606 33.3484C53.9465 33.3484 53.8929 33.3124 53.8929 33.1502C53.8929 33.1446 53.893 33.1391 53.8931 33.1339C53.893 33.1333 53.8929 33.1328 53.8929 33.1322V33.1322C53.8929 33.1311 53.8931 33.13 53.8931 33.1289C53.8957 32.9955 53.9236 32.983 54 33.0601C54.0624 33.1232 54.1784 33.1682 54.2676 33.1682C54.3568 33.1682 54.4282 33.2043 54.4282 33.2583C54.4282 33.2685 54.4223 33.2787 54.4114 33.2883C54.405 33.294 54.4075 33.3063 54.4014 33.3124V33.3124V33.3124C54.3784 33.3357 54.3376 33.326 54.3057 33.3332C54.2643 33.3427 54.2147 33.3484 54.1606 33.3484Z" fill="white"/>
<path d="M76.1954 33.3935C76.0973 33.3034 76.017 33.1772 76.017 33.1052C76.017 32.907 76.1597 32.97 76.2668 33.2133C76.4184 33.5376 76.4006 33.5827 76.1954 33.3935Z" fill="white"/>
<path d="M55.2311 33.7989C55.1062 33.7989 54.785 33.5016 54.785 33.3935V33.3935C54.785 33.3661 54.813 33.3486 54.8403 33.3478C54.9139 33.3456 55.0573 33.4017 55.2489 33.5106C55.4095 33.6007 55.7307 33.7358 55.9715 33.7989C56.2213 33.88 56.4087 33.9971 56.4443 34.0962C56.4711 34.1863 56.5782 34.3304 56.6674 34.4205C56.8124 34.5557 56.9051 34.8072 56.9063 34.9767C56.9064 35.0059 56.9116 35.0349 56.9203 35.0627C56.9267 35.0833 56.9291 35.1 56.9272 35.1119C56.9205 35.1551 56.8449 35.1503 56.8012 35.1503V35.1503C56.7298 35.1503 56.6406 35.1052 56.6138 35.0602C56.5871 35.0061 56.6049 34.9701 56.6495 34.9701V34.9701C56.7165 34.9701 56.7387 34.9105 56.6984 34.857V34.857C56.687 34.8417 56.6678 34.8219 56.6521 34.8111C56.5985 34.7742 56.5247 34.7353 56.4354 34.6998C56.2659 34.6367 55.9626 34.4025 55.7485 34.1863C55.5433 33.9701 55.3114 33.7989 55.2311 33.7989Z" fill="white"/>
<path d="M57.5449 34.9687C57.543 34.968 57.5393 34.9666 57.5374 34.9667C57.4305 34.9705 57.2829 34.8577 57.2829 34.7448C57.2829 34.7423 57.283 34.7398 57.2831 34.7373L57.2829 34.7358C57.2829 34.7302 57.2834 34.7253 57.2842 34.721C57.291 34.6594 57.3236 34.6097 57.3632 34.6097C57.4703 34.6097 57.6754 34.871 57.613 34.934C57.5992 34.9494 57.5817 34.9589 57.5621 34.9635C57.5561 34.9649 57.5506 34.971 57.5449 34.9687V34.9687Z" fill="white"/>
<path d="M58.7906 36.2314C58.7014 36.2314 58.175 35.4746 58.175 35.3395C58.175 35.1683 58.3178 35.2313 58.4426 35.4656C58.5051 35.5917 58.6121 35.6908 58.6657 35.6908C58.8352 35.6908 58.9868 35.9251 58.9244 36.0872C58.8976 36.1683 58.8352 36.2314 58.7906 36.2314Z" fill="white"/>
<path d="M77.712 36.5917C77.6674 36.5917 77.6228 36.5107 77.6228 36.4025C77.6228 36.3034 77.6674 36.2494 77.712 36.2764C77.7655 36.3034 77.8012 36.3935 77.8012 36.4656C77.8012 36.5377 77.7655 36.5917 77.712 36.5917Z" fill="white"/>
<path d="M77.9796 37.3125C77.8636 37.2494 77.8012 37.1233 77.8012 36.9521C77.8012 36.6945 77.8265 36.6307 77.9112 36.7685C77.9182 36.7799 77.9337 36.7865 77.9423 36.7968V36.7968C77.9431 36.7978 77.9444 36.7994 77.9453 36.8004C77.949 36.8045 77.9524 36.8097 77.9554 36.8159C77.9726 36.8514 77.9779 36.892 77.995 36.9276C78.0016 36.9412 78.0083 36.9553 78.0153 36.9701C78.1141 37.1649 78.1583 37.2821 78.1466 37.3321C78.1397 37.3618 78.096 37.3713 78.0688 37.3575V37.3575V37.3575C78.0566 37.3513 78.0446 37.3445 78.0321 37.3389C78.0162 37.3318 77.9987 37.323 77.9796 37.3125Z" fill="white"/>
<path d="M78.2472 37.853C78.2026 37.853 78.158 37.808 78.158 37.7629C78.158 37.7089 78.2026 37.6728 78.2472 37.6728C78.3008 37.6728 78.3364 37.7089 78.3364 37.7629C78.3364 37.808 78.3008 37.853 78.2472 37.853Z" fill="white"/>
<path d="M60.8711 40.2206C60.8681 40.2152 60.8646 40.2103 60.8605 40.2056C60.71 40.0331 60.4945 39.6287 60.4945 39.4747C60.4945 39.47 60.4946 39.4654 60.4948 39.4608C60.4952 39.4504 60.4945 39.44 60.4945 39.4297V39.4297V39.4297C60.4945 39.4114 60.5042 39.3937 60.5101 39.3764C60.527 39.3272 60.5554 39.2945 60.5837 39.2945C60.6372 39.2945 60.6729 39.4026 60.6729 39.5468C60.6729 39.6909 60.7443 39.8351 60.8513 39.9071C61.0208 40.0153 61.1011 40.2855 60.9673 40.2855V40.2855C60.9499 40.2855 60.9229 40.2893 60.9104 40.2772C60.9003 40.2674 60.8873 40.2488 60.8711 40.2206Z" fill="white"/>
<path d="M62.5106 45.2136C62.4392 45.2857 62.2787 45.1415 62.2787 45.0064C62.2787 44.9343 62.3144 44.8802 62.359 44.8802C62.4482 44.8802 62.5731 45.1505 62.5106 45.2136Z" fill="white"/>
<path d="M61.9281 50.3915C61.9283 50.3804 61.9306 50.3655 61.9312 50.3545C61.9329 50.3205 61.9411 50.2822 61.9575 50.2407C62.011 50.0966 62.2787 50.0515 62.2787 50.1777C62.2787 50.2227 62.2251 50.3218 62.1627 50.4209C62.0767 50.5295 61.9875 50.5236 61.9496 50.4525C61.9389 50.4324 61.9278 50.4143 61.9281 50.3915V50.3915Z" fill="white"/>
<path d="M60.7621 55.6913C60.7175 55.6913 60.6729 55.6283 60.6729 55.5562C60.6729 55.4841 60.7175 55.4211 60.7621 55.4211C60.8156 55.4211 60.8513 55.4841 60.8513 55.5562C60.8513 55.6283 60.8156 55.6913 60.7621 55.6913Z" fill="white"/>
<path d="M54.6066 61.5293C54.7761 61.4482 55.0973 61.196 55.3203 60.9797C55.5433 60.7545 55.802 60.5743 55.9002 60.5653C55.924 60.5653 55.9442 60.5655 55.9608 60.5664C55.9685 60.5668 55.9762 60.5656 55.9839 60.5651C55.9848 60.565 55.9858 60.565 55.9867 60.5651C55.9885 60.5651 55.9912 60.5653 55.993 60.5655V60.5655C56.0029 60.5666 56.0135 60.5741 56.0153 60.5839C56.0192 60.6044 55.9685 60.6473 55.8556 60.7365C55.3292 61.1599 54.9724 61.5113 54.9635 61.6284C54.9635 61.6915 54.9099 61.7275 54.8475 61.7005C54.785 61.6735 54.6334 61.7365 54.5085 61.8266C54.3925 61.9167 54.223 61.9978 54.1427 61.9978C54.1423 61.9978 54.1419 61.9978 54.1415 61.9978C54.1111 61.9979 54.0824 62.0095 54.0565 62.0253C54.0383 62.0364 54.0202 62.0475 54.0021 62.0585C53.9913 62.065 53.9822 62.0752 53.9822 62.0879V62.0879C53.9822 62.1329 53.9286 62.178 53.8751 62.178C53.8127 62.178 53.661 62.2591 53.5361 62.3582C53.4112 62.4573 53.2506 62.5383 53.1614 62.5383C53.0811 62.5383 52.9116 62.6555 52.7957 62.8086C52.5816 63.0609 52.2872 63.178 52.2872 63.0068C52.2872 62.9167 52.7065 62.5383 52.8046 62.5383C52.8403 62.5383 52.9652 62.4573 53.0901 62.3582C53.2149 62.2591 53.3844 62.178 53.4737 62.178C53.5539 62.178 53.6253 62.1329 53.6253 62.0879C53.6253 62.0338 53.6967 61.9978 53.7859 61.9978C53.8751 61.9978 54.0268 61.9257 54.1249 61.8356C54.2141 61.7455 54.4371 61.6104 54.6066 61.5293Z" fill="white"/>
<path d="M53.4469 63.2591C53.4023 63.2591 53.3577 63.214 53.3577 63.169C53.3577 63.1149 53.4023 63.0789 53.4469 63.0789C53.5004 63.0789 53.5361 63.1149 53.5361 63.169C53.5361 63.214 53.5004 63.2591 53.4469 63.2591Z" fill="white"/>
<path d="M50.0123 64.8808C49.9409 64.8808 49.8785 64.8357 49.8785 64.7907C49.8785 64.7366 49.9409 64.7006 50.0123 64.7006C50.0837 64.7006 50.1461 64.7366 50.1461 64.7907C50.1461 64.8357 50.0837 64.8808 50.0123 64.8808Z" fill="white"/>
</svg>
