<svg width="39" height="39" viewBox="0 0 39 39" fill="none" xmlns="http://www.w3.org/2000/svg">
<rect width="39" height="39" rx="19.5" fill="#FDFCFB"/>
<path d="M19.8462 7.08751C19.7477 7.1074 19.7136 7.06364 19.8007 7.02784C19.8765 6.99204 19.9408 6.99602 19.9408 7.0358C19.9408 7.04388 19.934 7.05262 19.9222 7.06068C19.9217 7.0628 19.9191 7.06512 19.9143 7.06762C19.912 7.06831 19.9095 7.06894 19.9069 7.06951C19.8905 7.07745 19.8694 7.08402 19.8462 7.08751Z" fill="#290A04"/>
<path d="M20.1188 7.11137C20.0204 7.12331 19.9863 7.08353 20.0431 7.02784C20.0545 7.01193 20.1075 7 20.1605 7C20.2817 7 20.2476 7.09546 20.1188 7.11137Z" fill="#290A04"/>
<path fill-rule="evenodd" clip-rule="evenodd" d="M20.3246 7.05333C20.3213 7.04647 20.3196 7.03914 20.3196 7.03182C20.3196 7.00398 20.7702 7.00796 20.8384 7.0358C20.8422 7.03978 20.8498 7.07955 20.8573 7.12729C20.8725 7.24662 21.0013 7.27446 21.0013 7.16308C21.0013 7.13555 21.005 7.11659 21.0164 7.10378C21.0067 7.10061 21.0013 7.09772 21.0013 7.09546C21.0013 7.08384 21.0468 7.07915 21.1012 7.07994C21.109 7.07967 21.1173 7.07955 21.1262 7.07955C21.1526 7.07955 21.1802 7.08254 21.2054 7.08758C21.2446 7.09304 21.2755 7.10119 21.2815 7.11137C21.2821 7.11252 21.2823 7.11363 21.2822 7.11469C21.2865 7.11748 21.2901 7.12036 21.2929 7.12331C21.3232 7.15513 21.3573 7.15513 21.4065 7.12729C21.4785 7.08353 21.7284 7.09149 21.8344 7.13524C21.8647 7.14717 21.9935 7.16706 22.1185 7.18297C22.5767 7.2307 22.8797 7.27048 23.0274 7.31026C23.1107 7.33412 23.213 7.36197 23.2547 7.36992C23.4857 7.43357 23.872 7.52505 23.9364 7.52903C23.9894 7.53301 24.0121 7.51312 24.0121 7.45743C24.0121 7.38981 24.0348 7.38186 24.1446 7.38981C24.2166 7.39777 24.2923 7.42163 24.3151 7.44152C24.334 7.46141 24.387 7.47732 24.4363 7.47732C24.4855 7.47732 24.5537 7.49323 24.5915 7.51312C24.6256 7.53301 24.7165 7.57676 24.7885 7.60858C24.8391 7.63379 24.9048 7.66886 24.9578 7.69713C24.98 7.709 25 7.71968 25.0157 7.72791C25.0687 7.75973 25.1786 7.8194 25.2619 7.86315C25.3172 7.89221 25.3943 7.93531 25.4631 7.9738C25.4979 7.99326 25.5306 8.01154 25.5573 8.02624C25.5952 8.0501 25.6463 8.08093 25.6974 8.11176C25.7485 8.14258 25.7997 8.17341 25.8375 8.19728C25.9133 8.24103 26.0723 8.34843 26.1935 8.43594C26.3147 8.51947 26.4283 8.59107 26.4435 8.59107C26.4624 8.59107 26.5344 8.6388 26.6063 8.70244C26.6783 8.76211 26.7919 8.83768 26.8525 8.8695C26.9169 8.90132 27.0722 9.0127 27.2009 9.11612C27.3297 9.22351 27.4547 9.30705 27.4698 9.30705C27.4888 9.30705 27.5304 9.33489 27.5569 9.37069C27.5872 9.40649 27.769 9.56162 27.9659 9.71674C28.3485 10.0151 28.8787 10.5521 28.8787 10.6396C28.8787 10.6714 28.909 10.7032 28.9468 10.7151C29.015 10.739 29.4164 11.1606 29.5225 11.3197C29.5528 11.3635 29.6513 11.4908 29.7384 11.5982C29.9921 11.9084 30.2269 12.2267 30.2496 12.2903C30.261 12.3221 30.3595 12.4733 30.4655 12.6244C30.6624 12.9068 30.742 13.062 30.9124 13.5234C30.9321 13.5766 30.9518 13.631 30.9698 13.6805C31.0001 13.7641 31.0255 13.834 31.0374 13.8615C31.0498 13.8973 31.085 13.981 31.1202 14.0647C31.128 14.0833 31.1358 14.1019 31.1434 14.12C31.1851 14.2195 31.2419 14.3706 31.2684 14.4581C31.3403 14.7167 31.3858 14.7962 31.4615 14.7962C31.4994 14.7962 31.5297 14.7763 31.5297 14.7564C31.5297 14.7484 31.5319 14.7412 31.5355 14.7352C31.5369 14.7256 31.5392 14.7228 31.5429 14.7264C31.5498 14.7202 31.5587 14.7167 31.5676 14.7167C31.6024 14.7167 31.6127 14.8246 31.6007 14.9145C31.6013 14.9219 31.6017 14.929 31.6017 14.9354C31.6045 14.9865 31.6009 14.999 31.586 14.9816C31.5799 14.9993 31.5725 15.0138 31.5638 15.0229C31.5297 15.0587 31.5449 15.0945 31.6206 15.1622C31.631 15.1716 31.6411 15.1825 31.6508 15.1946C31.659 15.1866 31.6734 15.2081 31.6893 15.2523C31.7491 15.3584 31.7869 15.5105 31.7839 15.6388C31.7925 15.6889 31.7904 15.7059 31.779 15.7001C31.7781 15.7065 31.7771 15.7128 31.7759 15.719C31.7607 15.7827 31.7683 15.8304 31.791 15.8304C31.7919 15.8304 31.7928 15.8305 31.7937 15.8305C31.7941 15.8305 31.7944 15.8304 31.7948 15.8304C31.7958 15.8304 31.7967 15.8307 31.7977 15.8312C31.8434 15.8418 31.8763 15.9644 31.916 16.268C31.9555 16.5653 31.9747 16.7452 31.9757 16.8438C31.9834 16.9165 31.9825 16.9373 31.9733 16.9428C31.9682 16.9458 31.9605 16.9442 31.9502 16.9442C31.8934 16.9442 31.8971 17.0436 31.9577 17.0953C31.9608 17.098 31.9637 17.1041 31.9664 17.1132C31.9679 17.1175 31.9692 17.1229 31.9705 17.1295C32.023 17.3774 32.0019 18.8322 31.9349 18.9211C31.9341 18.9223 31.9333 18.9236 31.9325 18.925C31.932 18.929 31.9316 18.933 31.9312 18.937C31.927 18.9737 31.9229 19.0097 31.9189 19.0449C31.9192 19.0461 31.9195 19.0472 31.9198 19.0483C31.9274 19.0921 31.916 19.2592 31.8895 19.4183C31.863 19.5774 31.8478 19.7206 31.8554 19.7365C31.8668 19.7524 31.8516 19.8399 31.8289 19.9354C31.8062 20.0308 31.791 20.1541 31.791 20.2138C31.7948 20.2735 31.7683 20.4047 31.7342 20.5121C31.7001 20.6155 31.6661 20.8264 31.6623 20.9815C31.6585 21.1326 31.6244 21.3474 31.5865 21.4588C31.5524 21.5662 31.5183 21.7094 31.5108 21.777C31.507 21.8407 31.4767 21.9839 31.4502 22.0873C31.4047 22.2583 31.4047 22.2941 31.4653 22.4015C31.5524 22.5606 31.5486 22.6362 31.4199 23.03C31.3631 23.2169 31.2911 23.4556 31.2646 23.567C31.1737 23.925 30.795 24.7563 30.6284 24.9512C30.5943 24.991 30.564 25.0506 30.5602 25.0825C30.545 25.1978 30.4352 25.3967 30.3405 25.4922C30.2875 25.5478 30.2421 25.6075 30.2421 25.6314C30.2383 25.6552 30.189 25.7388 30.1284 25.8144C30.0641 25.8899 30.0148 25.9894 30.0148 26.0411C30.0148 26.0928 29.9391 26.2081 29.8293 26.3235C29.8033 26.3521 29.7805 26.3766 29.7601 26.3975C29.7476 26.4133 29.7375 26.4249 29.7308 26.4309C29.7272 26.4341 29.7224 26.437 29.7165 26.4396C29.646 26.5031 29.6048 26.5124 29.5414 26.4985C29.4392 26.4786 29.4354 26.4826 29.4619 26.6258C29.4635 26.6341 29.4649 26.6421 29.4661 26.6499C29.4759 26.6599 29.4846 26.6871 29.4846 26.7213C29.4846 26.734 29.4772 26.7544 29.4648 26.7793C29.4544 26.8276 29.4316 26.8783 29.3937 26.948C29.3331 27.0554 29.265 27.127 29.2119 27.1349C29.1551 27.1429 29.0983 27.2105 29.0339 27.3418C28.9771 27.4531 28.7878 27.6878 28.5643 27.9185C28.0417 28.4476 27.9962 28.4953 27.9243 28.6067C27.8902 28.6624 27.7993 28.7379 27.7236 28.7737C27.6516 28.8095 27.5645 28.8851 27.5304 28.9328C27.4849 29.0075 27.4288 29.0485 27.3139 29.0811C27.2814 29.1036 27.2581 29.1158 27.2464 29.1158C27.2413 29.1158 27.245 29.1087 27.2562 29.0958C27.2323 29.1012 27.2064 29.1065 27.1782 29.1118C27.0684 29.1317 27.0419 29.1596 26.9964 29.2948C26.9472 29.4499 26.6745 29.7522 26.5836 29.7522C26.5571 29.7522 26.4965 29.8 26.4473 29.8636C26.2768 30.0705 25.9852 30.2693 25.6898 30.3728C25.652 30.3887 25.6217 30.4245 25.6217 30.4523C25.6217 30.5279 25.2808 30.7825 25.1823 30.7864C25.1369 30.7864 25.0574 30.8222 25.0043 30.866C24.9513 30.9097 24.8983 30.9455 24.8832 30.9455C24.868 30.9455 24.7544 31.0251 24.6294 31.1245C24.5044 31.224 24.3719 31.3035 24.334 31.3035C24.2961 31.3035 24.2393 31.3274 24.209 31.3592C24.1787 31.391 24.0727 31.4547 23.9704 31.5024C23.8682 31.5462 23.6864 31.6376 23.569 31.7013C23.4516 31.7689 23.3304 31.8087 23.2963 31.7968C23.266 31.7848 23.1941 31.8127 23.1372 31.8564C23.0161 31.9559 22.9782 31.9598 22.8873 31.8723C22.8229 31.8127 22.8191 31.8127 22.8191 31.8763C22.8191 31.8856 22.8171 31.8954 22.8135 31.9051C22.8176 31.9083 22.8129 31.9199 22.8002 31.94C22.7888 31.9598 22.7547 31.9797 22.732 31.9797C22.7313 31.9797 22.7305 31.9797 22.7298 31.9797C22.6903 32.0002 22.6355 32.035 22.5957 32.0672C22.5464 32.107 22.4745 32.1388 22.4366 32.1388C22.395 32.1388 22.3647 32.1547 22.3647 32.1786C22.3647 32.1985 22.3457 32.2184 22.3268 32.2184C22.2889 32.2184 21.9973 32.3457 21.8647 32.4213C21.8269 32.4411 21.7436 32.457 21.6754 32.457C21.6072 32.457 21.4936 32.4928 21.4216 32.5406C21.3345 32.5963 21.2133 32.6281 21.0467 32.636C21.0117 32.6369 20.9788 32.6391 20.9483 32.6423C20.9366 32.6443 20.9274 32.6454 20.921 32.6456C20.8304 32.6578 20.7644 32.6808 20.7324 32.7116C20.6907 32.7474 20.6377 32.7753 20.6112 32.7753C20.5809 32.7753 20.5468 32.7872 20.5316 32.8031C20.5165 32.823 20.4218 32.8349 20.3271 32.8389C20.2287 32.8429 20.0469 32.8628 19.9219 32.8866C19.7969 32.9105 19.5167 32.9344 19.297 32.9383C19.0774 32.9423 18.8804 32.9622 18.8539 32.9821C18.8274 33.006 18.7857 33.006 18.7441 32.9821C18.7062 32.9582 18.6229 32.9582 18.532 32.9821C18.4335 33.002 18.3616 33.002 18.3313 32.9741C18.3086 32.9543 18.2214 32.9383 18.1381 32.9383C17.8314 32.9463 17.18 32.9105 17.1535 32.8827C17.1444 32.8732 17.1221 32.8651 17.0942 32.8602C17.0793 32.8586 17.0649 32.8569 17.051 32.8553C17.0448 32.855 17.0385 32.8548 17.0323 32.8548C16.987 32.8548 16.9031 32.8403 16.8276 32.8187C16.7915 32.8108 16.7718 32.8045 16.7671 32.8002C16.6689 32.7714 16.6196 32.7735 16.5702 32.8031C16.4945 32.8548 16.0703 32.7355 15.9605 32.6321C15.915 32.5883 15.8582 32.5764 15.7825 32.5963C15.7143 32.6082 15.6575 32.6042 15.6424 32.5804C15.631 32.5565 15.578 32.5366 15.5287 32.5366C15.4795 32.5366 15.4265 32.5167 15.4151 32.4968C15.4038 32.473 15.347 32.457 15.2901 32.457C15.2333 32.457 15.1387 32.4252 15.0743 32.3855C15.0137 32.3457 14.8849 32.29 14.7902 32.2582C14.6221 32.2038 14.5147 32.1466 14.3668 32.0296C14.2999 31.9944 14.26 31.9681 14.26 31.9559C14.26 31.9511 14.2606 31.9473 14.263 31.9451C14.2108 31.906 14.1458 31.8702 14.0903 31.8497C14.0844 31.8502 14.071 31.8459 14.0509 31.8374C14.0417 31.8351 14.0332 31.8335 14.0252 31.8326C13.9608 31.8246 13.8624 31.7888 13.8093 31.753C13.7525 31.7172 13.6011 31.6257 13.4685 31.5541C13.3359 31.4825 13.1996 31.399 13.1655 31.3672C13.1314 31.3353 13.0405 31.2836 12.9648 31.2518C12.8891 31.216 12.802 31.1524 12.7754 31.1086C12.7489 31.0609 12.7073 31.0251 12.6808 31.0251C12.658 31.0251 12.5899 30.9734 12.5293 30.9058C12.4725 30.8381 12.4005 30.7864 12.3778 30.7864C12.3513 30.7864 12.2907 30.7188 12.2377 30.6393C12.1808 30.5398 12.0786 30.4523 11.9574 30.3887C11.8324 30.325 11.7491 30.2494 11.7188 30.1818C11.7123 30.1637 11.7046 30.1468 11.6964 30.132C11.6771 30.1125 11.6574 30.092 11.6372 30.0705C11.6366 30.0705 11.6361 30.0705 11.6355 30.0705C11.5825 30.0705 11.234 29.7005 11.2303 29.6409C11.2303 29.617 11.2151 29.5931 11.1924 29.5931C11.1734 29.5931 11.1545 29.5693 11.1545 29.5374C11.1545 29.5096 11.075 29.4062 10.9803 29.3107C10.6281 28.9647 10.5486 28.8692 10.5486 28.8056C10.5486 28.7698 10.469 28.6862 10.3743 28.6226C10.2569 28.547 10.1812 28.4555 10.1433 28.364C10.0146 28.022 9.98427 27.9742 9.82142 27.8867C9.76461 27.8549 9.69265 27.7674 9.66235 27.6878C9.63205 27.6083 9.56389 27.5168 9.51086 27.4889C9.45784 27.4571 9.4124 27.4134 9.4124 27.3895C9.40861 27.3656 9.35938 27.2821 9.29878 27.2065C9.2344 27.131 9.18516 27.0554 9.18516 27.0355C9.18516 27.0196 9.15487 26.9679 9.11699 26.9281C9.01474 26.8127 8.88219 26.5343 8.88219 26.4388C8.88219 26.3314 8.79887 26.0928 8.761 26.0928C8.74585 26.0928 8.67768 25.9735 8.60951 25.8223C8.54134 25.6751 8.45423 25.52 8.42015 25.4802C8.38228 25.4365 8.35198 25.3768 8.35198 25.349C8.35198 25.3211 8.33683 25.2973 8.31789 25.2973C8.30274 25.2973 8.26487 25.1859 8.23836 25.0467C8.20806 24.9114 8.15504 24.7444 8.11717 24.6807C8.0793 24.6131 8.01492 24.4858 7.97704 24.3983C7.93538 24.3068 7.88615 24.2193 7.86343 24.2074C7.8407 24.1915 7.82177 24.1278 7.82177 24.0602C7.82177 23.9488 7.77632 23.8335 7.68164 23.7062C7.65892 23.6744 7.63241 23.555 7.62105 23.4476C7.59832 23.1533 7.51879 22.7834 7.46198 22.6919C7.42032 22.6203 7.37488 22.3379 7.34837 21.9958C7.34458 21.9401 7.31428 21.8287 7.2802 21.7452C7.23096 21.6298 7.22718 21.5702 7.25747 21.5105C7.28398 21.4548 7.28398 21.419 7.25369 21.3793C7.23096 21.3474 7.2196 21.2878 7.23475 21.244C7.24611 21.2003 7.23475 21.0491 7.20445 20.9139C7.17415 20.7746 7.14764 20.6195 7.15143 20.5638C7.15143 20.5081 7.12871 20.365 7.1022 20.2456C7.07569 20.1263 7.04918 19.8996 7.0416 19.7484C7.03403 19.5933 7.01888 19.4222 7.00373 19.3626C6.99237 19.2989 7.00752 19.1836 7.0416 19.0841C7.09462 18.933 7.11735 18.7421 7.15143 18.217C7.16279 18.0659 7.20445 17.9465 7.27262 17.871C7.29913 17.8471 7.32943 17.7118 7.34079 17.5687C7.35594 17.3857 7.3976 17.2544 7.48092 17.1072C7.55288 16.972 7.59454 16.8487 7.59454 16.7453C7.59454 16.6617 7.61347 16.5782 7.63241 16.5663C7.65513 16.5543 7.67028 16.5106 7.67028 16.4668C7.67028 16.4271 7.693 16.3873 7.7233 16.3754C7.78768 16.3475 7.89751 16.1248 7.89751 16.0174C7.89751 15.9338 8.15883 15.3531 8.1967 15.3531C8.20288 15.3531 8.21029 15.3466 8.21846 15.3349C8.22914 15.3136 8.23908 15.2944 8.2481 15.2777C8.27942 15.2042 8.31294 15.0884 8.32925 14.9832C8.35198 14.8559 8.54891 14.4621 8.62087 14.3985C8.63223 14.3865 8.66632 14.307 8.69283 14.2195C8.72312 14.132 8.79129 13.9927 8.85189 13.9132C8.9087 13.8336 8.95793 13.7501 8.95793 13.7302C8.95793 13.7103 8.9958 13.6626 9.03746 13.6188C9.08291 13.5791 9.15487 13.4876 9.20031 13.4199C9.24197 13.3523 9.3518 13.1932 9.44269 13.0699C9.53359 12.9466 9.62448 12.7915 9.6472 12.7239C9.66993 12.6562 9.7381 12.5767 9.80627 12.5409C9.84639 12.5192 9.88279 12.495 9.91617 12.4672C9.92305 12.4609 9.92978 12.4551 9.93626 12.4497C10.0099 12.3827 10.0685 12.2962 10.1206 12.1789C10.1547 12.1033 10.2229 11.9959 10.2721 11.9363C10.522 11.6499 10.7266 11.455 10.7758 11.455C10.7956 11.455 10.8431 11.4226 10.8969 11.3756C10.8969 11.3756 10.8968 11.3757 10.8969 11.3756C10.9115 11.3511 10.9526 11.3114 11.0128 11.2617C11.1689 11.1014 11.374 10.9482 11.5522 10.8583C11.6166 10.8265 11.6999 10.7748 11.7415 10.739C11.8741 10.6237 12.3323 10.3412 12.3816 10.3412C12.4081 10.3412 12.5028 10.3054 12.5937 10.2577C12.6698 10.2193 12.7532 10.1938 12.8145 10.1915C12.8385 10.1856 12.8497 10.187 12.8548 10.194C12.9532 10.2179 13.3208 10.0628 13.37 9.98325C13.3814 9.95938 13.4344 9.94347 13.4874 9.94347C13.5257 9.94347 13.5508 9.95613 13.5637 9.97416C13.5863 9.97277 13.5902 9.9818 13.5737 10.0011C13.5774 10.04 13.5418 10.0858 13.4723 10.0946C13.3776 10.1105 13.3625 10.1901 13.4458 10.2617C13.4761 10.2895 13.5026 10.3333 13.5026 10.3611C13.5026 10.4486 13.62 10.4645 13.745 10.3969C13.9987 10.2577 14.1956 10.2577 14.4267 10.385C14.4759 10.4128 14.51 10.4128 14.5365 10.385C14.5592 10.3611 14.6577 10.3412 14.7562 10.3412C14.8698 10.3412 14.9417 10.3213 14.9531 10.2895C14.972 10.2338 15.1879 10.2418 15.2636 10.3015C15.2864 10.3174 15.4341 10.3333 15.6007 10.3333C15.881 10.3373 15.9075 10.3412 16.0173 10.4566C16.0855 10.5242 16.1726 10.5799 16.2142 10.5799C16.2559 10.5799 16.3051 10.5958 16.3278 10.6157C16.3468 10.6356 16.4036 10.6595 16.4566 10.6674C16.5248 10.6754 16.5892 10.747 16.6914 10.918C16.7672 11.0493 16.824 11.1805 16.8126 11.2084C16.805 11.2362 16.8391 11.3038 16.8921 11.3516C16.9755 11.4351 16.9868 11.4749 16.9792 11.6698C16.9755 11.7971 16.9868 11.9084 17.0095 11.9243C17.0285 11.9403 17.0664 11.9999 17.0929 12.0636C17.1307 12.159 17.1269 12.1909 17.0512 12.3102C16.9944 12.4017 16.9262 12.4574 16.8353 12.4772C16.7293 12.5051 16.7028 12.5329 16.7028 12.6085C16.7028 12.6761 16.7293 12.7119 16.7975 12.7278C16.8444 12.7402 16.8695 12.757 16.8827 12.7946C16.8846 12.7973 16.8865 12.8002 16.8884 12.8034C16.8978 12.8189 16.8991 12.844 16.895 12.8698C16.8954 12.8765 16.8957 12.8835 16.8959 12.8909C16.8967 12.9053 16.8974 12.9202 16.8982 12.9352C16.9012 12.995 16.9043 13.0548 16.9073 13.0739C16.9073 13.1017 16.9603 13.1256 17.0209 13.1256C17.1143 13.1256 17.2076 13.1846 17.2352 13.2463C17.2538 13.2497 17.2559 13.2594 17.2427 13.2717C17.244 13.2816 17.2434 13.2913 17.2406 13.3006C17.233 13.3245 17.1838 13.3444 17.1345 13.3444C17.0777 13.3444 17.0285 13.3762 17.0058 13.4359C16.9868 13.4836 16.9489 13.5154 16.9224 13.5075C16.8997 13.4955 16.8581 13.5154 16.8353 13.5472C16.8088 13.5791 16.7709 13.6029 16.7482 13.6029C16.7066 13.6029 16.5437 13.7461 16.0627 14.2115C15.8772 14.3905 15.7105 14.5456 15.6916 14.5536C15.5439 14.6093 14.4002 15.8702 14.2676 16.1208C14.2184 16.2123 14.1388 16.3316 14.0934 16.3873C14.0479 16.443 13.9608 16.5663 13.904 16.6657C13.8434 16.7652 13.7298 16.9362 13.6503 17.0476C13.6326 17.0712 13.6158 17.0947 13.6002 17.1172C13.5686 17.1696 13.5374 17.2218 13.5069 17.2737C13.5041 17.281 13.5026 17.2866 13.5026 17.2902C13.5026 17.3079 13.4758 17.3505 13.4406 17.3877C13.3934 17.4698 13.348 17.5507 13.3048 17.6299C13.2756 17.7126 13.2117 17.8571 13.1579 17.9624C13.0974 18.0738 13.0481 18.1892 13.0481 18.225C13.0481 18.2568 13.014 18.3165 12.9762 18.3523C12.8853 18.4398 12.8588 18.6426 12.836 19.4103C12.8285 19.7484 12.8057 20.0825 12.7868 20.1502C12.7679 20.2218 12.7679 20.3013 12.7868 20.3371C12.8057 20.3729 12.836 20.6036 12.855 20.8502C12.8777 21.1764 12.908 21.3514 12.9686 21.4787C13.0102 21.5742 13.0481 21.6776 13.0481 21.7094C13.0481 21.7412 13.0822 21.8088 13.1239 21.8645C13.2148 21.9839 13.2185 22.0356 13.1466 22.0356C13.0633 22.0356 13.033 22.1111 13.0746 22.2066C13.0789 22.2164 13.0832 22.2266 13.0876 22.2372C13.0964 22.2527 13.1042 22.2733 13.11 22.2938C13.1422 22.3778 13.1735 22.4719 13.1935 22.5432C13.2351 22.6231 13.2476 22.6827 13.2229 22.6671C13.2582 22.7703 13.3895 22.9902 13.4268 22.9902C13.442 22.9902 13.5367 23.1215 13.6313 23.2766C13.726 23.4357 13.8359 23.6067 13.8775 23.6545C13.923 23.7022 13.9571 23.7579 13.9571 23.7738C13.9571 23.7897 14.029 23.8892 14.1199 23.9926C14.207 24.092 14.3585 24.2909 14.4532 24.4301C14.6956 24.7762 15.2447 25.3808 15.5136 25.5956C15.6386 25.695 15.7446 25.7746 15.756 25.7746C15.7635 25.7746 15.862 25.8303 15.9718 25.8979C16.0817 25.9695 16.2635 26.057 16.3771 26.0968C16.4907 26.1405 16.6157 26.2002 16.6498 26.236C16.6952 26.2797 16.752 26.2917 16.8126 26.2758C16.8656 26.2638 16.9186 26.2678 16.93 26.2917C16.9414 26.3116 17.0361 26.3314 17.1421 26.3314C17.2936 26.3314 17.3277 26.3434 17.3277 26.3991C17.3277 26.4388 17.3466 26.4985 17.3655 26.5303C17.3996 26.582 17.4148 26.5781 17.4716 26.4985C17.5322 26.415 17.5587 26.411 17.8692 26.4229C18.051 26.4349 18.2139 26.4508 18.2252 26.4667C18.2631 26.5065 18.5699 26.4945 18.5964 26.4508C18.6077 26.4309 18.6494 26.411 18.6835 26.411C18.7176 26.411 18.816 26.3792 18.8994 26.3354C19.0774 26.2479 19.3538 26.1445 19.6151 26.0689C19.7212 26.0371 19.8197 25.9973 19.8424 25.9735C19.8613 25.9536 19.9068 25.9337 19.9408 25.9337C19.9749 25.9337 20.081 25.882 20.1794 25.8144C20.3877 25.6791 20.3953 25.6751 20.3953 25.7507C20.3953 25.7526 20.3951 25.7545 20.3948 25.7565C20.3951 25.7598 20.3953 25.7632 20.3953 25.7666C20.3953 25.7706 20.3917 25.7758 20.3848 25.7823C20.3671 25.8139 20.3284 25.8531 20.2817 25.882C20.2173 25.9178 20.1681 25.9814 20.1681 26.0212C20.1681 26.0452 20.1626 26.0634 20.1542 26.0752C20.1528 26.0854 20.1455 26.0928 20.134 26.0928C20.1214 26.0928 20.11 26.0867 20.1023 26.0779C20.0955 26.0704 20.0893 26.0595 20.0848 26.0451C20.0658 25.9894 19.8575 26.0649 19.7477 26.1604C19.7098 26.1922 19.5962 26.24 19.4902 26.2718C19.3841 26.2996 19.2364 26.3633 19.1607 26.407C19.0887 26.4548 18.9978 26.4906 18.96 26.4906C18.9259 26.4906 18.8766 26.5104 18.8539 26.5343C18.8312 26.5582 18.7592 26.59 18.6911 26.6059C18.5585 26.6338 18.5282 26.7014 18.638 26.7252C18.6759 26.7332 18.7554 26.773 18.8123 26.8127C18.9145 26.8923 19.1645 26.9162 19.2023 26.8525C19.2137 26.8287 19.3311 26.8167 19.4599 26.8207C19.6379 26.8247 19.7439 26.8048 19.8689 26.7411C20.0545 26.6497 20.3612 26.5303 20.5089 26.4985C20.5619 26.4906 20.6491 26.4468 20.7059 26.407C20.7589 26.3633 20.8346 26.3314 20.8763 26.3314C20.9142 26.3314 21.0051 26.2797 21.077 26.2201C21.149 26.1604 21.3005 26.0689 21.4103 26.0212C21.5239 25.9735 21.6792 25.878 21.7625 25.8104C21.842 25.7428 21.9102 25.703 21.9102 25.7189C21.9102 25.7246 21.916 25.7247 21.9263 25.7199C21.9442 25.7076 21.9621 25.6952 21.9801 25.6827C21.9913 25.6736 22.0034 25.6631 22.0162 25.6513C22.073 25.5956 22.1601 25.528 22.217 25.5001C22.27 25.4723 22.3647 25.4007 22.4328 25.3331C22.4972 25.2694 22.5654 25.2177 22.5805 25.2177C22.5957 25.2177 22.7396 25.0904 22.8949 24.9393C23.0501 24.7881 23.1903 24.6608 23.2054 24.6608C23.2547 24.6608 23.4251 24.4898 23.4251 24.446C23.4251 24.4222 23.516 24.2989 23.6258 24.1756C23.9061 23.8494 24.0803 23.6227 24.1409 23.4954C24.1712 23.4357 24.2204 23.388 24.2469 23.388C24.2734 23.388 24.3113 23.3562 24.3226 23.3164C24.3378 23.2806 24.3719 23.2249 24.3984 23.197C24.4249 23.1692 24.4476 23.1095 24.4476 23.0658C24.4476 23.026 24.5234 22.9067 24.618 22.7993C24.7127 22.6959 24.7885 22.5726 24.7885 22.5248C24.7885 22.4771 24.8074 22.4254 24.8263 22.4134C24.8491 22.4015 24.8642 22.3339 24.8642 22.2663C24.8642 22.1947 24.8983 22.0674 24.9362 21.9799C24.9684 21.902 25.0061 21.804 25.0237 21.7373C25.0258 21.7263 25.0288 21.7132 25.0324 21.6984C25.0917 21.426 25.1071 21.3705 25.1672 21.2798C25.2089 21.2162 25.224 21.1525 25.2051 21.1008C25.1861 21.0491 25.2051 20.9656 25.2467 20.8741C25.2884 20.7906 25.3187 20.6991 25.3187 20.6673C25.3187 20.6354 25.3376 20.6036 25.3603 20.5957C25.3869 20.5877 25.402 20.4962 25.3982 20.365C25.3982 20.2496 25.4096 20.1342 25.4285 20.1104C25.4474 20.0865 25.4702 19.9871 25.4853 19.8876C25.5383 19.4382 25.5573 19.3467 25.6065 19.287C25.6078 19.2854 25.6091 19.2837 25.6103 19.2819C25.6138 19.2723 25.6179 19.2648 25.6223 19.2599C25.66 19.1758 25.6892 18.9602 25.7126 18.575C25.7163 18.5193 25.7315 18.4557 25.7466 18.4278C25.7921 18.3523 25.7807 17.2107 25.7315 17.0118C25.7088 16.9084 25.6974 16.7572 25.705 16.6697C25.7126 16.5742 25.7012 16.5026 25.6747 16.4907C25.652 16.4828 25.5952 16.3714 25.5497 16.2401C25.5244 16.1747 25.4941 16.0925 25.465 16.0134C25.4374 15.9387 25.4109 15.8667 25.3906 15.8145C25.3528 15.7071 25.3187 15.5599 25.3187 15.4883C25.3187 15.3968 25.2997 15.3531 25.2619 15.3531C25.2316 15.3531 25.1937 15.3054 25.1823 15.2417C25.1672 15.1821 25.1066 15.0707 25.046 14.9951C24.9892 14.9195 24.94 14.828 24.94 14.7962C24.94 14.7604 24.8907 14.6809 24.8263 14.6172C24.7355 14.5257 24.7127 14.4701 24.7127 14.3308C24.7127 14.1678 24.7052 14.1598 24.6218 14.1837C24.5499 14.1996 24.4969 14.1638 24.3189 13.953C24.2015 13.8137 24.1068 13.6825 24.1068 13.6546C24.1068 13.6308 24.0689 13.595 24.0235 13.5791C23.8833 13.5353 23.8038 13.4398 23.8038 13.3126C23.8038 13.2091 23.7924 13.1972 23.7091 13.2211C23.6447 13.237 23.5917 13.225 23.5463 13.1773C23.5046 13.1375 23.3607 13.0182 23.2206 12.9148C23.0842 12.8074 22.9706 12.704 22.9706 12.6761C22.9706 12.5926 22.8002 12.2505 22.7585 12.2505C22.7358 12.2505 22.6866 12.2863 22.6487 12.3301C22.6257 12.357 22.6022 12.3769 22.5795 12.3902C22.573 12.4023 22.5643 12.4096 22.554 12.4096C22.5504 12.4096 22.5468 12.4083 22.5434 12.406C22.4853 12.4223 22.4404 12.389 22.4404 12.3102C22.4404 12.1988 22.3381 12.1312 22.2889 12.2107C22.2881 12.2121 22.2872 12.2134 22.2863 12.2146C22.294 12.236 22.2873 12.2505 22.2624 12.2505C22.2503 12.2505 22.2294 12.2376 22.2065 12.2187C22.1934 12.2118 22.1781 12.2025 22.1601 12.1909C22.1071 12.1511 22.0617 12.0994 22.0617 12.0715C22.0617 12.0238 21.7095 11.7732 21.6413 11.7732C21.6224 11.7732 21.6072 11.8249 21.6072 11.8925C21.6072 11.902 21.6069 11.9113 21.6062 11.9203C21.6109 11.9533 21.6096 11.9668 21.5999 11.9644C21.5933 11.9929 21.5826 12.0119 21.5693 12.0119C21.5504 12.0119 21.5315 11.9959 21.5315 11.98C21.5315 11.9641 21.4747 11.9323 21.4103 11.9124C21.3568 11.895 21.3258 11.8813 21.3093 11.8604C21.2842 11.8456 21.2664 11.8213 21.2664 11.805C21.2664 11.7858 21.2784 11.7781 21.2945 11.7791C21.2951 11.7723 21.2958 11.765 21.2967 11.7573C21.3042 11.6936 21.2853 11.626 21.2588 11.6101C21.2323 11.5942 21.2247 11.5664 21.2399 11.5504C21.2664 11.5226 21.5466 11.5982 21.6262 11.6539C21.6489 11.6698 21.7284 11.6936 21.8042 11.7056C21.8799 11.7175 22.0011 11.7533 22.0693 11.7891C22.1374 11.8209 22.2662 11.8687 22.3571 11.8885C22.448 11.9084 22.5502 11.9522 22.5881 11.988C22.626 12.0238 22.6714 12.0516 22.6904 12.0516C22.7093 12.0556 22.7926 12.0874 22.8759 12.1312C22.9593 12.1749 23.0615 12.2068 23.107 12.2107C23.1486 12.2107 23.2244 12.2545 23.2736 12.3102C23.3228 12.3659 23.3948 12.4096 23.4327 12.4096C23.4705 12.4096 23.5008 12.4375 23.5008 12.4693C23.5008 12.5011 23.5235 12.529 23.5501 12.529C23.5804 12.529 23.5993 12.4932 23.5955 12.4534C23.5879 12.3539 23.3986 12.0914 23.3342 12.0914C23.3077 12.0914 23.2206 12.0357 23.141 11.9721C23.0615 11.9045 22.982 11.8527 22.9593 11.8527C22.9062 11.8527 22.8229 11.7255 22.8191 11.6499C22.8191 11.5783 22.7434 11.5345 22.6298 11.5345C22.5881 11.5345 22.5427 11.5027 22.5199 11.4669C22.4858 11.3993 22.1639 11.2959 21.9405 11.2839C21.8875 11.28 21.8269 11.2641 21.8117 11.2442C21.7966 11.2283 21.7398 11.2163 21.6867 11.2163C21.5656 11.2123 21.4557 11.1288 21.4557 11.0413C21.4557 10.9737 21.3573 10.9578 21.2702 11.0135C21.2361 11.0373 21.1641 11.0095 21.0467 10.926C20.9369 10.8464 20.8687 10.8186 20.8573 10.8504C20.8498 10.8742 20.7854 10.9061 20.7096 10.922C20.6074 10.9419 20.5657 10.9339 20.5392 10.8822C20.5203 10.8464 20.4635 10.8186 20.4142 10.8186C20.365 10.8186 20.3196 10.7987 20.312 10.7708C20.3006 10.735 20.259 10.743 20.1605 10.7907C20.0763 10.832 20.0356 10.8529 19.9958 10.851C19.9551 10.849 19.9153 10.8232 19.831 10.7708C19.7591 10.7231 19.6379 10.6793 19.5697 10.6754C19.4977 10.6754 19.4296 10.6475 19.4106 10.6197C19.3955 10.5918 19.3576 10.5799 19.3311 10.5879C19.3008 10.5998 19.2326 10.5799 19.1758 10.5481C19.0849 10.4924 19.066 10.4924 18.9789 10.5521C18.8463 10.6475 18.7517 10.6356 18.6949 10.5242C18.6153 10.3731 18.4714 10.3691 18.3502 10.5083L18.2442 10.6276L18.1571 10.5043C18.1116 10.4367 18.0397 10.381 18.0056 10.381C17.9677 10.381 17.892 10.3611 17.8352 10.3333C17.7518 10.2935 17.7291 10.2935 17.6875 10.3532C17.6609 10.389 17.5966 10.4208 17.5435 10.4208C17.4905 10.4208 17.4413 10.4447 17.4299 10.4685C17.4186 10.5043 17.3921 10.4924 17.3466 10.4287C17.2974 10.3611 17.2481 10.3412 17.1004 10.3412C16.9906 10.3412 16.9111 10.3611 16.8997 10.389C16.8846 10.4248 16.8694 10.4248 16.8467 10.4009C16.8088 10.3532 16.5324 10.3333 16.5324 10.381C16.5324 10.4208 16.1764 10.4208 16.112 10.377C16.0173 10.3174 16.1309 10.2617 16.3581 10.2537C16.4755 10.2498 16.5816 10.2338 16.5929 10.214C16.6195 10.1662 16.8353 10.1742 16.8353 10.2219C16.8353 10.2418 16.8543 10.2617 16.8732 10.2617C16.8959 10.2617 16.9111 10.2338 16.9111 10.198C16.9111 10.1543 16.93 10.1424 16.9717 10.1583C17.055 10.1901 17.2178 10.0787 17.1913 10.0071C17.18 9.97529 17.1875 9.93949 17.2103 9.92358C17.2784 9.87983 17.2557 9.84403 17.0966 9.73265C16.9641 9.64117 16.9073 9.62526 16.6725 9.63321C16.521 9.63719 16.3809 9.65708 16.3544 9.67697C16.2975 9.72072 16.2294 9.68095 16.2294 9.60139C16.2294 9.56957 16.2029 9.5457 16.1726 9.5457C16.1385 9.5457 16.1688 9.49002 16.2597 9.39058C16.3771 9.26329 16.4339 9.23147 16.5892 9.21556C16.7321 9.19888 16.8417 9.1836 16.9272 9.16796C16.9176 9.15914 16.9317 9.15192 16.9641 9.15192C16.9791 9.15048 16.9917 9.15112 17.0009 9.15308C17.0774 9.1359 17.1295 9.11767 17.1686 9.09623C17.233 9.06441 17.2746 9.06441 17.3277 9.09623C17.3996 9.14794 17.4413 9.12805 17.4413 9.04054C17.4413 9.0127 17.411 8.98883 17.3769 8.98883C17.339 8.98883 17.2784 8.96099 17.2406 8.93314C17.1951 8.89337 17.0626 8.88541 16.7596 8.89337C16.3733 8.90132 16.3392 8.89735 16.3013 8.82575C16.2672 8.75415 16.2521 8.75017 16.1991 8.7979C16.1612 8.82973 16.0627 8.85359 15.9643 8.84961C15.862 8.84166 15.7333 8.8695 15.6461 8.91326C15.5628 8.95701 15.4341 8.98883 15.3621 8.98883C15.2864 8.98883 15.1841 9.02463 15.1311 9.06441C15.0629 9.12407 15.0213 9.13203 14.9682 9.10021C14.919 9.07236 14.8622 9.07634 14.7864 9.11214C14.7259 9.13601 14.6653 9.14794 14.6539 9.13601C14.616 9.09623 14.9039 8.82973 14.9872 8.82973C15.0288 8.82973 15.0932 8.7979 15.1273 8.75813C15.2523 8.61095 15.6727 8.4956 15.9718 8.52742C16.2142 8.55129 16.2483 8.54333 16.3354 8.424C16.3809 8.36434 16.3657 8.34843 16.2142 8.27683C16.0741 8.21319 16.0173 8.20523 15.9075 8.23705C15.8052 8.26887 15.756 8.2649 15.7143 8.2291C15.6689 8.18932 15.6424 8.19728 15.5742 8.26887C15.4833 8.35638 15.3962 8.38025 15.3962 8.31661C15.3962 8.29672 15.4227 8.27285 15.453 8.25694C15.4833 8.24501 15.5287 8.1933 15.5477 8.14557C15.5704 8.09386 15.6045 8.02226 15.631 7.98646C15.6689 7.93077 15.6651 7.90691 15.6121 7.84326C15.578 7.80349 15.5477 7.75973 15.5477 7.7478C15.5477 7.68018 16.6535 7.5171 17.2898 7.48925C17.6117 7.47732 17.8957 7.45345 17.9147 7.43754C17.9374 7.42163 18.0737 7.41368 18.2177 7.41765C18.479 7.42561 18.7214 7.34606 18.7857 7.23866C18.8047 7.20684 18.8426 7.21479 18.9069 7.25855C18.9751 7.30628 19.013 7.31424 19.0508 7.27844C19.0887 7.24662 19.1039 7.24662 19.119 7.28639C19.1342 7.32617 19.1493 7.32617 19.1796 7.27844C19.244 7.18297 19.2288 7.15911 19.0887 7.15911C19.0168 7.15911 18.9562 7.13922 18.9562 7.11933C18.9562 7.11379 18.9592 7.10867 18.9648 7.10404L18.9372 7.10342L18.9693 7.10072C18.99 7.08726 19.0327 7.0784 19.0811 7.07558C19.1275 7.07558 19.2189 7.07352 19.3088 7.07088C19.356 7.06635 19.4002 7.06229 19.4378 7.05884C19.4957 7.05354 19.5378 7.04968 19.5508 7.04773C19.5735 7.04375 19.6076 7.05569 19.6189 7.07955C19.6219 7.08424 19.6198 7.08846 19.6127 7.09219C19.6225 7.10475 19.6268 7.12253 19.6303 7.14717C19.6454 7.24662 19.7742 7.27048 19.903 7.19888C19.9522 7.17104 19.9825 7.17104 19.9977 7.19888C20.009 7.21877 20.0961 7.23866 20.1908 7.23866C20.3158 7.23866 20.365 7.21877 20.3839 7.17104C20.3991 7.13524 20.3877 7.09546 20.365 7.08751C20.3484 7.08251 20.3347 7.07124 20.3268 7.05763C20.3251 7.05692 20.3239 7.05627 20.3234 7.05569C20.3226 7.0549 20.323 7.05411 20.3246 7.05333ZM19.4485 7.23866C19.4902 7.23866 19.5243 7.21877 19.5243 7.19888C19.5243 7.17502 19.4902 7.15911 19.4485 7.15911C19.4068 7.15911 19.3728 7.17502 19.3728 7.19888C19.3728 7.21877 19.4068 7.23866 19.4485 7.23866ZM24.4363 7.66029C24.4476 7.64836 24.4438 7.62449 24.4287 7.60063C24.3984 7.54892 24.2961 7.54096 24.2961 7.59267C24.2961 7.63245 24.4098 7.68814 24.4363 7.66029ZM23.8379 12.6419C23.8479 12.6463 23.8574 12.6459 23.8644 12.6403C23.8758 12.6244 23.8606 12.5846 23.8265 12.5488C23.7923 12.5107 23.7719 12.5031 23.769 12.5186C23.7747 12.5312 23.7789 12.5428 23.7811 12.5528C23.7928 12.5928 23.8158 12.628 23.8379 12.6419ZM11.6469 17.4414C11.6696 17.4294 11.6847 17.4095 11.6847 17.3976C11.6847 17.3897 11.6696 17.3817 11.6469 17.3817C11.6279 17.3817 11.609 17.4016 11.609 17.4255C11.609 17.4453 11.6279 17.4533 11.6469 17.4414Z" fill="#290A04"/>
<path d="M18.6835 7.17104C18.6229 7.19093 18.5017 7.15911 18.5017 7.12331C18.5017 7.1074 18.5547 7.09149 18.6153 7.09149C18.7289 7.09149 18.7706 7.13922 18.6835 7.17104Z" fill="#290A04"/>
<path d="M18.8232 7.15248C18.8126 7.14499 18.8047 7.13216 18.8047 7.11933C18.8047 7.09546 18.8236 7.07955 18.8426 7.07955C18.8477 7.07955 18.8524 7.08036 18.8566 7.08187C18.8598 7.08036 18.8627 7.07955 18.8653 7.07955C18.8729 7.07955 18.8804 7.09546 18.8804 7.11933C18.8804 7.13922 18.8653 7.15911 18.8426 7.15911C18.842 7.15911 18.8414 7.15909 18.8408 7.15905C18.8401 7.15909 18.8395 7.15911 18.8388 7.15911C18.832 7.15911 18.8268 7.1566 18.8232 7.15248Z" fill="#290A04"/>
<path d="M15.203 8.43196C15.1841 8.43196 15.169 8.41207 15.169 8.39218C15.169 8.36832 15.1955 8.35241 15.2296 8.35241C15.2599 8.35241 15.275 8.36832 15.2636 8.39218C15.2523 8.41207 15.2258 8.43196 15.203 8.43196Z" fill="#290A04"/>
<path d="M26.9472 8.75017C26.9282 8.75017 26.9093 8.73028 26.9093 8.7104C26.9093 8.68653 26.9282 8.67062 26.9472 8.67062C26.9699 8.67062 26.9851 8.68653 26.9851 8.7104C26.9851 8.73028 26.9699 8.75017 26.9472 8.75017Z" fill="#290A04"/>
<path d="M14.5441 9.22749C14.5138 9.22749 14.4873 9.2076 14.4873 9.18772C14.4873 9.16385 14.5138 9.14794 14.5441 9.14794C14.5744 9.14794 14.6009 9.16385 14.6009 9.18772C14.6009 9.2076 14.5744 9.22749 14.5441 9.22749Z" fill="#290A04"/>
<path d="M14.3736 9.30705C14.3547 9.30705 14.3358 9.28716 14.3358 9.26727C14.3358 9.2434 14.3547 9.22749 14.3736 9.22749C14.3964 9.22749 14.4115 9.2434 14.4115 9.26727C14.4115 9.28716 14.3964 9.30705 14.3736 9.30705Z" fill="#290A04"/>
<path d="M27.8599 9.3866C27.8372 9.3866 27.8182 9.36671 27.8182 9.34682C27.8182 9.32296 27.8258 9.30705 27.8334 9.30705C27.8448 9.30705 27.8637 9.32296 27.8751 9.34682C27.8864 9.36671 27.8788 9.3866 27.8599 9.3866Z" fill="#290A04"/>
<path d="M28.4431 9.94347C28.4128 9.94347 28.3863 9.92358 28.3863 9.90369C28.3863 9.87983 28.4128 9.86392 28.4431 9.86392C28.4734 9.86392 28.4999 9.87983 28.4999 9.90369C28.4999 9.92358 28.4734 9.94347 28.4431 9.94347Z" fill="#290A04"/>
<path d="M16.8353 10.023C16.7937 10.023 16.7596 10.0031 16.7596 9.98325C16.7596 9.95938 16.7937 9.94347 16.8353 9.94347C16.877 9.94347 16.9111 9.95938 16.9111 9.98325C16.9111 10.0031 16.877 10.023 16.8353 10.023Z" fill="#290A04"/>
<path d="M28.6136 10.1424C28.5946 10.1424 28.5605 10.1066 28.5378 10.0628C28.4924 9.97529 28.4999 9.97131 28.5908 10.0071C28.6552 10.035 28.6742 10.1424 28.6136 10.1424Z" fill="#290A04"/>
<path d="M29.3748 10.8981C29.3331 10.8981 29.1059 10.6555 29.1059 10.6117C29.1059 10.556 29.1438 10.5759 29.2763 10.7191C29.4127 10.8583 29.4354 10.8981 29.3748 10.8981Z" fill="#290A04"/>
<path d="M16.8959 11.0572C16.8618 11.0572 16.8353 11.0373 16.8353 11.0174C16.8353 10.9936 16.8505 10.9777 16.8694 10.9777C16.8921 10.9777 16.9186 10.9936 16.93 11.0174C16.9414 11.0373 16.9262 11.0572 16.8959 11.0572Z" fill="#290A04"/>
<path d="M17.2141 11.0572C17.1535 11.0572 17.1004 11.0373 17.1004 11.0174C17.1004 10.9936 17.1535 10.9777 17.2141 10.9777C17.2784 10.9777 17.3277 10.9936 17.3277 11.0174C17.3277 11.0373 17.2784 11.0572 17.2141 11.0572Z" fill="#290A04"/>
<path d="M17.6117 11.0572C17.5814 11.0572 17.5549 11.0373 17.5549 11.0174C17.5549 10.9936 17.5814 10.9777 17.6117 10.9777C17.642 10.9777 17.6685 10.9936 17.6685 11.0174C17.6685 11.0373 17.642 11.0572 17.6117 11.0572Z" fill="#290A04"/>
<path d="M18.2404 11.1686C18.3048 11.2123 18.3313 11.2084 18.4146 11.1368C18.4676 11.093 18.5244 11.0572 18.5434 11.0572C18.5812 11.0572 18.6267 11.2839 18.5964 11.3357C18.5661 11.3874 18.4373 11.3874 18.407 11.3357C18.3957 11.3118 18.3426 11.2959 18.2972 11.2959C18.2025 11.2959 18.0927 11.1925 18.1381 11.1487C18.1533 11.1328 18.1987 11.1407 18.2404 11.1686Z" fill="#290A04"/>
<path d="M19.0471 11.4152C18.9448 11.4152 18.8426 11.3357 18.8653 11.276C18.8956 11.2004 18.9827 11.2004 19.0546 11.272C19.105 11.3249 19.1183 11.374 19.0957 11.3986C19.0971 11.4097 19.0896 11.4152 19.0736 11.4152C19.0702 11.4152 19.0669 11.4148 19.0638 11.414C19.0587 11.4148 19.0531 11.4152 19.0471 11.4152Z" fill="#290A04"/>
<path d="M19.5659 11.3357C19.4977 11.3357 19.4106 11.2879 19.4106 11.2521C19.4106 11.1925 19.5508 11.2123 19.5773 11.276C19.5886 11.3078 19.5811 11.3357 19.5659 11.3357Z" fill="#290A04"/>
<path d="M29.674 11.2959C29.655 11.2959 29.6361 11.276 29.6361 11.2561C29.6361 11.2322 29.655 11.2163 29.674 11.2163C29.6967 11.2163 29.7118 11.2322 29.7118 11.2561C29.7118 11.276 29.6967 11.2959 29.674 11.2959Z" fill="#290A04"/>
<path d="M20.7362 11.4152C20.7172 11.4152 20.6983 11.3874 20.6983 11.3555C20.6983 11.3237 20.7172 11.2959 20.7362 11.2959C20.7589 11.2959 20.774 11.3237 20.774 11.3555C20.774 11.3874 20.7589 11.4152 20.7362 11.4152Z" fill="#290A04"/>
<path d="M20.0507 11.5504C19.9219 11.4828 19.9219 11.4788 19.9977 11.4033C20.0856 11.3109 20.2268 11.3868 20.2293 11.484C20.2352 11.5018 20.2341 11.5191 20.2249 11.5345C20.2167 11.5488 20.2091 11.5574 20.2008 11.5601C20.1674 11.6021 20.1404 11.6015 20.0507 11.5504Z" fill="#290A04"/>
<path d="M29.8633 11.5146C29.8217 11.4749 29.7876 11.4271 29.7876 11.4073C29.7876 11.3555 29.833 11.3715 29.8861 11.4431C29.9618 11.5504 29.9467 11.5942 29.8633 11.5146Z" fill="#290A04"/>
<path d="M30.1436 11.7732C30.1171 11.7732 30.0148 11.6658 30.0148 11.638C30.0148 11.622 30.0489 11.634 30.0906 11.6618C30.1625 11.7096 30.1928 11.7732 30.1436 11.7732Z" fill="#290A04"/>
<path d="M18.3313 11.7812C18.2783 11.7732 18.2366 11.7493 18.2366 11.7294C18.2366 11.7231 18.2408 11.7172 18.2483 11.712C18.2364 11.6978 18.2529 11.6936 18.3048 11.6936C18.3089 11.6936 18.313 11.6938 18.317 11.694C18.3217 11.6938 18.3264 11.6936 18.3313 11.6936C18.3843 11.6936 18.426 11.7175 18.426 11.7493C18.426 11.7851 18.3957 11.7971 18.3313 11.7812Z" fill="#290A04"/>
<path d="M30.2421 11.9688C30.2421 11.9686 30.2421 11.9683 30.2421 11.9681C30.2421 11.9429 30.2481 11.9319 30.2586 11.9345C30.2803 11.9256 30.3173 11.9495 30.333 11.9959C30.3511 12.0468 30.3574 12.0751 30.3502 12.082C30.3536 12.0933 30.348 12.0916 30.3325 12.0786C30.324 12.0735 30.3128 12.0645 30.2989 12.0516C30.2915 12.0448 30.2843 12.0376 30.2777 12.0302C30.2575 12.0076 30.2425 11.9839 30.2421 11.9688Z" fill="#290A04"/>
<path d="M19.7142 12.0458C19.7138 12.0426 19.7136 12.0393 19.7136 12.0357C19.7136 11.9999 19.7401 11.9721 19.7742 11.9721C19.8133 11.9721 19.8244 12.0043 19.812 12.0349C19.8124 12.0399 19.8112 12.0455 19.8083 12.0516C19.7969 12.0715 19.7704 12.0914 19.7477 12.0914C19.7288 12.0914 19.7136 12.0715 19.7136 12.0516C19.7136 12.0496 19.7138 12.0477 19.7142 12.0458Z" fill="#290A04"/>
<path d="M20.2187 12.068C20.2184 12.0744 20.2206 12.0823 20.2249 12.0914C20.2256 12.0927 20.2265 12.094 20.2274 12.0954C20.2363 12.1237 20.2438 12.1486 20.2438 12.1551C20.2438 12.163 20.2628 12.171 20.2817 12.171C20.3044 12.171 20.3196 12.1352 20.3196 12.0914C20.3196 12.0437 20.2931 12.0119 20.259 12.0119C20.2198 12.0119 20.2074 12.0295 20.2187 12.068Z" fill="#290A04"/>
<path d="M20.7059 12.4574C20.6453 12.521 20.4711 12.3142 20.4976 12.2068C20.5241 12.1113 20.6074 12.1073 20.6377 12.1988C20.6491 12.2386 20.6793 12.3022 20.7059 12.338C20.7437 12.3937 20.7437 12.4176 20.7059 12.4574Z" fill="#290A04"/>
<path d="M30.5223 12.4096C30.4807 12.4096 30.3973 12.2744 30.3935 12.2147C30.3935 12.2039 30.3947 12.1959 30.3973 12.191C30.3973 12.178 30.4041 12.1778 30.4152 12.187C30.4272 12.1921 30.4447 12.2065 30.4693 12.2306C30.5412 12.2982 30.5715 12.4096 30.5223 12.4096Z" fill="#290A04"/>
<path d="M20.9445 12.5687C20.9142 12.5687 20.8876 12.5488 20.8876 12.529C20.8876 12.5051 20.9142 12.4892 20.9445 12.4892C20.9748 12.4892 21.0013 12.5051 21.0013 12.529C21.0013 12.5488 20.9748 12.5687 20.9445 12.5687Z" fill="#290A04"/>
<path d="M21.2664 12.6483C21.1755 12.6483 21.1528 12.6324 21.1528 12.5608C21.1528 12.5583 21.1528 12.5559 21.1528 12.5536C21.1528 12.5533 21.1528 12.5531 21.1528 12.5528C21.1528 12.5526 21.1528 12.5523 21.1528 12.5521C21.1538 12.4925 21.1656 12.4868 21.1982 12.521C21.2247 12.5488 21.2739 12.5687 21.3118 12.5687C21.3497 12.5687 21.38 12.5846 21.38 12.6085C21.38 12.6145 21.3754 12.6206 21.3673 12.6261C21.3696 12.6287 21.3701 12.6308 21.3686 12.6324C21.3657 12.6355 21.3584 12.6363 21.3482 12.6355C21.3278 12.6432 21.299 12.6483 21.2664 12.6483Z" fill="#290A04"/>
<path d="M30.6208 12.6682C30.5791 12.6284 30.545 12.5727 30.545 12.5409C30.545 12.4534 30.6056 12.4812 30.6511 12.5886C30.7155 12.7318 30.7079 12.7517 30.6208 12.6682Z" fill="#290A04"/>
<path d="M21.7208 12.8472C21.6678 12.8472 21.5315 12.7159 21.5315 12.6682C21.5315 12.6602 21.5332 12.6547 21.5383 12.6527C21.5594 12.637 21.6285 12.6608 21.7284 12.7199C21.7966 12.7597 21.9329 12.8193 22.0352 12.8472C22.1412 12.883 22.2207 12.9347 22.2359 12.9784C22.2473 13.0182 22.2927 13.0818 22.3306 13.1216C22.3978 13.1868 22.4386 13.3132 22.4311 13.3868C22.4478 13.4258 22.4444 13.446 22.4153 13.4314C22.4083 13.4394 22.3991 13.4438 22.3874 13.4438C22.3571 13.4438 22.3192 13.4239 22.3079 13.404C22.2965 13.3802 22.3041 13.3643 22.323 13.3643C22.3461 13.3643 22.3594 13.3595 22.364 13.3515C22.3614 13.3401 22.3504 13.3219 22.3339 13.3015C22.3108 13.2831 22.2758 13.263 22.2321 13.2449C22.1601 13.2171 22.0314 13.1137 21.9405 13.0182C21.8534 12.9227 21.7549 12.8472 21.7208 12.8472Z" fill="#290A04"/>
<path d="M22.7012 13.3627C22.6557 13.3654 22.5919 13.3151 22.5919 13.2648C22.5919 13.2637 22.5919 13.2626 22.5919 13.2615C22.5919 13.2612 22.5919 13.261 22.5919 13.2608C22.5919 13.2583 22.5921 13.2562 22.5924 13.2543C22.5953 13.2271 22.6092 13.2052 22.626 13.2052C22.6714 13.2052 22.7585 13.3205 22.732 13.3484C22.7251 13.3564 22.7159 13.3608 22.7056 13.3623C22.7061 13.3645 22.7046 13.3647 22.7012 13.3627Z" fill="#290A04"/>
<path d="M23.2319 13.9211C23.1941 13.9211 22.9706 13.587 22.9706 13.5273C22.9706 13.4518 23.0312 13.4796 23.0842 13.583C23.1107 13.6387 23.1562 13.6825 23.1789 13.6825C23.2509 13.6825 23.3152 13.7859 23.2887 13.8575C23.2774 13.8933 23.2509 13.9211 23.2319 13.9211Z" fill="#290A04"/>
<path d="M31.2646 14.0802C31.2457 14.0802 31.2267 14.0444 31.2267 13.9967C31.2267 13.953 31.2457 13.9291 31.2646 13.941C31.2873 13.953 31.3025 13.9927 31.3025 14.0246C31.3025 14.0564 31.2873 14.0802 31.2646 14.0802Z" fill="#290A04"/>
<path d="M31.3782 14.3985C31.329 14.3706 31.3025 14.3149 31.3025 14.2393C31.3025 14.1204 31.3142 14.0951 31.3542 14.1671C31.357 14.1661 31.36 14.1675 31.3631 14.1717C31.3689 14.1779 31.3728 14.1903 31.3736 14.2048C31.3797 14.2174 31.3863 14.2316 31.3934 14.2473C31.4502 14.3638 31.4645 14.4174 31.4349 14.4196C31.4317 14.4235 31.4256 14.4233 31.4161 14.4183C31.4135 14.417 31.411 14.4154 31.4086 14.4136C31.3999 14.4101 31.3897 14.405 31.3782 14.3985Z" fill="#290A04"/>
<path d="M31.4918 14.6371C31.4729 14.6371 31.454 14.6172 31.454 14.5973C31.454 14.5735 31.4729 14.5576 31.4918 14.5576C31.5146 14.5576 31.5297 14.5735 31.5297 14.5973C31.5297 14.6172 31.5146 14.6371 31.4918 14.6371Z" fill="#290A04"/>
<path d="M24.1132 15.6788C24.0493 15.6045 23.9553 15.422 23.9553 15.3531C23.9553 15.3487 23.9555 15.3443 23.9559 15.3401C23.9555 15.3375 23.9553 15.3352 23.9553 15.3332C23.9553 15.3271 23.9565 15.3234 23.9587 15.3217C23.9649 15.2934 23.979 15.2735 23.9932 15.2735C24.0159 15.2735 24.031 15.3213 24.031 15.3849C24.031 15.4486 24.0613 15.5122 24.1068 15.544C24.1787 15.5918 24.2128 15.7111 24.156 15.7111C24.1522 15.7111 24.1477 15.7094 24.1427 15.7063C24.139 15.7174 24.1298 15.7097 24.1132 15.6788Z" fill="#290A04"/>
<path d="M24.8112 17.8869C24.7809 17.9187 24.7127 17.855 24.7127 17.7954C24.7127 17.7636 24.7279 17.7397 24.7468 17.7397C24.7847 17.7397 24.8377 17.859 24.8112 17.8869Z" fill="#290A04"/>
<path d="M24.5651 20.164C24.5648 20.1473 24.5683 20.1278 24.5764 20.1064C24.5991 20.0428 24.7127 20.0229 24.7127 20.0786C24.7127 20.0984 24.69 20.1422 24.6635 20.186C24.622 20.2404 24.5788 20.2297 24.5678 20.1856C24.564 20.1815 24.5628 20.1741 24.5651 20.164Z" fill="#290A04"/>
<path d="M24.0689 22.5129C24.05 22.5129 24.031 22.485 24.031 22.4532C24.031 22.4214 24.05 22.3936 24.0689 22.3936C24.0916 22.3936 24.1068 22.4214 24.1068 22.4532C24.1068 22.485 24.0916 22.5129 24.0689 22.5129Z" fill="#290A04"/>
<path d="M21.4557 25.0904C21.5277 25.0546 21.664 24.9432 21.7587 24.8478C21.8534 24.7483 21.9632 24.6688 22.0049 24.6648C22.0175 24.6648 22.0277 24.6649 22.0356 24.6656C22.0385 24.6648 22.0409 24.6645 22.0427 24.6648C22.0465 24.6648 22.0486 24.666 22.0492 24.6683C22.0637 24.6746 22.0446 24.6922 21.9859 24.7404C21.7625 24.9273 21.611 25.0825 21.6072 25.1342C21.6072 25.162 21.5845 25.1779 21.558 25.166C21.5315 25.1541 21.4671 25.1819 21.4141 25.2217C21.3648 25.2615 21.2929 25.2973 21.2588 25.2973C21.2518 25.2973 21.2451 25.2978 21.2388 25.2988C21.2231 25.3088 21.2075 25.3188 21.192 25.3285C21.1911 25.3312 21.1906 25.3341 21.1906 25.337C21.1906 25.3569 21.1679 25.3768 21.1452 25.3768C21.1187 25.3768 21.0543 25.4126 21.0013 25.4564C20.9482 25.5001 20.8801 25.5359 20.8422 25.5359C20.8081 25.5359 20.7362 25.5876 20.6869 25.6552C20.596 25.7666 20.4711 25.8183 20.4711 25.7428C20.4711 25.703 20.6491 25.5359 20.6907 25.5359C20.7059 25.5359 20.7589 25.5001 20.8119 25.4564C20.8649 25.4126 20.9369 25.3768 20.9748 25.3768C21.0088 25.3768 21.0391 25.3569 21.0391 25.337C21.0391 25.3132 21.0694 25.2973 21.1073 25.2973C21.1452 25.2973 21.2096 25.2654 21.2512 25.2257C21.2891 25.1859 21.3838 25.1262 21.4557 25.0904Z" fill="#290A04"/>
<path d="M20.9634 25.8541C20.9445 25.8541 20.9255 25.8342 20.9255 25.8144C20.9255 25.7905 20.9445 25.7746 20.9634 25.7746C20.9861 25.7746 21.0013 25.7905 21.0013 25.8144C21.0013 25.8342 20.9861 25.8541 20.9634 25.8541Z" fill="#290A04"/>
<path d="M19.5053 26.5701C19.475 26.5701 19.4485 26.5502 19.4485 26.5303C19.4485 26.5065 19.475 26.4906 19.5053 26.4906C19.5356 26.4906 19.5621 26.5065 19.5621 26.5303C19.5621 26.5502 19.5356 26.5701 19.5053 26.5701Z" fill="#290A04"/>
</svg>
